<?xml version="1.0" encoding="utf-8" standalone="no"?>
<!DOCTYPE svg PUBLIC "-//W3C//DTD SVG 1.1//EN"
  "http://www.w3.org/Graphics/SVG/1.1/DTD/svg11.dtd">
<svg xmlns:xlink="http://www.w3.org/1999/xlink" width="439.087813pt" height="462.7982pt" viewBox="0 0 439.087813 462.7982" xmlns="http://www.w3.org/2000/svg" version="1.1">
 <metadata>
  <rdf:RDF xmlns:dc="http://purl.org/dc/elements/1.1/" xmlns:cc="http://creativecommons.org/ns#" xmlns:rdf="http://www.w3.org/1999/02/22-rdf-syntax-ns#">
   <cc:Work>
    <dc:type rdf:resource="http://purl.org/dc/dcmitype/StillImage"/>
    <dc:date>2026-04-23T13:12:54.901185</dc:date>
    <dc:format>image/svg+xml</dc:format>
    <dc:creator>
     <cc:Agent>
      <dc:title>Matplotlib v3.10.7, https://matplotlib.org/</dc:title>
     </cc:Agent>
    </dc:creator>
   </cc:Work>
  </rdf:RDF>
 </metadata>
 <defs>
  <style type="text/css">*{stroke-linejoin: round; stroke-linecap: butt}</style>
 </defs>
 <g id="figure_1">
  <g id="patch_1">
   <path d="M 0 462.7982 
L 439.087813 462.7982 
L 439.087813 -0 
L 0 -0 
z
" style="fill: #ffffff"/>
  </g>
  <g id="axes_1">
   <g id="patch_2">
    <path d="M 41.287813 383.04 
L 431.887812 383.04 
L 431.887812 50.4 
L 41.287813 50.4 
z
" style="fill: #ffffff"/>
   </g>
   <g id="matplotlib.axis_1">
    <g id="xtick_1">
     <g id="line2d_1">
      <defs>
       <path id="m58a546f497" d="M 0 0 
L 0 4 
" style="stroke: #000000; stroke-width: 0.8"/>
      </defs>
      <g>
       <use xlink:href="#m58a546f497" x="71.120151" y="383.04" style="stroke: #000000; stroke-width: 0.8"/>
      </g>
     </g>
     <g id="text_1">
      <text style="font-size: 10px; font-family: 'Liberation Sans', 'DejaVu Sans', sans-serif; text-anchor: middle" x="71.120151" y="397.786875" transform="rotate(-0 71.120151 397.786875)">−4</text>
     </g>
    </g>
    <g id="xtick_2">
     <g id="line2d_2">
      <g>
       <use xlink:href="#m58a546f497" x="117.720263" y="383.04" style="stroke: #000000; stroke-width: 0.8"/>
      </g>
     </g>
     <g id="text_2">
      <text style="font-size: 10px; font-family: 'Liberation Sans', 'DejaVu Sans', sans-serif; text-anchor: middle" x="117.720263" y="397.786875" transform="rotate(-0 117.720263 397.786875)">−3</text>
     </g>
    </g>
    <g id="xtick_3">
     <g id="line2d_3">
      <g>
       <use xlink:href="#m58a546f497" x="164.320374" y="383.04" style="stroke: #000000; stroke-width: 0.8"/>
      </g>
     </g>
     <g id="text_3">
      <text style="font-size: 10px; font-family: 'Liberation Sans', 'DejaVu Sans', sans-serif; text-anchor: middle" x="164.320374" y="397.786875" transform="rotate(-0 164.320374 397.786875)">−2</text>
     </g>
    </g>
    <g id="xtick_4">
     <g id="line2d_4">
      <g>
       <use xlink:href="#m58a546f497" x="210.920486" y="383.04" style="stroke: #000000; stroke-width: 0.8"/>
      </g>
     </g>
     <g id="text_4">
      <text style="font-size: 10px; font-family: 'Liberation Sans', 'DejaVu Sans', sans-serif; text-anchor: middle" x="210.920486" y="397.786875" transform="rotate(-0 210.920486 397.786875)">−1</text>
     </g>
    </g>
    <g id="xtick_5">
     <g id="line2d_5">
      <g>
       <use xlink:href="#m58a546f497" x="257.520597" y="383.04" style="stroke: #000000; stroke-width: 0.8"/>
      </g>
     </g>
     <g id="text_5">
      <text style="font-size: 10px; font-family: 'Liberation Sans', 'DejaVu Sans', sans-serif; text-anchor: middle" x="257.520597" y="397.786875" transform="rotate(-0 257.520597 397.786875)">0</text>
     </g>
    </g>
    <g id="xtick_6">
     <g id="line2d_6">
      <g>
       <use xlink:href="#m58a546f497" x="304.120709" y="383.04" style="stroke: #000000; stroke-width: 0.8"/>
      </g>
     </g>
     <g id="text_6">
      <text style="font-size: 10px; font-family: 'Liberation Sans', 'DejaVu Sans', sans-serif; text-anchor: middle" x="304.120709" y="397.786875" transform="rotate(-0 304.120709 397.786875)">1</text>
     </g>
    </g>
    <g id="xtick_7">
     <g id="line2d_7">
      <g>
       <use xlink:href="#m58a546f497" x="350.72082" y="383.04" style="stroke: #000000; stroke-width: 0.8"/>
      </g>
     </g>
     <g id="text_7">
      <text style="font-size: 10px; font-family: 'Liberation Sans', 'DejaVu Sans', sans-serif; text-anchor: middle" x="350.72082" y="397.786875" transform="rotate(-0 350.72082 397.786875)">2</text>
     </g>
    </g>
    <g id="xtick_8">
     <g id="line2d_8">
      <g>
       <use xlink:href="#m58a546f497" x="397.320932" y="383.04" style="stroke: #000000; stroke-width: 0.8"/>
      </g>
     </g>
     <g id="text_8">
      <text style="font-size: 10px; font-family: 'Liberation Sans', 'DejaVu Sans', sans-serif; text-anchor: middle" x="397.320932" y="397.786875" transform="rotate(-0 397.320932 397.786875)">3</text>
     </g>
    </g>
    <g id="text_9">
     <text style="font-size: 12px; font-family: 'Liberation Sans', 'DejaVu Sans', sans-serif; text-anchor: middle" x="236.587813" y="412.558125" transform="rotate(-0 236.587813 412.558125)">PC1 (35.9 % variance)</text>
    </g>
   </g>
   <g id="matplotlib.axis_2">
    <g id="ytick_1">
     <g id="line2d_9">
      <defs>
       <path id="m25acc2ae7a" d="M 0 0 
L -4 0 
" style="stroke: #000000; stroke-width: 0.8"/>
      </defs>
      <g>
       <use xlink:href="#m25acc2ae7a" x="41.287813" y="373.185253" style="stroke: #000000; stroke-width: 0.8"/>
      </g>
     </g>
     <g id="text_10">
      <text style="font-size: 10px; font-family: 'Liberation Sans', 'DejaVu Sans', sans-serif; text-anchor: end" x="33.787813" y="376.80869" transform="rotate(-0 33.787813 376.80869)">−4</text>
     </g>
    </g>
    <g id="ytick_2">
     <g id="line2d_10">
      <g>
       <use xlink:href="#m25acc2ae7a" x="41.287813" y="304.76724" style="stroke: #000000; stroke-width: 0.8"/>
      </g>
     </g>
     <g id="text_11">
      <text style="font-size: 10px; font-family: 'Liberation Sans', 'DejaVu Sans', sans-serif; text-anchor: end" x="33.787813" y="308.390678" transform="rotate(-0 33.787813 308.390678)">−2</text>
     </g>
    </g>
    <g id="ytick_3">
     <g id="line2d_11">
      <g>
       <use xlink:href="#m25acc2ae7a" x="41.287813" y="236.349227" style="stroke: #000000; stroke-width: 0.8"/>
      </g>
     </g>
     <g id="text_12">
      <text style="font-size: 10px; font-family: 'Liberation Sans', 'DejaVu Sans', sans-serif; text-anchor: end" x="33.787813" y="239.972665" transform="rotate(-0 33.787813 239.972665)">0</text>
     </g>
    </g>
    <g id="ytick_4">
     <g id="line2d_12">
      <g>
       <use xlink:href="#m25acc2ae7a" x="41.287813" y="167.931215" style="stroke: #000000; stroke-width: 0.8"/>
      </g>
     </g>
     <g id="text_13">
      <text style="font-size: 10px; font-family: 'Liberation Sans', 'DejaVu Sans', sans-serif; text-anchor: end" x="33.787813" y="171.554652" transform="rotate(-0 33.787813 171.554652)">2</text>
     </g>
    </g>
    <g id="ytick_5">
     <g id="line2d_13">
      <g>
       <use xlink:href="#m25acc2ae7a" x="41.287813" y="99.513202" style="stroke: #000000; stroke-width: 0.8"/>
      </g>
     </g>
     <g id="text_14">
      <text style="font-size: 10px; font-family: 'Liberation Sans', 'DejaVu Sans', sans-serif; text-anchor: end" x="33.787813" y="103.136639" transform="rotate(-0 33.787813 103.136639)">4</text>
     </g>
    </g>
    <g id="text_15">
     <text style="font-size: 12px; font-family: 'Liberation Sans', 'DejaVu Sans', sans-serif; text-anchor: middle" x="15.89625" y="216.72" transform="rotate(-90 15.89625 216.72)">PC2 (24.0 % variance)</text>
    </g>
   </g>
   <g id="patch_3">
    <path d="M 41.287813 383.04 
L 41.287813 50.4 
" style="fill: none; stroke: #000000; stroke-width: 0.8; stroke-linejoin: miter; stroke-linecap: square"/>
   </g>
   <g id="patch_4">
    <path d="M 41.287813 383.04 
L 431.887813 383.04 
" style="fill: none; stroke: #000000; stroke-width: 0.8; stroke-linejoin: miter; stroke-linecap: square"/>
   </g>
   <g id="patch_5">
    <path d="M 211.764199 337.603835 
Q 218.626072 336.596379 225.487945 335.588923 
" style="fill: none; stroke: #8c8c8c; stroke-width: 0.4; stroke-linecap: round"/>
   </g>
   <g id="text_16">
    <text style="font-weight: 700; font-size: 10px; font-family: 'Liberation Sans', 'DejaVu Sans', sans-serif; text-anchor: middle" x="204.170336" y="341.3047" transform="rotate(-0 204.170336 341.3047)">A</text>
   </g>
   <g id="patch_6">
    <path d="M 246.598704 293.004703 
Q 253.460577 294.012159 260.32245 295.019616 
" style="fill: none; stroke: #8c8c8c; stroke-width: 0.4; stroke-linecap: round"/>
   </g>
   <g id="text_17">
    <text style="font-weight: 700; font-size: 10px; font-family: 'Liberation Sans', 'DejaVu Sans', sans-serif; text-anchor: middle" x="239.004841" y="294.475714" transform="rotate(-0 239.004841 294.475714)">C</text>
   </g>
   <g id="patch_7">
    <path d="M 404.300629 275.808546 
Q 397.377698 273.775705 390.454768 271.742864 
" style="fill: none; stroke: #8c8c8c; stroke-width: 0.4; stroke-linecap: round"/>
   </g>
   <g id="text_18">
    <text style="font-weight: 700; font-size: 10px; font-family: 'Liberation Sans', 'DejaVu Sans', sans-serif; text-anchor: middle" x="411.834033" y="280.606584" transform="rotate(-0 411.834033 280.606584)">D</text>
   </g>
   <g id="patch_8">
    <path d="M 368.283312 229.269142 
Q 361.216288 227.193989 354.149265 225.118837 
" style="fill: none; stroke: #8c8c8c; stroke-width: 0.4; stroke-linecap: round"/>
   </g>
   <g id="text_19">
    <text style="font-weight: 700; font-size: 10px; font-family: 'Liberation Sans', 'DejaVu Sans', sans-serif; text-anchor: middle" x="375.533171" y="233.98392" transform="rotate(-0 375.533171 233.98392)">E</text>
   </g>
   <g id="patch_9">
    <path d="M 69.736555 236.476203 
Q 70.632988 233.185857 71.529422 229.89551 
" style="fill: none; stroke: #8c8c8c; stroke-width: 0.4; stroke-linecap: round"/>
   </g>
   <g id="text_20">
    <text style="font-weight: 700; font-size: 10px; font-family: 'Liberation Sans', 'DejaVu Sans', sans-serif; text-anchor: middle" x="67.396058" y="247.652898" transform="rotate(-0 67.396058 247.652898)">F</text>
   </g>
   <g id="patch_10">
    <path d="M 416.452782 376.433746 
Q 415.556348 373.143399 414.659915 369.853053 
" style="fill: none; stroke: #8c8c8c; stroke-width: 0.4; stroke-linecap: round"/>
   </g>
   <g id="text_21">
    <text style="font-weight: 700; font-size: 10px; font-family: 'Liberation Sans', 'DejaVu Sans', sans-serif; text-anchor: middle" x="418.793278" y="387.610441" transform="rotate(-0 418.793278 387.610441)">G</text>
   </g>
   <g id="patch_11">
    <path d="M 280.551289 166.097752 
Q 287.439846 167.614813 294.328403 169.131874 
" style="fill: none; stroke: #8c8c8c; stroke-width: 0.4; stroke-linecap: round"/>
   </g>
   <g id="text_22">
    <text style="font-weight: 700; font-size: 10px; font-family: 'Liberation Sans', 'DejaVu Sans', sans-serif; text-anchor: middle" x="272.983337" y="167.017006" transform="rotate(-0 272.983337 167.017006)">H</text>
   </g>
   <g id="patch_12">
    <path d="M 76.42857 281.357473 
Q 77.452176 277.224628 78.475782 273.091782 
" style="fill: none; stroke: #8c8c8c; stroke-width: 0.4; stroke-linecap: round"/>
   </g>
   <g id="text_23">
    <text style="font-weight: 700; font-size: 10px; font-family: 'Liberation Sans', 'DejaVu Sans', sans-serif; text-anchor: middle" x="74.29656" y="292.55147" transform="rotate(-0 74.29656 292.55147)">I</text>
   </g>
   <g id="patch_13">
    <path d="M 339.648713 107.062639 
Q 346.571643 109.09548 353.494573 111.128321 
" style="fill: none; stroke: #8c8c8c; stroke-width: 0.4; stroke-linecap: round"/>
   </g>
   <g id="text_24">
    <text style="font-weight: 700; font-size: 10px; font-family: 'Liberation Sans', 'DejaVu Sans', sans-serif; text-anchor: middle" x="332.115308" y="107.436476" transform="rotate(-0 332.115308 107.436476)">K</text>
   </g>
   <g id="patch_14">
    <path d="M 115.541857 270.99436 
Q 107.247395 270.44082 98.952932 269.88728 
" style="fill: none; stroke: #8c8c8c; stroke-width: 0.4; stroke-linecap: round"/>
   </g>
   <g id="text_25">
    <text style="font-weight: 700; font-size: 10px; font-family: 'Liberation Sans', 'DejaVu Sans', sans-serif; text-anchor: middle" x="122.591597" y="274.05077" transform="rotate(-0 122.591597 274.05077)">L</text>
   </g>
   <g id="patch_15">
    <path d="M 164.954983 231.696168 
Q 172.703633 232.730398 180.452283 233.764627 
" style="fill: none; stroke: #8c8c8c; stroke-width: 0.4; stroke-linecap: round"/>
   </g>
   <g id="text_26">
    <text style="font-weight: 700; font-size: 10px; font-family: 'Liberation Sans', 'DejaVu Sans', sans-serif; text-anchor: middle" x="156.806866" y="233.194559" transform="rotate(-0 156.806866 233.194559)">M</text>
   </g>
   <g id="patch_16">
    <path d="M 405.097824 242.934411 
Q 398.174894 244.967252 391.251964 247.000094 
" style="fill: none; stroke: #8c8c8c; stroke-width: 0.4; stroke-linecap: round"/>
   </g>
   <g id="text_27">
    <text style="font-weight: 700; font-size: 10px; font-family: 'Liberation Sans', 'DejaVu Sans', sans-serif; text-anchor: middle" x="412.631229" y="243.308249" transform="rotate(-0 412.631229 243.308249)">N</text>
   </g>
   <g id="patch_17">
    <path d="M 284.463809 313.986486 
Q 291.468661 312.958037 298.473514 311.929589 
" style="fill: none; stroke: #8c8c8c; stroke-width: 0.4; stroke-linecap: round"/>
   </g>
   <g id="text_28">
    <text style="font-weight: 700; font-size: 10px; font-family: 'Liberation Sans', 'DejaVu Sans', sans-serif; text-anchor: middle" x="277.152539" y="317.64586" transform="rotate(-0 277.152539 317.64586)">P</text>
   </g>
   <g id="patch_18">
    <path d="M 310.824589 203.955056 
Q 318.713006 205.00794 326.601424 206.060825 
" style="fill: none; stroke: #8c8c8c; stroke-width: 0.4; stroke-linecap: round"/>
   </g>
   <g id="text_29">
    <text style="font-weight: 700; font-size: 10px; font-family: 'Liberation Sans', 'DejaVu Sans', sans-serif; text-anchor: middle" x="302.95268" y="205.490312" transform="rotate(-0 302.95268 205.490312)">Q</text>
   </g>
   <g id="patch_19">
    <path d="M 379.312224 67.825974 
Q 372.450351 66.818518 365.588478 65.811062 
" style="fill: none; stroke: #8c8c8c; stroke-width: 0.4; stroke-linecap: round"/>
   </g>
   <g id="text_30">
    <text style="font-weight: 700; font-size: 10px; font-family: 'Liberation Sans', 'DejaVu Sans', sans-serif; text-anchor: middle" x="386.906087" y="71.526838" transform="rotate(-0 386.906087 71.526838)">R</text>
   </g>
   <g id="patch_20">
    <path d="M 400.844993 281.064631 
Q 399.821387 276.931786 398.797781 272.798941 
" style="fill: none; stroke: #8c8c8c; stroke-width: 0.4; stroke-linecap: round"/>
   </g>
   <g id="text_31">
    <text style="font-weight: 700; font-size: 10px; font-family: 'Liberation Sans', 'DejaVu Sans', sans-serif; text-anchor: middle" x="402.977002" y="292.258628" transform="rotate(-0 402.977002 292.258628)">S</text>
   </g>
   <g id="patch_21">
    <path d="M 341.852569 232.052243 
Q 334.683809 233.631012 327.515049 235.209782 
" style="fill: none; stroke: #8c8c8c; stroke-width: 0.4; stroke-linecap: round"/>
   </g>
   <g id="text_32">
    <text style="font-weight: 700; font-size: 10px; font-family: 'Liberation Sans', 'DejaVu Sans', sans-serif; text-anchor: middle" x="348.862339" y="233.094425" transform="rotate(-0 348.862339 233.094425)">T</text>
   </g>
   <g id="patch_22">
    <path d="M 85.886286 302.152503 
Q 86.909892 298.019657 87.933499 293.886812 
" style="fill: none; stroke: #8c8c8c; stroke-width: 0.4; stroke-linecap: round"/>
   </g>
   <g id="text_33">
    <text style="font-weight: 700; font-size: 10px; font-family: 'Liberation Sans', 'DejaVu Sans', sans-serif; text-anchor: middle" x="83.754277" y="313.3465" transform="rotate(-0 83.754277 313.3465)">V</text>
   </g>
   <g id="patch_23">
    <path d="M 56.722843 137.78541 
Q 57.619277 141.075756 58.51571 144.366103 
" style="fill: none; stroke: #8c8c8c; stroke-width: 0.4; stroke-linecap: round"/>
   </g>
   <g id="text_34">
    <text style="font-weight: 700; font-size: 10px; font-family: 'Liberation Sans', 'DejaVu Sans', sans-serif; text-anchor: middle" x="54.382347" y="131.78059" transform="rotate(-0 54.382347 131.78059)">W</text>
   </g>
   <g id="patch_24">
    <path d="M 152.009251 170.334828 
Q 160.17353 171.424532 168.337809 172.514236 
" style="fill: none; stroke: #8c8c8c; stroke-width: 0.4; stroke-linecap: round"/>
   </g>
   <g id="text_35">
    <text style="font-weight: 700; font-size: 10px; font-family: 'Liberation Sans', 'DejaVu Sans', sans-serif; text-anchor: middle" x="144.687914" y="171.94357" transform="rotate(-0 144.687914 171.94357)">Y</text>
   </g>
   <g id="PathCollection_1">
    <defs>
     <path id="m6a6fcd8515" d="M 0 5.477226 
C 1.452577 5.477226 2.845856 4.900111 3.872983 3.872983 
C 4.900111 2.845856 5.477226 1.452577 5.477226 0 
C 5.477226 -1.452577 4.900111 -2.845856 3.872983 -3.872983 
C 2.845856 -4.900111 1.452577 -5.477226 0 -5.477226 
C -1.452577 -5.477226 -2.845856 -4.900111 -3.872983 -3.872983 
C -4.900111 -2.845856 -5.477226 -1.452577 -5.477226 0 
C -5.477226 1.452577 -4.900111 2.845856 -3.872983 3.872983 
C -2.845856 4.900111 -1.452577 5.477226 0 5.477226 
z
" style="stroke: #000000; stroke-width: 0.5"/>
    </defs>
    <g clip-path="url(#p7e34256a8b)">
     <use xlink:href="#m6a6fcd8515" x="227.470392" y="335.297861" style="fill: #332288; stroke: #000000; stroke-width: 0.5"/>
     <use xlink:href="#m6a6fcd8515" x="414.133267" y="367.92" style="fill: #332288; stroke: #000000; stroke-width: 0.5"/>
    </g>
   </g>
   <g id="PathCollection_2">
    <defs>
     <path id="mddc27c7e14" d="M 0 5.477226 
C 1.452577 5.477226 2.845856 4.900111 3.872983 3.872983 
C 4.900111 2.845856 5.477226 1.452577 5.477226 0 
C 5.477226 -1.452577 4.900111 -2.845856 3.872983 -3.872983 
C 2.845856 -4.900111 1.452577 -5.477226 0 -5.477226 
C -1.452577 -5.477226 -2.845856 -4.900111 -3.872983 -3.872983 
C -4.900111 -2.845856 -5.477226 -1.452577 -5.477226 0 
C -5.477226 1.452577 -4.900111 2.845856 -3.872983 3.872983 
C -2.845856 4.900111 -1.452577 5.477226 0 5.477226 
z
" style="stroke: #000000; stroke-width: 0.5"/>
    </defs>
    <g clip-path="url(#p7e34256a8b)">
     <use xlink:href="#mddc27c7e14" x="78.956571" y="271.150579" style="fill: #88ccee; stroke: #000000; stroke-width: 0.5"/>
     <use xlink:href="#mddc27c7e14" x="96.961536" y="269.754382" style="fill: #88ccee; stroke: #000000; stroke-width: 0.5"/>
     <use xlink:href="#mddc27c7e14" x="182.436927" y="234.029522" style="fill: #88ccee; stroke: #000000; stroke-width: 0.5"/>
     <use xlink:href="#mddc27c7e14" x="88.414288" y="291.945609" style="fill: #88ccee; stroke: #000000; stroke-width: 0.5"/>
    </g>
   </g>
   <g id="PathCollection_3">
    <defs>
     <path id="m4df229c2b8" d="M 0 5.477226 
C 1.452577 5.477226 2.845856 4.900111 3.872983 3.872983 
C 4.900111 2.845856 5.477226 1.452577 5.477226 0 
C 5.477226 -1.452577 4.900111 -2.845856 3.872983 -3.872983 
C 2.845856 -4.900111 1.452577 -5.477226 0 -5.477226 
C -1.452577 -5.477226 -2.845856 -4.900111 -3.872983 -3.872983 
C -4.900111 -2.845856 -5.477226 -1.452577 -5.477226 0 
C -5.477226 1.452577 -4.900111 2.845856 -3.872983 3.872983 
C -2.845856 4.900111 -1.452577 5.477226 0 5.477226 
z
" style="stroke: #000000; stroke-width: 0.5"/>
    </defs>
    <g clip-path="url(#p7e34256a8b)">
     <use xlink:href="#m4df229c2b8" x="72.056069" y="227.962458" style="fill: #44aa99; stroke: #000000; stroke-width: 0.5"/>
     <use xlink:href="#m4df229c2b8" x="59.042358" y="146.299155" style="fill: #44aa99; stroke: #000000; stroke-width: 0.5"/>
     <use xlink:href="#m4df229c2b8" x="170.317976" y="172.778534" style="fill: #44aa99; stroke: #000000; stroke-width: 0.5"/>
    </g>
   </g>
   <g id="PathCollection_4">
    <defs>
     <path id="m12d9149ae7" d="M 0 5.477226 
C 1.452577 5.477226 2.845856 4.900111 3.872983 3.872983 
C 4.900111 2.845856 5.477226 1.452577 5.477226 0 
C 5.477226 -1.452577 4.900111 -2.845856 3.872983 -3.872983 
C 2.845856 -4.900111 1.452577 -5.477226 0 -5.477226 
C -1.452577 -5.477226 -2.845856 -4.900111 -3.872983 -3.872983 
C -4.900111 -2.845856 -5.477226 -1.452577 -5.477226 0 
C -5.477226 1.452577 -4.900111 2.845856 -3.872983 3.872983 
C -2.845856 4.900111 -1.452577 5.477226 0 5.477226 
z
" style="stroke: #000000; stroke-width: 0.5"/>
    </defs>
    <g clip-path="url(#p7e34256a8b)">
     <use xlink:href="#m12d9149ae7" x="398.316991" y="270.857737" style="fill: #117733; stroke: #000000; stroke-width: 0.5"/>
     <use xlink:href="#m12d9149ae7" x="325.562283" y="235.639838" style="fill: #117733; stroke: #000000; stroke-width: 0.5"/>
    </g>
   </g>
   <g id="PathCollection_5">
    <defs>
     <path id="mbc57b1befb" d="M 0 5.477226 
C 1.452577 5.477226 2.845856 4.900111 3.872983 3.872983 
C 4.900111 2.845856 5.477226 1.452577 5.477226 0 
C 5.477226 -1.452577 4.900111 -2.845856 3.872983 -3.872983 
C 2.845856 -4.900111 1.452577 -5.477226 0 -5.477226 
C -1.452577 -5.477226 -2.845856 -4.900111 -3.872983 -3.872983 
C -4.900111 -2.845856 -5.477226 -1.452577 -5.477226 0 
C -5.477226 1.452577 -4.900111 2.845856 -3.872983 3.872983 
C -2.845856 4.900111 -1.452577 5.477226 0 5.477226 
z
" style="stroke: #000000; stroke-width: 0.5"/>
    </defs>
    <g clip-path="url(#p7e34256a8b)">
     <use xlink:href="#mbc57b1befb" x="389.331173" y="247.564112" style="fill: #999933; stroke: #000000; stroke-width: 0.5"/>
     <use xlink:href="#mbc57b1befb" x="328.582741" y="206.325275" style="fill: #999933; stroke: #000000; stroke-width: 0.5"/>
    </g>
   </g>
   <g id="PathCollection_6">
    <defs>
     <path id="m3c7ae3876a" d="M 0 5.477226 
C 1.452577 5.477226 2.845856 4.900111 3.872983 3.872983 
C 4.900111 2.845856 5.477226 1.452577 5.477226 0 
C 5.477226 -1.452577 4.900111 -2.845856 3.872983 -3.872983 
C 2.845856 -4.900111 1.452577 -5.477226 0 -5.477226 
C -1.452577 -5.477226 -2.845856 -4.900111 -3.872983 -3.872983 
C -4.900111 -2.845856 -5.477226 -1.452577 -5.477226 0 
C -5.477226 1.452577 -4.900111 2.845856 -3.872983 3.872983 
C -2.845856 4.900111 -1.452577 5.477226 0 5.477226 
z
" style="stroke: #000000; stroke-width: 0.5"/>
    </defs>
    <g clip-path="url(#p7e34256a8b)">
     <use xlink:href="#m3c7ae3876a" x="388.533977" y="271.178845" style="fill: #cc6677; stroke: #000000; stroke-width: 0.5"/>
     <use xlink:href="#m3c7ae3876a" x="352.233116" y="224.556181" style="fill: #cc6677; stroke: #000000; stroke-width: 0.5"/>
    </g>
   </g>
   <g id="PathCollection_7">
    <defs>
     <path id="m4cdc94a491" d="M 0 5.477226 
C 1.452577 5.477226 2.845856 4.900111 3.872983 3.872983 
C 4.900111 2.845856 5.477226 1.452577 5.477226 0 
C 5.477226 -1.452577 4.900111 -2.845856 3.872983 -3.872983 
C 2.845856 -4.900111 1.452577 -5.477226 0 -5.477226 
C -1.452577 -5.477226 -2.845856 -4.900111 -3.872983 -3.872983 
C -4.900111 -2.845856 -5.477226 -1.452577 -5.477226 0 
C -5.477226 1.452577 -4.900111 2.845856 -3.872983 3.872983 
C -2.845856 4.900111 -1.452577 5.477226 0 5.477226 
z
" style="stroke: #000000; stroke-width: 0.5"/>
    </defs>
    <g clip-path="url(#p7e34256a8b)">
     <use xlink:href="#m4cdc94a491" x="355.415364" y="111.69234" style="fill: #882255; stroke: #000000; stroke-width: 0.5"/>
     <use xlink:href="#m4cdc94a491" x="363.606031" y="65.52" style="fill: #882255; stroke: #000000; stroke-width: 0.5"/>
    </g>
   </g>
   <g id="PathCollection_8">
    <defs>
     <path id="m7c2cc66538" d="M 0 5.477226 
C 1.452577 5.477226 2.845856 4.900111 3.872983 3.872983 
C 4.900111 2.845856 5.477226 1.452577 5.477226 0 
C 5.477226 -1.452577 4.900111 -2.845856 3.872983 -3.872983 
C 2.845856 -4.900111 1.452577 -5.477226 0 -5.477226 
C -1.452577 -5.477226 -2.845856 -4.900111 -3.872983 -3.872983 
C -4.900111 -2.845856 -5.477226 -1.452577 -5.477226 0 
C -5.477226 1.452577 -4.900111 2.845856 -3.872983 3.872983 
C -2.845856 4.900111 -1.452577 5.477226 0 5.477226 
z
" style="stroke: #000000; stroke-width: 0.5"/>
    </defs>
    <g clip-path="url(#p7e34256a8b)">
     <use xlink:href="#m7c2cc66538" x="296.283393" y="169.56242" style="fill: #aa4499; stroke: #000000; stroke-width: 0.5"/>
    </g>
   </g>
   <g id="PathCollection_9">
    <defs>
     <path id="m38e90e287e" d="M 0 5.477226 
C 1.452577 5.477226 2.845856 4.900111 3.872983 3.872983 
C 4.900111 2.845856 5.477226 1.452577 5.477226 0 
C 5.477226 -1.452577 4.900111 -2.845856 3.872983 -3.872983 
C 2.845856 -4.900111 1.452577 -5.477226 0 -5.477226 
C -1.452577 -5.477226 -2.845856 -4.900111 -3.872983 -3.872983 
C -4.900111 -2.845856 -5.477226 -1.452577 -5.477226 0 
C -5.477226 1.452577 -4.900111 2.845856 -3.872983 3.872983 
C -2.845856 4.900111 -1.452577 5.477226 0 5.477226 
z
" style="stroke: #000000; stroke-width: 0.5"/>
    </defs>
    <g clip-path="url(#p7e34256a8b)">
     <use xlink:href="#m38e90e287e" x="300.452594" y="311.639022" style="fill: #ddcc77; stroke: #000000; stroke-width: 0.5"/>
    </g>
   </g>
   <g id="PathCollection_10">
    <defs>
     <path id="meae9e0cd69" d="M 0 5.477226 
C 1.452577 5.477226 2.845856 4.900111 3.872983 3.872983 
C 4.900111 2.845856 5.477226 1.452577 5.477226 0 
C 5.477226 -1.452577 4.900111 -2.845856 3.872983 -3.872983 
C 2.845856 -4.900111 1.452577 -5.477226 0 -5.477226 
C -1.452577 -5.477226 -2.845856 -4.900111 -3.872983 -3.872983 
C -4.900111 -2.845856 -5.477226 -1.452577 -5.477226 0 
C -5.477226 1.452577 -4.900111 2.845856 -3.872983 3.872983 
C -2.845856 4.900111 -1.452577 5.477226 0 5.477226 
z
" style="stroke: #000000; stroke-width: 0.5"/>
    </defs>
    <g clip-path="url(#p7e34256a8b)">
     <use xlink:href="#meae9e0cd69" x="262.304897" y="295.310677" style="fill: #ee8866; stroke: #000000; stroke-width: 0.5"/>
    </g>
   </g>
   <g id="legend_1">
    <g id="PathCollection_11">
     <defs>
      <path id="mb4a9cbee4e" d="M 0 3.834058 
C 1.016804 3.834058 1.992099 3.430077 2.711088 2.711088 
C 3.430077 1.992099 3.834058 1.016804 3.834058 0 
C 3.834058 -1.016804 3.430077 -1.992099 2.711088 -2.711088 
C 1.992099 -3.430077 1.016804 -3.834058 0 -3.834058 
C -1.016804 -3.834058 -1.992099 -3.430077 -2.711088 -2.711088 
C -3.430077 -1.992099 -3.834058 -1.016804 -3.834058 0 
C -3.834058 1.016804 -3.430077 1.992099 -2.711088 2.711088 
C -1.992099 3.430077 -1.016804 3.834058 0 3.834058 
z
" style="stroke: #000000; stroke-width: 0.5"/>
     </defs>
     <g>
      <use xlink:href="#mb4a9cbee4e" x="113.674688" y="437.1807" style="fill: #332288; stroke: #000000; stroke-width: 0.5"/>
     </g>
    </g>
    <g id="text_36">
     <text style="font-size: 8px; font-family: 'Liberation Sans', 'DejaVu Sans', sans-serif; text-anchor: start" x="120.074688" y="439.2807" transform="rotate(-0 120.074688 439.2807)">Small nonpolar</text>
    </g>
    <g id="PathCollection_12">
     <defs>
      <path id="m799344e744" d="M 0 3.834058 
C 1.016804 3.834058 1.992099 3.430077 2.711088 2.711088 
C 3.430077 1.992099 3.834058 1.016804 3.834058 0 
C 3.834058 -1.016804 3.430077 -1.992099 2.711088 -2.711088 
C 1.992099 -3.430077 1.016804 -3.834058 0 -3.834058 
C -1.016804 -3.834058 -1.992099 -3.430077 -2.711088 -2.711088 
C -3.430077 -1.992099 -3.834058 -1.016804 -3.834058 0 
C -3.834058 1.016804 -3.430077 1.992099 -2.711088 2.711088 
C -1.992099 3.430077 -1.016804 3.834058 0 3.834058 
z
" style="stroke: #000000; stroke-width: 0.5"/>
     </defs>
     <g>
      <use xlink:href="#m799344e744" x="113.674688" y="448.6382" style="fill: #88ccee; stroke: #000000; stroke-width: 0.5"/>
     </g>
    </g>
    <g id="text_37">
     <text style="font-size: 8px; font-family: 'Liberation Sans', 'DejaVu Sans', sans-serif; text-anchor: start" x="120.074688" y="450.7382" transform="rotate(-0 120.074688 450.7382)">Aliphatic</text>
    </g>
    <g id="PathCollection_13">
     <defs>
      <path id="m4cb12fc6a4" d="M 0 3.834058 
C 1.016804 3.834058 1.992099 3.430077 2.711088 2.711088 
C 3.430077 1.992099 3.834058 1.016804 3.834058 0 
C 3.834058 -1.016804 3.430077 -1.992099 2.711088 -2.711088 
C 1.992099 -3.430077 1.016804 -3.834058 0 -3.834058 
C -1.016804 -3.834058 -1.992099 -3.430077 -2.711088 -2.711088 
C -3.430077 -1.992099 -3.834058 -1.016804 -3.834058 0 
C -3.834058 1.016804 -3.430077 1.992099 -2.711088 2.711088 
C -1.992099 3.430077 -1.016804 3.834058 0 3.834058 
z
" style="stroke: #000000; stroke-width: 0.5"/>
     </defs>
     <g>
      <use xlink:href="#m4cb12fc6a4" x="185.434688" y="437.1807" style="fill: #44aa99; stroke: #000000; stroke-width: 0.5"/>
     </g>
    </g>
    <g id="text_38">
     <text style="font-size: 8px; font-family: 'Liberation Sans', 'DejaVu Sans', sans-serif; text-anchor: start" x="191.834688" y="439.2807" transform="rotate(-0 191.834688 439.2807)">Aromatic</text>
    </g>
    <g id="PathCollection_14">
     <defs>
      <path id="m3dd23d8501" d="M 0 3.834058 
C 1.016804 3.834058 1.992099 3.430077 2.711088 2.711088 
C 3.430077 1.992099 3.834058 1.016804 3.834058 0 
C 3.834058 -1.016804 3.430077 -1.992099 2.711088 -2.711088 
C 1.992099 -3.430077 1.016804 -3.834058 0 -3.834058 
C -1.016804 -3.834058 -1.992099 -3.430077 -2.711088 -2.711088 
C -3.430077 -1.992099 -3.834058 -1.016804 -3.834058 0 
C -3.834058 1.016804 -3.430077 1.992099 -2.711088 2.711088 
C -1.992099 3.430077 -1.016804 3.834058 0 3.834058 
z
" style="stroke: #000000; stroke-width: 0.5"/>
     </defs>
     <g>
      <use xlink:href="#m3dd23d8501" x="185.434688" y="448.6382" style="fill: #117733; stroke: #000000; stroke-width: 0.5"/>
     </g>
    </g>
    <g id="text_39">
     <text style="font-size: 8px; font-family: 'Liberation Sans', 'DejaVu Sans', sans-serif; text-anchor: start" x="191.834688" y="450.7382" transform="rotate(-0 191.834688 450.7382)">Hydroxylic</text>
    </g>
    <g id="PathCollection_15">
     <defs>
      <path id="m5fcd216195" d="M 0 3.834058 
C 1.016804 3.834058 1.992099 3.430077 2.711088 2.711088 
C 3.430077 1.992099 3.834058 1.016804 3.834058 0 
C 3.834058 -1.016804 3.430077 -1.992099 2.711088 -2.711088 
C 1.992099 -3.430077 1.016804 -3.834058 0 -3.834058 
C -1.016804 -3.834058 -1.992099 -3.430077 -2.711088 -2.711088 
C -3.430077 -1.992099 -3.834058 -1.016804 -3.834058 0 
C -3.834058 1.016804 -3.430077 1.992099 -2.711088 2.711088 
C -1.992099 3.430077 -1.016804 3.834058 0 3.834058 
z
" style="stroke: #000000; stroke-width: 0.5"/>
     </defs>
     <g>
      <use xlink:href="#m5fcd216195" x="240.728438" y="437.1807" style="fill: #999933; stroke: #000000; stroke-width: 0.5"/>
     </g>
    </g>
    <g id="text_40">
     <text style="font-size: 8px; font-family: 'Liberation Sans', 'DejaVu Sans', sans-serif; text-anchor: start" x="247.128438" y="439.2807" transform="rotate(-0 247.128438 439.2807)">Amidic</text>
    </g>
    <g id="PathCollection_16">
     <defs>
      <path id="med39c745a6" d="M 0 3.834058 
C 1.016804 3.834058 1.992099 3.430077 2.711088 2.711088 
C 3.430077 1.992099 3.834058 1.016804 3.834058 0 
C 3.834058 -1.016804 3.430077 -1.992099 2.711088 -2.711088 
C 1.992099 -3.430077 1.016804 -3.834058 0 -3.834058 
C -1.016804 -3.834058 -1.992099 -3.430077 -2.711088 -2.711088 
C -3.430077 -1.992099 -3.834058 -1.016804 -3.834058 0 
C -3.834058 1.016804 -3.430077 1.992099 -2.711088 2.711088 
C -1.992099 3.430077 -1.016804 3.834058 0 3.834058 
z
" style="stroke: #000000; stroke-width: 0.5"/>
     </defs>
     <g>
      <use xlink:href="#med39c745a6" x="240.728438" y="448.6382" style="fill: #cc6677; stroke: #000000; stroke-width: 0.5"/>
     </g>
    </g>
    <g id="text_41">
     <text style="font-size: 8px; font-family: 'Liberation Sans', 'DejaVu Sans', sans-serif; text-anchor: start" x="247.128438" y="450.7382" transform="rotate(-0 247.128438 450.7382)">Acidic</text>
    </g>
    <g id="PathCollection_17">
     <defs>
      <path id="mb24094d5c2" d="M 0 3.834058 
C 1.016804 3.834058 1.992099 3.430077 2.711088 2.711088 
C 3.430077 1.992099 3.834058 1.016804 3.834058 0 
C 3.834058 -1.016804 3.430077 -1.992099 2.711088 -2.711088 
C 1.992099 -3.430077 1.016804 -3.834058 0 -3.834058 
C -1.016804 -3.834058 -1.992099 -3.430077 -2.711088 -2.711088 
C -3.430077 -1.992099 -3.834058 -1.016804 -3.834058 0 
C -3.834058 1.016804 -3.430077 1.992099 -2.711088 2.711088 
C -1.992099 3.430077 -1.016804 3.834058 0 3.834058 
z
" style="stroke: #000000; stroke-width: 0.5"/>
     </defs>
     <g>
      <use xlink:href="#mb24094d5c2" x="283.132188" y="437.1807" style="fill: #882255; stroke: #000000; stroke-width: 0.5"/>
     </g>
    </g>
    <g id="text_42">
     <text style="font-size: 8px; font-family: 'Liberation Sans', 'DejaVu Sans', sans-serif; text-anchor: start" x="289.532188" y="439.2807" transform="rotate(-0 289.532188 439.2807)">Basic</text>
    </g>
    <g id="PathCollection_18">
     <defs>
      <path id="m0366d67d8b" d="M 0 3.834058 
C 1.016804 3.834058 1.992099 3.430077 2.711088 2.711088 
C 3.430077 1.992099 3.834058 1.016804 3.834058 0 
C 3.834058 -1.016804 3.430077 -1.992099 2.711088 -2.711088 
C 1.992099 -3.430077 1.016804 -3.834058 0 -3.834058 
C -1.016804 -3.834058 -1.992099 -3.430077 -2.711088 -2.711088 
C -3.430077 -1.992099 -3.834058 -1.016804 -3.834058 0 
C -3.834058 1.016804 -3.430077 1.992099 -2.711088 2.711088 
C -1.992099 3.430077 -1.016804 3.834058 0 3.834058 
z
" style="stroke: #000000; stroke-width: 0.5"/>
     </defs>
     <g>
      <use xlink:href="#m0366d67d8b" x="283.132188" y="448.6382" style="fill: #aa4499; stroke: #000000; stroke-width: 0.5"/>
     </g>
    </g>
    <g id="text_43">
     <text style="font-size: 8px; font-family: 'Liberation Sans', 'DejaVu Sans', sans-serif; text-anchor: start" x="289.532188" y="450.7382" transform="rotate(-0 289.532188 450.7382)">Imidazole</text>
    </g>
    <g id="PathCollection_19">
     <defs>
      <path id="m15d571ddbe" d="M 0 3.834058 
C 1.016804 3.834058 1.992099 3.430077 2.711088 2.711088 
C 3.430077 1.992099 3.834058 1.016804 3.834058 0 
C 3.834058 -1.016804 3.430077 -1.992099 2.711088 -2.711088 
C 1.992099 -3.430077 1.016804 -3.834058 0 -3.834058 
C -1.016804 -3.834058 -1.992099 -3.430077 -2.711088 -2.711088 
C -3.430077 -1.992099 -3.834058 -1.016804 -3.834058 0 
C -3.834058 1.016804 -3.430077 1.992099 -2.711088 2.711088 
C -1.992099 3.430077 -1.016804 3.834058 0 3.834058 
z
" style="stroke: #000000; stroke-width: 0.5"/>
     </defs>
     <g>
      <use xlink:href="#m15d571ddbe" x="335.768438" y="437.1807" style="fill: #ddcc77; stroke: #000000; stroke-width: 0.5"/>
     </g>
    </g>
    <g id="text_44">
     <text style="font-size: 8px; font-family: 'Liberation Sans', 'DejaVu Sans', sans-serif; text-anchor: start" x="342.168437" y="439.2807" transform="rotate(-0 342.168437 439.2807)">Cyclic</text>
    </g>
    <g id="PathCollection_20">
     <defs>
      <path id="m9329a9c32c" d="M 0 3.834058 
C 1.016804 3.834058 1.992099 3.430077 2.711088 2.711088 
C 3.430077 1.992099 3.834058 1.016804 3.834058 0 
C 3.834058 -1.016804 3.430077 -1.992099 2.711088 -2.711088 
C 1.992099 -3.430077 1.016804 -3.834058 0 -3.834058 
C -1.016804 -3.834058 -1.992099 -3.430077 -2.711088 -2.711088 
C -3.430077 -1.992099 -3.834058 -1.016804 -3.834058 0 
C -3.834058 1.016804 -3.430077 1.992099 -2.711088 2.711088 
C -1.992099 3.430077 -1.016804 3.834058 0 3.834058 
z
" style="stroke: #000000; stroke-width: 0.5"/>
     </defs>
     <g>
      <use xlink:href="#m9329a9c32c" x="335.768438" y="448.6382" style="fill: #ee8866; stroke: #000000; stroke-width: 0.5"/>
     </g>
    </g>
    <g id="text_45">
     <text style="font-size: 8px; font-family: 'Liberation Sans', 'DejaVu Sans', sans-serif; text-anchor: start" x="342.168437" y="450.7382" transform="rotate(-0 342.168437 450.7382)">Sulfur</text>
    </g>
   </g>
  </g>
  <g id="text_46">
   <text style="font-size: 12px; font-family: 'Liberation Sans', 'DejaVu Sans', sans-serif; text-anchor: middle" x="230.287813" y="15.89625" transform="rotate(-0 230.287813 15.89625)">Amino-acid property space (20 AAs, 8 PCs from 22 descriptors)</text>
  </g>
 </g>
 <defs>
  <clipPath id="p7e34256a8b">
   <rect x="41.287813" y="50.4" width="390.6" height="332.64"/>
  </clipPath>
 </defs>
</svg>
