<?xml version="1.0" encoding="utf-8" standalone="no"?>
<!DOCTYPE svg PUBLIC "-//W3C//DTD SVG 1.1//EN"
  "http://www.w3.org/Graphics/SVG/1.1/DTD/svg11.dtd">
<svg xmlns:xlink="http://www.w3.org/1999/xlink" width="457.744687pt" height="356.101875pt" viewBox="0 0 457.744687 356.101875" xmlns="http://www.w3.org/2000/svg" version="1.1">
 <metadata>
  <rdf:RDF xmlns:dc="http://purl.org/dc/elements/1.1/" xmlns:cc="http://creativecommons.org/ns#" xmlns:rdf="http://www.w3.org/1999/02/22-rdf-syntax-ns#">
   <cc:Work>
    <dc:type rdf:resource="http://purl.org/dc/dcmitype/StillImage"/>
    <dc:date>2026-04-23T13:12:55.477497</dc:date>
    <dc:format>image/svg+xml</dc:format>
    <dc:creator>
     <cc:Agent>
      <dc:title>Matplotlib v3.10.7, https://matplotlib.org/</dc:title>
     </cc:Agent>
    </dc:creator>
   </cc:Work>
  </rdf:RDF>
 </metadata>
 <defs>
  <style type="text/css">*{stroke-linejoin: round; stroke-linecap: butt}</style>
 </defs>
 <g id="figure_1">
  <g id="patch_1">
   <path d="M 0 356.101875 
L 457.744687 356.101875 
L 457.744687 0 
L 0 0 
z
" style="fill: #ffffff"/>
  </g>
  <g id="axes_1">
   <g id="patch_2">
    <path d="M 59.944688 316.8 
L 450.544688 316.8 
L 450.544688 39.6 
L 59.944688 39.6 
z
" style="fill: #ffffff"/>
   </g>
   <g id="patch_3">
    <path d="M 253.790619 316.8 
L 255.282282 316.8 
L 255.282282 316.791689 
L 253.790619 316.791689 
z
" clip-path="url(#p8350985e41)" style="fill: #bbbbbb; stroke: #000000; stroke-width: 0.2; stroke-linejoin: miter"/>
   </g>
   <g id="patch_4">
    <path d="M 255.282282 316.8 
L 256.773945 316.8 
L 256.773945 316.8 
L 255.282282 316.8 
z
" clip-path="url(#p8350985e41)" style="fill: #bbbbbb; stroke: #000000; stroke-width: 0.2; stroke-linejoin: miter"/>
   </g>
   <g id="patch_5">
    <path d="M 256.773945 316.8 
L 258.265607 316.8 
L 258.265607 316.791689 
L 256.773945 316.791689 
z
" clip-path="url(#p8350985e41)" style="fill: #bbbbbb; stroke: #000000; stroke-width: 0.2; stroke-linejoin: miter"/>
   </g>
   <g id="patch_6">
    <path d="M 258.265607 316.8 
L 259.75727 316.8 
L 259.75727 316.783379 
L 258.265607 316.783379 
z
" clip-path="url(#p8350985e41)" style="fill: #bbbbbb; stroke: #000000; stroke-width: 0.2; stroke-linejoin: miter"/>
   </g>
   <g id="patch_7">
    <path d="M 259.75727 316.8 
L 261.248933 316.8 
L 261.248933 316.775068 
L 259.75727 316.775068 
z
" clip-path="url(#p8350985e41)" style="fill: #bbbbbb; stroke: #000000; stroke-width: 0.2; stroke-linejoin: miter"/>
   </g>
   <g id="patch_8">
    <path d="M 261.248933 316.8 
L 262.740595 316.8 
L 262.740595 316.766758 
L 261.248933 316.766758 
z
" clip-path="url(#p8350985e41)" style="fill: #bbbbbb; stroke: #000000; stroke-width: 0.2; stroke-linejoin: miter"/>
   </g>
   <g id="patch_9">
    <path d="M 262.740595 316.8 
L 264.232258 316.8 
L 264.232258 316.758447 
L 262.740595 316.758447 
z
" clip-path="url(#p8350985e41)" style="fill: #bbbbbb; stroke: #000000; stroke-width: 0.2; stroke-linejoin: miter"/>
   </g>
   <g id="patch_10">
    <path d="M 264.232258 316.8 
L 265.723921 316.8 
L 265.723921 316.758447 
L 264.232258 316.758447 
z
" clip-path="url(#p8350985e41)" style="fill: #bbbbbb; stroke: #000000; stroke-width: 0.2; stroke-linejoin: miter"/>
   </g>
   <g id="patch_11">
    <path d="M 265.723921 316.8 
L 267.215584 316.8 
L 267.215584 316.783379 
L 265.723921 316.783379 
z
" clip-path="url(#p8350985e41)" style="fill: #bbbbbb; stroke: #000000; stroke-width: 0.2; stroke-linejoin: miter"/>
   </g>
   <g id="patch_12">
    <path d="M 267.215584 316.8 
L 268.707246 316.8 
L 268.707246 316.733516 
L 267.215584 316.733516 
z
" clip-path="url(#p8350985e41)" style="fill: #bbbbbb; stroke: #000000; stroke-width: 0.2; stroke-linejoin: miter"/>
   </g>
   <g id="patch_13">
    <path d="M 268.707246 316.8 
L 270.198909 316.8 
L 270.198909 316.691963 
L 268.707246 316.691963 
z
" clip-path="url(#p8350985e41)" style="fill: #bbbbbb; stroke: #000000; stroke-width: 0.2; stroke-linejoin: miter"/>
   </g>
   <g id="patch_14">
    <path d="M 270.198909 316.8 
L 271.690572 316.8 
L 271.690572 316.733516 
L 270.198909 316.733516 
z
" clip-path="url(#p8350985e41)" style="fill: #bbbbbb; stroke: #000000; stroke-width: 0.2; stroke-linejoin: miter"/>
   </g>
   <g id="patch_15">
    <path d="M 271.690572 316.8 
L 273.182234 316.8 
L 273.182234 316.708584 
L 271.690572 316.708584 
z
" clip-path="url(#p8350985e41)" style="fill: #bbbbbb; stroke: #000000; stroke-width: 0.2; stroke-linejoin: miter"/>
   </g>
   <g id="patch_16">
    <path d="M 273.182234 316.8 
L 274.673897 316.8 
L 274.673897 316.625479 
L 273.182234 316.625479 
z
" clip-path="url(#p8350985e41)" style="fill: #bbbbbb; stroke: #000000; stroke-width: 0.2; stroke-linejoin: miter"/>
   </g>
   <g id="patch_17">
    <path d="M 274.673897 316.8 
L 276.16556 316.8 
L 276.16556 316.558995 
L 274.673897 316.558995 
z
" clip-path="url(#p8350985e41)" style="fill: #bbbbbb; stroke: #000000; stroke-width: 0.2; stroke-linejoin: miter"/>
   </g>
   <g id="patch_18">
    <path d="M 276.16556 316.8 
L 277.657222 316.8 
L 277.657222 316.600548 
L 276.16556 316.600548 
z
" clip-path="url(#p8350985e41)" style="fill: #bbbbbb; stroke: #000000; stroke-width: 0.2; stroke-linejoin: miter"/>
   </g>
   <g id="patch_19">
    <path d="M 277.657222 316.8 
L 279.148885 316.8 
L 279.148885 316.409406 
L 277.657222 316.409406 
z
" clip-path="url(#p8350985e41)" style="fill: #bbbbbb; stroke: #000000; stroke-width: 0.2; stroke-linejoin: miter"/>
   </g>
   <g id="patch_20">
    <path d="M 279.148885 316.8 
L 280.640548 316.8 
L 280.640548 316.376164 
L 279.148885 316.376164 
z
" clip-path="url(#p8350985e41)" style="fill: #bbbbbb; stroke: #000000; stroke-width: 0.2; stroke-linejoin: miter"/>
   </g>
   <g id="patch_21">
    <path d="M 280.640548 316.8 
L 282.13221 316.8 
L 282.13221 316.31799 
L 280.640548 316.31799 
z
" clip-path="url(#p8350985e41)" style="fill: #bbbbbb; stroke: #000000; stroke-width: 0.2; stroke-linejoin: miter"/>
   </g>
   <g id="patch_22">
    <path d="M 282.13221 316.8 
L 283.623873 316.8 
L 283.623873 316.052054 
L 282.13221 316.052054 
z
" clip-path="url(#p8350985e41)" style="fill: #bbbbbb; stroke: #000000; stroke-width: 0.2; stroke-linejoin: miter"/>
   </g>
   <g id="patch_23">
    <path d="M 283.623873 316.8 
L 285.115536 316.8 
L 285.115536 316.093607 
L 283.623873 316.093607 
z
" clip-path="url(#p8350985e41)" style="fill: #bbbbbb; stroke: #000000; stroke-width: 0.2; stroke-linejoin: miter"/>
   </g>
   <g id="patch_24">
    <path d="M 285.115536 316.8 
L 286.607198 316.8 
L 286.607198 315.952328 
L 285.115536 315.952328 
z
" clip-path="url(#p8350985e41)" style="fill: #bbbbbb; stroke: #000000; stroke-width: 0.2; stroke-linejoin: miter"/>
   </g>
   <g id="patch_25">
    <path d="M 286.607198 316.8 
L 288.098861 316.8 
L 288.098861 315.711323 
L 286.607198 315.711323 
z
" clip-path="url(#p8350985e41)" style="fill: #bbbbbb; stroke: #000000; stroke-width: 0.2; stroke-linejoin: miter"/>
   </g>
   <g id="patch_26">
    <path d="M 288.098861 316.8 
L 289.590524 316.8 
L 289.590524 315.096345 
L 288.098861 315.096345 
z
" clip-path="url(#p8350985e41)" style="fill: #bbbbbb; stroke: #000000; stroke-width: 0.2; stroke-linejoin: miter"/>
   </g>
   <g id="patch_27">
    <path d="M 289.590524 316.8 
L 291.082187 316.8 
L 291.082187 314.913514 
L 289.590524 314.913514 
z
" clip-path="url(#p8350985e41)" style="fill: #bbbbbb; stroke: #000000; stroke-width: 0.2; stroke-linejoin: miter"/>
   </g>
   <g id="patch_28">
    <path d="M 291.082187 316.8 
L 292.573849 316.8 
L 292.573849 314.423194 
L 291.082187 314.423194 
z
" clip-path="url(#p8350985e41)" style="fill: #bbbbbb; stroke: #000000; stroke-width: 0.2; stroke-linejoin: miter"/>
   </g>
   <g id="patch_29">
    <path d="M 292.573849 316.8 
L 294.065512 316.8 
L 294.065512 313.824837 
L 292.573849 313.824837 
z
" clip-path="url(#p8350985e41)" style="fill: #bbbbbb; stroke: #000000; stroke-width: 0.2; stroke-linejoin: miter"/>
   </g>
   <g id="patch_30">
    <path d="M 294.065512 316.8 
L 295.557175 316.8 
L 295.557175 313.093512 
L 294.065512 313.093512 
z
" clip-path="url(#p8350985e41)" style="fill: #bbbbbb; stroke: #000000; stroke-width: 0.2; stroke-linejoin: miter"/>
   </g>
   <g id="patch_31">
    <path d="M 295.557175 316.8 
L 297.048837 316.8 
L 297.048837 312.137803 
L 295.557175 312.137803 
z
" clip-path="url(#p8350985e41)" style="fill: #bbbbbb; stroke: #000000; stroke-width: 0.2; stroke-linejoin: miter"/>
   </g>
   <g id="patch_32">
    <path d="M 297.048837 316.8 
L 298.5405 316.8 
L 298.5405 311.414789 
L 297.048837 311.414789 
z
" clip-path="url(#p8350985e41)" style="fill: #bbbbbb; stroke: #000000; stroke-width: 0.2; stroke-linejoin: miter"/>
   </g>
   <g id="patch_33">
    <path d="M 298.5405 316.8 
L 300.032163 316.8 
L 300.032163 309.96876 
L 298.5405 309.96876 
z
" clip-path="url(#p8350985e41)" style="fill: #bbbbbb; stroke: #000000; stroke-width: 0.2; stroke-linejoin: miter"/>
   </g>
   <g id="patch_34">
    <path d="M 300.032163 316.8 
L 301.523825 316.8 
L 301.523825 308.846841 
L 300.032163 308.846841 
z
" clip-path="url(#p8350985e41)" style="fill: #bbbbbb; stroke: #000000; stroke-width: 0.2; stroke-linejoin: miter"/>
   </g>
   <g id="patch_35">
    <path d="M 301.523825 316.8 
L 303.015488 316.8 
L 303.015488 306.594693 
L 301.523825 306.594693 
z
" clip-path="url(#p8350985e41)" style="fill: #bbbbbb; stroke: #000000; stroke-width: 0.2; stroke-linejoin: miter"/>
   </g>
   <g id="patch_36">
    <path d="M 303.015488 316.8 
L 304.507151 316.8 
L 304.507151 305.206837 
L 303.015488 305.206837 
z
" clip-path="url(#p8350985e41)" style="fill: #bbbbbb; stroke: #000000; stroke-width: 0.2; stroke-linejoin: miter"/>
   </g>
   <g id="patch_37">
    <path d="M 304.507151 316.8 
L 305.998813 316.8 
L 305.998813 303.287109 
L 304.507151 303.287109 
z
" clip-path="url(#p8350985e41)" style="fill: #bbbbbb; stroke: #000000; stroke-width: 0.2; stroke-linejoin: miter"/>
   </g>
   <g id="patch_38">
    <path d="M 305.998813 316.8 
L 307.490476 316.8 
L 307.490476 301.34245 
L 305.998813 301.34245 
z
" clip-path="url(#p8350985e41)" style="fill: #bbbbbb; stroke: #000000; stroke-width: 0.2; stroke-linejoin: miter"/>
   </g>
   <g id="patch_39">
    <path d="M 307.490476 316.8 
L 308.982139 316.8 
L 308.982139 297.44482 
L 307.490476 297.44482 
z
" clip-path="url(#p8350985e41)" style="fill: #bbbbbb; stroke: #000000; stroke-width: 0.2; stroke-linejoin: miter"/>
   </g>
   <g id="patch_40">
    <path d="M 308.982139 316.8 
L 310.473802 316.8 
L 310.473802 294.253584 
L 308.982139 294.253584 
z
" clip-path="url(#p8350985e41)" style="fill: #bbbbbb; stroke: #000000; stroke-width: 0.2; stroke-linejoin: miter"/>
   </g>
   <g id="patch_41">
    <path d="M 310.473802 316.8 
L 311.965464 316.8 
L 311.965464 290.547096 
L 310.473802 290.547096 
z
" clip-path="url(#p8350985e41)" style="fill: #bbbbbb; stroke: #000000; stroke-width: 0.2; stroke-linejoin: miter"/>
   </g>
   <g id="patch_42">
    <path d="M 311.965464 316.8 
L 313.457127 316.8 
L 313.457127 286.017868 
L 311.965464 286.017868 
z
" clip-path="url(#p8350985e41)" style="fill: #bbbbbb; stroke: #000000; stroke-width: 0.2; stroke-linejoin: miter"/>
   </g>
   <g id="patch_43">
    <path d="M 313.457127 316.8 
L 314.94879 316.8 
L 314.94879 281.912475 
L 313.457127 281.912475 
z
" clip-path="url(#p8350985e41)" style="fill: #bbbbbb; stroke: #000000; stroke-width: 0.2; stroke-linejoin: miter"/>
   </g>
   <g id="patch_44">
    <path d="M 314.94879 316.8 
L 316.440452 316.8 
L 316.440452 276.361054 
L 314.94879 276.361054 
z
" clip-path="url(#p8350985e41)" style="fill: #bbbbbb; stroke: #000000; stroke-width: 0.2; stroke-linejoin: miter"/>
   </g>
   <g id="patch_45">
    <path d="M 316.440452 316.8 
L 317.932115 316.8 
L 317.932115 270.959222 
L 316.440452 270.959222 
z
" clip-path="url(#p8350985e41)" style="fill: #bbbbbb; stroke: #000000; stroke-width: 0.2; stroke-linejoin: miter"/>
   </g>
   <g id="patch_46">
    <path d="M 317.932115 316.8 
L 319.423778 316.8 
L 319.423778 264.510265 
L 317.932115 264.510265 
z
" clip-path="url(#p8350985e41)" style="fill: #bbbbbb; stroke: #000000; stroke-width: 0.2; stroke-linejoin: miter"/>
   </g>
   <g id="patch_47">
    <path d="M 319.423778 316.8 
L 320.91544 316.8 
L 320.91544 255.160941 
L 319.423778 255.160941 
z
" clip-path="url(#p8350985e41)" style="fill: #bbbbbb; stroke: #000000; stroke-width: 0.2; stroke-linejoin: miter"/>
   </g>
   <g id="patch_48">
    <path d="M 320.91544 316.8 
L 322.407103 316.8 
L 322.407103 248.653811 
L 320.91544 248.653811 
z
" clip-path="url(#p8350985e41)" style="fill: #bbbbbb; stroke: #000000; stroke-width: 0.2; stroke-linejoin: miter"/>
   </g>
   <g id="patch_49">
    <path d="M 322.407103 316.8 
L 323.898766 316.8 
L 323.898766 239.578733 
L 322.407103 239.578733 
z
" clip-path="url(#p8350985e41)" style="fill: #bbbbbb; stroke: #000000; stroke-width: 0.2; stroke-linejoin: miter"/>
   </g>
   <g id="patch_50">
    <path d="M 323.898766 316.8 
L 325.390428 316.8 
L 325.390428 231.683747 
L 323.898766 231.683747 
z
" clip-path="url(#p8350985e41)" style="fill: #bbbbbb; stroke: #000000; stroke-width: 0.2; stroke-linejoin: miter"/>
   </g>
   <g id="patch_51">
    <path d="M 325.390428 316.8 
L 326.882091 316.8 
L 326.882091 219.741543 
L 325.390428 219.741543 
z
" clip-path="url(#p8350985e41)" style="fill: #bbbbbb; stroke: #000000; stroke-width: 0.2; stroke-linejoin: miter"/>
   </g>
   <g id="patch_52">
    <path d="M 326.882091 316.8 
L 328.373754 316.8 
L 328.373754 210.309113 
L 326.882091 210.309113 
z
" clip-path="url(#p8350985e41)" style="fill: #bbbbbb; stroke: #000000; stroke-width: 0.2; stroke-linejoin: miter"/>
   </g>
   <g id="patch_53">
    <path d="M 328.373754 316.8 
L 329.865416 316.8 
L 329.865416 199.081613 
L 328.373754 199.081613 
z
" clip-path="url(#p8350985e41)" style="fill: #bbbbbb; stroke: #000000; stroke-width: 0.2; stroke-linejoin: miter"/>
   </g>
   <g id="patch_54">
    <path d="M 329.865416 316.8 
L 331.357079 316.8 
L 331.357079 189.865256 
L 329.865416 189.865256 
z
" clip-path="url(#p8350985e41)" style="fill: #bbbbbb; stroke: #000000; stroke-width: 0.2; stroke-linejoin: miter"/>
   </g>
   <g id="patch_55">
    <path d="M 331.357079 316.8 
L 332.848742 316.8 
L 332.848742 176.75127 
L 331.357079 176.75127 
z
" clip-path="url(#p8350985e41)" style="fill: #bbbbbb; stroke: #000000; stroke-width: 0.2; stroke-linejoin: miter"/>
   </g>
   <g id="patch_56">
    <path d="M 332.848742 316.8 
L 334.340405 316.8 
L 334.340405 163.562489 
L 332.848742 163.562489 
z
" clip-path="url(#p8350985e41)" style="fill: #bbbbbb; stroke: #000000; stroke-width: 0.2; stroke-linejoin: miter"/>
   </g>
   <g id="patch_57">
    <path d="M 334.340405 316.8 
L 335.832067 316.8 
L 335.832067 154.071886 
L 334.340405 154.071886 
z
" clip-path="url(#p8350985e41)" style="fill: #bbbbbb; stroke: #000000; stroke-width: 0.2; stroke-linejoin: miter"/>
   </g>
   <g id="patch_58">
    <path d="M 335.832067 316.8 
L 337.32373 316.8 
L 337.32373 140.941279 
L 335.832067 140.941279 
z
" clip-path="url(#p8350985e41)" style="fill: #bbbbbb; stroke: #000000; stroke-width: 0.2; stroke-linejoin: miter"/>
   </g>
   <g id="patch_59">
    <path d="M 337.32373 316.8 
L 338.815393 316.8 
L 338.815393 129.506016 
L 337.32373 129.506016 
z
" clip-path="url(#p8350985e41)" style="fill: #bbbbbb; stroke: #000000; stroke-width: 0.2; stroke-linejoin: miter"/>
   </g>
   <g id="patch_60">
    <path d="M 338.815393 316.8 
L 340.307055 316.8 
L 340.307055 119.084635 
L 338.815393 119.084635 
z
" clip-path="url(#p8350985e41)" style="fill: #bbbbbb; stroke: #000000; stroke-width: 0.2; stroke-linejoin: miter"/>
   </g>
   <g id="patch_61">
    <path d="M 340.307055 316.8 
L 341.798718 316.8 
L 341.798718 105.447087 
L 340.307055 105.447087 
z
" clip-path="url(#p8350985e41)" style="fill: #bbbbbb; stroke: #000000; stroke-width: 0.2; stroke-linejoin: miter"/>
   </g>
   <g id="patch_62">
    <path d="M 341.798718 316.8 
L 343.290381 316.8 
L 343.290381 96.571461 
L 341.798718 96.571461 
z
" clip-path="url(#p8350985e41)" style="fill: #bbbbbb; stroke: #000000; stroke-width: 0.2; stroke-linejoin: miter"/>
   </g>
   <g id="patch_63">
    <path d="M 343.290381 316.8 
L 344.782043 316.8 
L 344.782043 84.19711 
L 343.290381 84.19711 
z
" clip-path="url(#p8350985e41)" style="fill: #bbbbbb; stroke: #000000; stroke-width: 0.2; stroke-linejoin: miter"/>
   </g>
   <g id="patch_64">
    <path d="M 344.782043 316.8 
L 346.273706 316.8 
L 346.273706 77.36587 
L 344.782043 77.36587 
z
" clip-path="url(#p8350985e41)" style="fill: #bbbbbb; stroke: #000000; stroke-width: 0.2; stroke-linejoin: miter"/>
   </g>
   <g id="patch_65">
    <path d="M 346.273706 316.8 
L 347.765369 316.8 
L 347.765369 72.32139 
L 346.273706 72.32139 
z
" clip-path="url(#p8350985e41)" style="fill: #bbbbbb; stroke: #000000; stroke-width: 0.2; stroke-linejoin: miter"/>
   </g>
   <g id="patch_66">
    <path d="M 347.765369 316.8 
L 349.257031 316.8 
L 349.257031 60.719917 
L 347.765369 60.719917 
z
" clip-path="url(#p8350985e41)" style="fill: #bbbbbb; stroke: #000000; stroke-width: 0.2; stroke-linejoin: miter"/>
   </g>
   <g id="patch_67">
    <path d="M 349.257031 316.8 
L 350.748694 316.8 
L 350.748694 58.642289 
L 349.257031 58.642289 
z
" clip-path="url(#p8350985e41)" style="fill: #bbbbbb; stroke: #000000; stroke-width: 0.2; stroke-linejoin: miter"/>
   </g>
   <g id="patch_68">
    <path d="M 350.748694 316.8 
L 352.240357 316.8 
L 352.240357 52.8 
L 350.748694 52.8 
z
" clip-path="url(#p8350985e41)" style="fill: #bbbbbb; stroke: #000000; stroke-width: 0.2; stroke-linejoin: miter"/>
   </g>
   <g id="patch_69">
    <path d="M 352.240357 316.8 
L 353.732019 316.8 
L 353.732019 56.481556 
L 352.240357 56.481556 
z
" clip-path="url(#p8350985e41)" style="fill: #bbbbbb; stroke: #000000; stroke-width: 0.2; stroke-linejoin: miter"/>
   </g>
   <g id="patch_70">
    <path d="M 353.732019 316.8 
L 355.223682 316.8 
L 355.223682 54.902559 
L 353.732019 54.902559 
z
" clip-path="url(#p8350985e41)" style="fill: #bbbbbb; stroke: #000000; stroke-width: 0.2; stroke-linejoin: miter"/>
   </g>
   <g id="patch_71">
    <path d="M 355.223682 316.8 
L 356.715345 316.8 
L 356.715345 53.589499 
L 355.223682 53.589499 
z
" clip-path="url(#p8350985e41)" style="fill: #bbbbbb; stroke: #000000; stroke-width: 0.2; stroke-linejoin: miter"/>
   </g>
   <g id="patch_72">
    <path d="M 356.715345 316.8 
L 358.207008 316.8 
L 358.207008 60.387496 
L 356.715345 60.387496 
z
" clip-path="url(#p8350985e41)" style="fill: #bbbbbb; stroke: #000000; stroke-width: 0.2; stroke-linejoin: miter"/>
   </g>
   <g id="patch_73">
    <path d="M 358.207008 316.8 
L 359.69867 316.8 
L 359.69867 62.207498 
L 358.207008 62.207498 
z
" clip-path="url(#p8350985e41)" style="fill: #bbbbbb; stroke: #000000; stroke-width: 0.2; stroke-linejoin: miter"/>
   </g>
   <g id="patch_74">
    <path d="M 359.69867 316.8 
L 361.190333 316.8 
L 361.190333 68.09134 
L 359.69867 68.09134 
z
" clip-path="url(#p8350985e41)" style="fill: #bbbbbb; stroke: #000000; stroke-width: 0.2; stroke-linejoin: miter"/>
   </g>
   <g id="patch_75">
    <path d="M 361.190333 316.8 
L 362.681996 316.8 
L 362.681996 75.479384 
L 361.190333 75.479384 
z
" clip-path="url(#p8350985e41)" style="fill: #bbbbbb; stroke: #000000; stroke-width: 0.2; stroke-linejoin: miter"/>
   </g>
   <g id="patch_76">
    <path d="M 362.681996 316.8 
L 364.173658 316.8 
L 364.173658 86.947889 
L 362.681996 86.947889 
z
" clip-path="url(#p8350985e41)" style="fill: #bbbbbb; stroke: #000000; stroke-width: 0.2; stroke-linejoin: miter"/>
   </g>
   <g id="patch_77">
    <path d="M 364.173658 316.8 
L 365.665321 316.8 
L 365.665321 99.987081 
L 364.173658 99.987081 
z
" clip-path="url(#p8350985e41)" style="fill: #bbbbbb; stroke: #000000; stroke-width: 0.2; stroke-linejoin: miter"/>
   </g>
   <g id="patch_78">
    <path d="M 365.665321 316.8 
L 367.156984 316.8 
L 367.156984 107.067636 
L 365.665321 107.067636 
z
" clip-path="url(#p8350985e41)" style="fill: #bbbbbb; stroke: #000000; stroke-width: 0.2; stroke-linejoin: miter"/>
   </g>
   <g id="patch_79">
    <path d="M 367.156984 316.8 
L 368.648646 316.8 
L 368.648646 118.918425 
L 367.156984 118.918425 
z
" clip-path="url(#p8350985e41)" style="fill: #bbbbbb; stroke: #000000; stroke-width: 0.2; stroke-linejoin: miter"/>
   </g>
   <g id="patch_80">
    <path d="M 368.648646 316.8 
L 370.140309 316.8 
L 370.140309 133.195883 
L 368.648646 133.195883 
z
" clip-path="url(#p8350985e41)" style="fill: #bbbbbb; stroke: #000000; stroke-width: 0.2; stroke-linejoin: miter"/>
   </g>
   <g id="patch_81">
    <path d="M 370.140309 316.8 
L 371.631972 316.8 
L 371.631972 146.584116 
L 370.140309 146.584116 
z
" clip-path="url(#p8350985e41)" style="fill: #bbbbbb; stroke: #000000; stroke-width: 0.2; stroke-linejoin: miter"/>
   </g>
   <g id="patch_82">
    <path d="M 371.631972 316.8 
L 373.123634 316.8 
L 373.123634 159.041571 
L 371.631972 159.041571 
z
" clip-path="url(#p8350985e41)" style="fill: #bbbbbb; stroke: #000000; stroke-width: 0.2; stroke-linejoin: miter"/>
   </g>
   <g id="patch_83">
    <path d="M 373.123634 316.8 
L 374.615297 316.8 
L 374.615297 171.54058 
L 373.123634 171.54058 
z
" clip-path="url(#p8350985e41)" style="fill: #bbbbbb; stroke: #000000; stroke-width: 0.2; stroke-linejoin: miter"/>
   </g>
   <g id="patch_84">
    <path d="M 374.615297 316.8 
L 376.10696 316.8 
L 376.10696 186.000869 
L 374.615297 186.000869 
z
" clip-path="url(#p8350985e41)" style="fill: #bbbbbb; stroke: #000000; stroke-width: 0.2; stroke-linejoin: miter"/>
   </g>
   <g id="patch_85">
    <path d="M 376.10696 316.8 
L 377.598623 316.8 
L 377.598623 198.441704 
L 376.10696 198.441704 
z
" clip-path="url(#p8350985e41)" style="fill: #bbbbbb; stroke: #000000; stroke-width: 0.2; stroke-linejoin: miter"/>
   </g>
   <g id="patch_86">
    <path d="M 377.598623 316.8 
L 379.090285 316.8 
L 379.090285 212.710851 
L 377.598623 212.710851 
z
" clip-path="url(#p8350985e41)" style="fill: #bbbbbb; stroke: #000000; stroke-width: 0.2; stroke-linejoin: miter"/>
   </g>
   <g id="patch_87">
    <path d="M 379.090285 316.8 
L 380.581948 316.8 
L 380.581948 223.049126 
L 379.090285 223.049126 
z
" clip-path="url(#p8350985e41)" style="fill: #bbbbbb; stroke: #000000; stroke-width: 0.2; stroke-linejoin: miter"/>
   </g>
   <g id="patch_88">
    <path d="M 380.581948 316.8 
L 382.073611 316.8 
L 382.073611 233.994069 
L 380.581948 233.994069 
z
" clip-path="url(#p8350985e41)" style="fill: #bbbbbb; stroke: #000000; stroke-width: 0.2; stroke-linejoin: miter"/>
   </g>
   <g id="patch_89">
    <path d="M 382.073611 316.8 
L 383.565273 316.8 
L 383.565273 245.329606 
L 382.073611 245.329606 
z
" clip-path="url(#p8350985e41)" style="fill: #bbbbbb; stroke: #000000; stroke-width: 0.2; stroke-linejoin: miter"/>
   </g>
   <g id="patch_90">
    <path d="M 383.565273 316.8 
L 385.056936 316.8 
L 385.056936 254.620757 
L 383.565273 254.620757 
z
" clip-path="url(#p8350985e41)" style="fill: #bbbbbb; stroke: #000000; stroke-width: 0.2; stroke-linejoin: miter"/>
   </g>
   <g id="patch_91">
    <path d="M 385.056936 316.8 
L 386.548599 316.8 
L 386.548599 263.222136 
L 385.056936 263.222136 
z
" clip-path="url(#p8350985e41)" style="fill: #bbbbbb; stroke: #000000; stroke-width: 0.2; stroke-linejoin: miter"/>
   </g>
   <g id="patch_92">
    <path d="M 386.548599 316.8 
L 388.040261 316.8 
L 388.040261 270.718217 
L 386.548599 270.718217 
z
" clip-path="url(#p8350985e41)" style="fill: #bbbbbb; stroke: #000000; stroke-width: 0.2; stroke-linejoin: miter"/>
   </g>
   <g id="patch_93">
    <path d="M 388.040261 316.8 
L 389.531924 316.8 
L 389.531924 278.837586 
L 388.040261 278.837586 
z
" clip-path="url(#p8350985e41)" style="fill: #bbbbbb; stroke: #000000; stroke-width: 0.2; stroke-linejoin: miter"/>
   </g>
   <g id="patch_94">
    <path d="M 389.531924 316.8 
L 391.023587 316.8 
L 391.023587 285.228369 
L 389.531924 285.228369 
z
" clip-path="url(#p8350985e41)" style="fill: #bbbbbb; stroke: #000000; stroke-width: 0.2; stroke-linejoin: miter"/>
   </g>
   <g id="patch_95">
    <path d="M 391.023587 316.8 
L 392.515249 316.8 
L 392.515249 290.704996 
L 391.023587 290.704996 
z
" clip-path="url(#p8350985e41)" style="fill: #bbbbbb; stroke: #000000; stroke-width: 0.2; stroke-linejoin: miter"/>
   </g>
   <g id="patch_96">
    <path d="M 392.515249 316.8 
L 394.006912 316.8 
L 394.006912 294.802078 
L 392.515249 294.802078 
z
" clip-path="url(#p8350985e41)" style="fill: #bbbbbb; stroke: #000000; stroke-width: 0.2; stroke-linejoin: miter"/>
   </g>
   <g id="patch_97">
    <path d="M 394.006912 316.8 
L 395.498575 316.8 
L 395.498575 299.422722 
L 394.006912 299.422722 
z
" clip-path="url(#p8350985e41)" style="fill: #bbbbbb; stroke: #000000; stroke-width: 0.2; stroke-linejoin: miter"/>
   </g>
   <g id="patch_98">
    <path d="M 395.498575 316.8 
L 396.990237 316.8 
L 396.990237 302.123638 
L 395.498575 302.123638 
z
" clip-path="url(#p8350985e41)" style="fill: #bbbbbb; stroke: #000000; stroke-width: 0.2; stroke-linejoin: miter"/>
   </g>
   <g id="patch_99">
    <path d="M 396.990237 316.8 
L 398.4819 316.8 
L 398.4819 305.4146 
L 396.990237 305.4146 
z
" clip-path="url(#p8350985e41)" style="fill: #bbbbbb; stroke: #000000; stroke-width: 0.2; stroke-linejoin: miter"/>
   </g>
   <g id="patch_100">
    <path d="M 398.4819 316.8 
L 399.973563 316.8 
L 399.973563 307.567022 
L 398.4819 307.567022 
z
" clip-path="url(#p8350985e41)" style="fill: #bbbbbb; stroke: #000000; stroke-width: 0.2; stroke-linejoin: miter"/>
   </g>
   <g id="patch_101">
    <path d="M 399.973563 316.8 
L 401.465226 316.8 
L 401.465226 309.727755 
L 399.973563 309.727755 
z
" clip-path="url(#p8350985e41)" style="fill: #bbbbbb; stroke: #000000; stroke-width: 0.2; stroke-linejoin: miter"/>
   </g>
   <g id="patch_102">
    <path d="M 401.465226 316.8 
L 402.956888 316.8 
L 402.956888 311.215337 
L 401.465226 311.215337 
z
" clip-path="url(#p8350985e41)" style="fill: #bbbbbb; stroke: #000000; stroke-width: 0.2; stroke-linejoin: miter"/>
   </g>
   <g id="patch_103">
    <path d="M 402.956888 316.8 
L 404.448551 316.8 
L 404.448551 312.129493 
L 402.956888 312.129493 
z
" clip-path="url(#p8350985e41)" style="fill: #bbbbbb; stroke: #000000; stroke-width: 0.2; stroke-linejoin: miter"/>
   </g>
   <g id="patch_104">
    <path d="M 404.448551 316.8 
L 405.940214 316.8 
L 405.940214 313.342827 
L 404.448551 313.342827 
z
" clip-path="url(#p8350985e41)" style="fill: #bbbbbb; stroke: #000000; stroke-width: 0.2; stroke-linejoin: miter"/>
   </g>
   <g id="patch_105">
    <path d="M 405.940214 316.8 
L 407.431876 316.8 
L 407.431876 314.439815 
L 405.940214 314.439815 
z
" clip-path="url(#p8350985e41)" style="fill: #bbbbbb; stroke: #000000; stroke-width: 0.2; stroke-linejoin: miter"/>
   </g>
   <g id="patch_106">
    <path d="M 407.431876 316.8 
L 408.923539 316.8 
L 408.923539 315.304108 
L 407.431876 315.304108 
z
" clip-path="url(#p8350985e41)" style="fill: #bbbbbb; stroke: #000000; stroke-width: 0.2; stroke-linejoin: miter"/>
   </g>
   <g id="patch_107">
    <path d="M 408.923539 316.8 
L 410.415202 316.8 
L 410.415202 315.387213 
L 408.923539 315.387213 
z
" clip-path="url(#p8350985e41)" style="fill: #bbbbbb; stroke: #000000; stroke-width: 0.2; stroke-linejoin: miter"/>
   </g>
   <g id="patch_108">
    <path d="M 410.415202 316.8 
L 411.906864 316.8 
L 411.906864 315.99388 
L 410.415202 315.99388 
z
" clip-path="url(#p8350985e41)" style="fill: #bbbbbb; stroke: #000000; stroke-width: 0.2; stroke-linejoin: miter"/>
   </g>
   <g id="patch_109">
    <path d="M 411.906864 316.8 
L 413.398527 316.8 
L 413.398527 316.135159 
L 411.906864 316.135159 
z
" clip-path="url(#p8350985e41)" style="fill: #bbbbbb; stroke: #000000; stroke-width: 0.2; stroke-linejoin: miter"/>
   </g>
   <g id="patch_110">
    <path d="M 413.398527 316.8 
L 414.89019 316.8 
L 414.89019 316.193333 
L 413.398527 316.193333 
z
" clip-path="url(#p8350985e41)" style="fill: #bbbbbb; stroke: #000000; stroke-width: 0.2; stroke-linejoin: miter"/>
   </g>
   <g id="patch_111">
    <path d="M 414.89019 316.8 
L 416.381852 316.8 
L 416.381852 316.434338 
L 414.89019 316.434338 
z
" clip-path="url(#p8350985e41)" style="fill: #bbbbbb; stroke: #000000; stroke-width: 0.2; stroke-linejoin: miter"/>
   </g>
   <g id="patch_112">
    <path d="M 416.381852 316.8 
L 417.873515 316.8 
L 417.873515 316.459269 
L 416.381852 316.459269 
z
" clip-path="url(#p8350985e41)" style="fill: #bbbbbb; stroke: #000000; stroke-width: 0.2; stroke-linejoin: miter"/>
   </g>
   <g id="patch_113">
    <path d="M 417.873515 316.8 
L 419.365178 316.8 
L 419.365178 316.558995 
L 417.873515 316.558995 
z
" clip-path="url(#p8350985e41)" style="fill: #bbbbbb; stroke: #000000; stroke-width: 0.2; stroke-linejoin: miter"/>
   </g>
   <g id="patch_114">
    <path d="M 419.365178 316.8 
L 420.856841 316.8 
L 420.856841 316.6421 
L 419.365178 316.6421 
z
" clip-path="url(#p8350985e41)" style="fill: #bbbbbb; stroke: #000000; stroke-width: 0.2; stroke-linejoin: miter"/>
   </g>
   <g id="patch_115">
    <path d="M 420.856841 316.8 
L 422.348503 316.8 
L 422.348503 316.700274 
L 420.856841 316.700274 
z
" clip-path="url(#p8350985e41)" style="fill: #bbbbbb; stroke: #000000; stroke-width: 0.2; stroke-linejoin: miter"/>
   </g>
   <g id="patch_116">
    <path d="M 422.348503 316.8 
L 423.840166 316.8 
L 423.840166 316.766758 
L 422.348503 316.766758 
z
" clip-path="url(#p8350985e41)" style="fill: #bbbbbb; stroke: #000000; stroke-width: 0.2; stroke-linejoin: miter"/>
   </g>
   <g id="patch_117">
    <path d="M 423.840166 316.8 
L 425.331829 316.8 
L 425.331829 316.741826 
L 423.840166 316.741826 
z
" clip-path="url(#p8350985e41)" style="fill: #bbbbbb; stroke: #000000; stroke-width: 0.2; stroke-linejoin: miter"/>
   </g>
   <g id="patch_118">
    <path d="M 425.331829 316.8 
L 426.823491 316.8 
L 426.823491 316.783379 
L 425.331829 316.783379 
z
" clip-path="url(#p8350985e41)" style="fill: #bbbbbb; stroke: #000000; stroke-width: 0.2; stroke-linejoin: miter"/>
   </g>
   <g id="patch_119">
    <path d="M 426.823491 316.8 
L 428.315154 316.8 
L 428.315154 316.775068 
L 426.823491 316.775068 
z
" clip-path="url(#p8350985e41)" style="fill: #bbbbbb; stroke: #000000; stroke-width: 0.2; stroke-linejoin: miter"/>
   </g>
   <g id="patch_120">
    <path d="M 428.315154 316.8 
L 429.806817 316.8 
L 429.806817 316.791689 
L 428.315154 316.791689 
z
" clip-path="url(#p8350985e41)" style="fill: #bbbbbb; stroke: #000000; stroke-width: 0.2; stroke-linejoin: miter"/>
   </g>
   <g id="patch_121">
    <path d="M 429.806817 316.8 
L 431.298479 316.8 
L 431.298479 316.775068 
L 429.806817 316.775068 
z
" clip-path="url(#p8350985e41)" style="fill: #bbbbbb; stroke: #000000; stroke-width: 0.2; stroke-linejoin: miter"/>
   </g>
   <g id="patch_122">
    <path d="M 431.298479 316.8 
L 432.790142 316.8 
L 432.790142 316.791689 
L 431.298479 316.791689 
z
" clip-path="url(#p8350985e41)" style="fill: #bbbbbb; stroke: #000000; stroke-width: 0.2; stroke-linejoin: miter"/>
   </g>
   <g id="matplotlib.axis_1">
    <g id="xtick_1">
     <g id="line2d_1">
      <defs>
       <path id="ma428fe74b5" d="M 0 0 
L 0 4 
" style="stroke: #000000; stroke-width: 0.8"/>
      </defs>
      <g>
       <use xlink:href="#ma428fe74b5" x="81.043624" y="316.8" style="stroke: #000000; stroke-width: 0.8"/>
      </g>
     </g>
     <g id="text_1">
      <text style="font-size: 10px; font-family: 'Liberation Sans', 'DejaVu Sans', sans-serif; text-anchor: middle" x="81.043624" y="331.546875" transform="rotate(-0 81.043624 331.546875)">3000</text>
     </g>
    </g>
    <g id="xtick_2">
     <g id="line2d_2">
      <g>
       <use xlink:href="#ma428fe74b5" x="124.69099" y="316.8" style="stroke: #000000; stroke-width: 0.8"/>
      </g>
     </g>
     <g id="text_2">
      <text style="font-size: 10px; font-family: 'Liberation Sans', 'DejaVu Sans', sans-serif; text-anchor: middle" x="124.69099" y="331.546875" transform="rotate(-0 124.69099 331.546875)">3200</text>
     </g>
    </g>
    <g id="xtick_3">
     <g id="line2d_3">
      <g>
       <use xlink:href="#ma428fe74b5" x="168.338357" y="316.8" style="stroke: #000000; stroke-width: 0.8"/>
      </g>
     </g>
     <g id="text_3">
      <text style="font-size: 10px; font-family: 'Liberation Sans', 'DejaVu Sans', sans-serif; text-anchor: middle" x="168.338357" y="331.546875" transform="rotate(-0 168.338357 331.546875)">3400</text>
     </g>
    </g>
    <g id="xtick_4">
     <g id="line2d_4">
      <g>
       <use xlink:href="#ma428fe74b5" x="211.985723" y="316.8" style="stroke: #000000; stroke-width: 0.8"/>
      </g>
     </g>
     <g id="text_4">
      <text style="font-size: 10px; font-family: 'Liberation Sans', 'DejaVu Sans', sans-serif; text-anchor: middle" x="211.985723" y="331.546875" transform="rotate(-0 211.985723 331.546875)">3600</text>
     </g>
    </g>
    <g id="xtick_5">
     <g id="line2d_5">
      <g>
       <use xlink:href="#ma428fe74b5" x="255.63309" y="316.8" style="stroke: #000000; stroke-width: 0.8"/>
      </g>
     </g>
     <g id="text_5">
      <text style="font-size: 10px; font-family: 'Liberation Sans', 'DejaVu Sans', sans-serif; text-anchor: middle" x="255.63309" y="331.546875" transform="rotate(-0 255.63309 331.546875)">3800</text>
     </g>
    </g>
    <g id="xtick_6">
     <g id="line2d_6">
      <g>
       <use xlink:href="#ma428fe74b5" x="299.280456" y="316.8" style="stroke: #000000; stroke-width: 0.8"/>
      </g>
     </g>
     <g id="text_6">
      <text style="font-size: 10px; font-family: 'Liberation Sans', 'DejaVu Sans', sans-serif; text-anchor: middle" x="299.280456" y="331.546875" transform="rotate(-0 299.280456 331.546875)">4000</text>
     </g>
    </g>
    <g id="xtick_7">
     <g id="line2d_7">
      <g>
       <use xlink:href="#ma428fe74b5" x="342.927823" y="316.8" style="stroke: #000000; stroke-width: 0.8"/>
      </g>
     </g>
     <g id="text_7">
      <text style="font-size: 10px; font-family: 'Liberation Sans', 'DejaVu Sans', sans-serif; text-anchor: middle" x="342.927823" y="331.546875" transform="rotate(-0 342.927823 331.546875)">4200</text>
     </g>
    </g>
    <g id="xtick_8">
     <g id="line2d_8">
      <g>
       <use xlink:href="#ma428fe74b5" x="386.575189" y="316.8" style="stroke: #000000; stroke-width: 0.8"/>
      </g>
     </g>
     <g id="text_8">
      <text style="font-size: 10px; font-family: 'Liberation Sans', 'DejaVu Sans', sans-serif; text-anchor: middle" x="386.575189" y="331.546875" transform="rotate(-0 386.575189 331.546875)">4400</text>
     </g>
    </g>
    <g id="xtick_9">
     <g id="line2d_9">
      <g>
       <use xlink:href="#ma428fe74b5" x="430.222555" y="316.8" style="stroke: #000000; stroke-width: 0.8"/>
      </g>
     </g>
     <g id="text_9">
      <text style="font-size: 10px; font-family: 'Liberation Sans', 'DejaVu Sans', sans-serif; text-anchor: middle" x="430.222555" y="331.546875" transform="rotate(-0 430.222555 331.546875)">4600</text>
     </g>
    </g>
    <g id="text_10">
     <!-- Dirichlet energy $E$ -->
     <g transform="translate(208.084688 346.381875)">
      <text>
       <tspan x="0" y="-0.25" style="font-size: 12px; font-family: 'Liberation Sans'">D</tspan>
       <tspan x="8.666016" y="-0.25" style="font-size: 12px; font-family: 'Liberation Sans'">i</tspan>
       <tspan x="11.332031" y="-0.25" style="font-size: 12px; font-family: 'Liberation Sans'">r</tspan>
       <tspan x="15.328125" y="-0.25" style="font-size: 12px; font-family: 'Liberation Sans'">i</tspan>
       <tspan x="17.994141" y="-0.25" style="font-size: 12px; font-family: 'Liberation Sans'">c</tspan>
       <tspan x="23.994141" y="-0.25" style="font-size: 12px; font-family: 'Liberation Sans'">h</tspan>
       <tspan x="30.667969" y="-0.25" style="font-size: 12px; font-family: 'Liberation Sans'">l</tspan>
       <tspan x="33.333984" y="-0.25" style="font-size: 12px; font-family: 'Liberation Sans'">e</tspan>
       <tspan x="40.007812" y="-0.25" style="font-size: 12px; font-family: 'Liberation Sans'">t</tspan>
       <tspan x="43.341797" y="-0.25" style="font-size: 12px; font-family: 'Liberation Sans'"> </tspan>
       <tspan x="46.675781" y="-0.25" style="font-size: 12px; font-family: 'Liberation Sans'">e</tspan>
       <tspan x="53.349609" y="-0.25" style="font-size: 12px; font-family: 'Liberation Sans'">n</tspan>
       <tspan x="60.023438" y="-0.25" style="font-size: 12px; font-family: 'Liberation Sans'">e</tspan>
       <tspan x="66.697266" y="-0.25" style="font-size: 12px; font-family: 'Liberation Sans'">r</tspan>
       <tspan x="70.693359" y="-0.25" style="font-size: 12px; font-family: 'Liberation Sans'">g</tspan>
       <tspan x="77.367188" y="-0.25" style="font-size: 12px; font-family: 'Liberation Sans'">y</tspan>
       <tspan x="83.367188" y="-0.25" style="font-size: 12px; font-family: 'Liberation Sans'"> </tspan>
       <tspan x="86.701172" y="-0.25" style="font-style: oblique; font-size: 12px; font-family: 'DejaVu Sans'">E</tspan>
      </text>
     </g>
    </g>
   </g>
   <g id="matplotlib.axis_2">
    <g id="ytick_1">
     <g id="line2d_10">
      <defs>
       <path id="m4fa1bbc1f7" d="M 0 0 
L -4 0 
" style="stroke: #000000; stroke-width: 0.8"/>
      </defs>
      <g>
       <use xlink:href="#m4fa1bbc1f7" x="59.944688" y="316.8" style="stroke: #000000; stroke-width: 0.8"/>
      </g>
     </g>
     <g id="text_11">
      <text style="font-size: 10px; font-family: 'Liberation Sans', 'DejaVu Sans', sans-serif; text-anchor: end" x="52.444688" y="320.423437" transform="rotate(-0 52.444688 320.423437)">0</text>
     </g>
    </g>
    <g id="ytick_2">
     <g id="line2d_11">
      <g>
       <use xlink:href="#m4fa1bbc1f7" x="59.944688" y="275.247445" style="stroke: #000000; stroke-width: 0.8"/>
      </g>
     </g>
     <g id="text_12">
      <text style="font-size: 10px; font-family: 'Liberation Sans', 'DejaVu Sans', sans-serif; text-anchor: end" x="52.444688" y="278.870883" transform="rotate(-0 52.444688 278.870883)">5000</text>
     </g>
    </g>
    <g id="ytick_3">
     <g id="line2d_12">
      <g>
       <use xlink:href="#m4fa1bbc1f7" x="59.944688" y="233.694891" style="stroke: #000000; stroke-width: 0.8"/>
      </g>
     </g>
     <g id="text_13">
      <text style="font-size: 10px; font-family: 'Liberation Sans', 'DejaVu Sans', sans-serif; text-anchor: end" x="52.444688" y="237.318328" transform="rotate(-0 52.444688 237.318328)">10000</text>
     </g>
    </g>
    <g id="ytick_4">
     <g id="line2d_13">
      <g>
       <use xlink:href="#m4fa1bbc1f7" x="59.944688" y="192.142336" style="stroke: #000000; stroke-width: 0.8"/>
      </g>
     </g>
     <g id="text_14">
      <text style="font-size: 10px; font-family: 'Liberation Sans', 'DejaVu Sans', sans-serif; text-anchor: end" x="52.444688" y="195.765774" transform="rotate(-0 52.444688 195.765774)">15000</text>
     </g>
    </g>
    <g id="ytick_5">
     <g id="line2d_14">
      <g>
       <use xlink:href="#m4fa1bbc1f7" x="59.944688" y="150.589782" style="stroke: #000000; stroke-width: 0.8"/>
      </g>
     </g>
     <g id="text_15">
      <text style="font-size: 10px; font-family: 'Liberation Sans', 'DejaVu Sans', sans-serif; text-anchor: end" x="52.444688" y="154.213219" transform="rotate(-0 52.444688 154.213219)">20000</text>
     </g>
    </g>
    <g id="ytick_6">
     <g id="line2d_15">
      <g>
       <use xlink:href="#m4fa1bbc1f7" x="59.944688" y="109.037227" style="stroke: #000000; stroke-width: 0.8"/>
      </g>
     </g>
     <g id="text_16">
      <text style="font-size: 10px; font-family: 'Liberation Sans', 'DejaVu Sans', sans-serif; text-anchor: end" x="52.444688" y="112.660665" transform="rotate(-0 52.444688 112.660665)">25000</text>
     </g>
    </g>
    <g id="ytick_7">
     <g id="line2d_16">
      <g>
       <use xlink:href="#m4fa1bbc1f7" x="59.944688" y="67.484673" style="stroke: #000000; stroke-width: 0.8"/>
      </g>
     </g>
     <g id="text_17">
      <text style="font-size: 10px; font-family: 'Liberation Sans', 'DejaVu Sans', sans-serif; text-anchor: end" x="52.444688" y="71.10811" transform="rotate(-0 52.444688 71.10811)">30000</text>
     </g>
    </g>
    <g id="text_18">
     <!-- Count (of 10$^6$ random codes) -->
     <g transform="translate(18.12 255.84) rotate(-90)">
      <text>
       <tspan x="0" y="-0.171875" style="font-size: 12px; font-family: 'Liberation Sans'">C</tspan>
       <tspan x="8.666016" y="-0.171875" style="font-size: 12px; font-family: 'Liberation Sans'">o</tspan>
       <tspan x="15.339844" y="-0.171875" style="font-size: 12px; font-family: 'Liberation Sans'">u</tspan>
       <tspan x="22.013672" y="-0.171875" style="font-size: 12px; font-family: 'Liberation Sans'">n</tspan>
       <tspan x="28.6875" y="-0.171875" style="font-size: 12px; font-family: 'Liberation Sans'">t</tspan>
       <tspan x="32.021484" y="-0.171875" style="font-size: 12px; font-family: 'Liberation Sans'"> </tspan>
       <tspan x="35.355469" y="-0.171875" style="font-size: 12px; font-family: 'Liberation Sans'">(</tspan>
       <tspan x="39.351562" y="-0.171875" style="font-size: 12px; font-family: 'Liberation Sans'">o</tspan>
       <tspan x="46.025391" y="-0.171875" style="font-size: 12px; font-family: 'Liberation Sans'">f</tspan>
       <tspan x="49.359375" y="-0.171875" style="font-size: 12px; font-family: 'Liberation Sans'"> </tspan>
       <tspan x="52.693359" y="-0.171875" style="font-size: 12px; font-family: 'Liberation Sans'">1</tspan>
       <tspan x="59.367188" y="-0.171875" style="font-size: 12px; font-family: 'Liberation Sans'">0</tspan>
       <tspan x="71.82832" y="-0.171875" style="font-size: 12px; font-family: 'Liberation Sans'"> </tspan>
       <tspan x="75.162305" y="-0.171875" style="font-size: 12px; font-family: 'Liberation Sans'">r</tspan>
       <tspan x="79.158398" y="-0.171875" style="font-size: 12px; font-family: 'Liberation Sans'">a</tspan>
       <tspan x="85.832227" y="-0.171875" style="font-size: 12px; font-family: 'Liberation Sans'">n</tspan>
       <tspan x="92.506055" y="-0.171875" style="font-size: 12px; font-family: 'Liberation Sans'">d</tspan>
       <tspan x="99.179883" y="-0.171875" style="font-size: 12px; font-family: 'Liberation Sans'">o</tspan>
       <tspan x="105.853711" y="-0.171875" style="font-size: 12px; font-family: 'Liberation Sans'">m</tspan>
       <tspan x="115.849805" y="-0.171875" style="font-size: 12px; font-family: 'Liberation Sans'"> </tspan>
       <tspan x="119.183789" y="-0.171875" style="font-size: 12px; font-family: 'Liberation Sans'">c</tspan>
       <tspan x="125.183789" y="-0.171875" style="font-size: 12px; font-family: 'Liberation Sans'">o</tspan>
       <tspan x="131.857617" y="-0.171875" style="font-size: 12px; font-family: 'Liberation Sans'">d</tspan>
       <tspan x="138.531445" y="-0.171875" style="font-size: 12px; font-family: 'Liberation Sans'">e</tspan>
       <tspan x="145.205273" y="-0.171875" style="font-size: 12px; font-family: 'Liberation Sans'">s</tspan>
       <tspan x="151.205273" y="-0.171875" style="font-size: 12px; font-family: 'Liberation Sans'">)</tspan>
       <tspan x="66.155859" y="-4.765625" style="font-size: 8.4px; font-family: 'DejaVu Sans'">6</tspan>
      </text>
     </g>
    </g>
   </g>
   <g id="patch_123">
    <path d="M 59.944688 316.8 
L 59.944688 39.6 
" style="fill: none; stroke: #000000; stroke-width: 0.8; stroke-linejoin: miter; stroke-linecap: square"/>
   </g>
   <g id="patch_124">
    <path d="M 59.944687 316.8 
L 450.544688 316.8 
" style="fill: none; stroke: #000000; stroke-width: 0.8; stroke-linejoin: miter; stroke-linecap: square"/>
   </g>
   <g id="patch_125">
    <path d="M 82.649053 117.216 
Q 81.172324 117.216 80.590023 117.216 
" style="fill: none; stroke: #cc6677; stroke-width: 0.8; stroke-linecap: round"/>
    <path d="M 85.390023 119.616 
L 80.590023 117.216 
L 85.390023 114.816 
" style="fill: none; stroke: #cc6677; stroke-width: 0.8; stroke-linecap: round"/>
   </g>
   <g id="text_19">
    <text style="font-weight: 700; font-size: 12px; font-family: 'Liberation Sans', 'DejaVu Sans', sans-serif; fill: #cc6677" transform="translate(86.649209 106.044375)">SGC</text>
    <!-- $z = -14.6$ -->
    <g style="fill: #cc6677" transform="translate(86.649209 118.969875)">
     <text>
      <tspan x="0" y="-0.09375" style="font-style: oblique; font-size: 12px; font-family: 'DejaVu Sans'; fill: #cc6677">z</tspan>
      <tspan x="8.636719" y="-0.09375" style="font-size: 12px; font-family: 'DejaVu Sans'; fill: #cc6677">=</tspan>
      <tspan x="21.029297" y="-0.09375" style="font-size: 12px; font-family: 'DejaVu Sans'; fill: #cc6677">−</tspan>
      <tspan x="31.083984" y="-0.09375" style="font-size: 12px; font-family: 'DejaVu Sans'; fill: #cc6677">1</tspan>
      <tspan x="38.71875" y="-0.09375" style="font-size: 12px; font-family: 'DejaVu Sans'; fill: #cc6677">4</tspan>
      <tspan x="46.353516" y="-0.09375" style="font-size: 12px; font-family: 'DejaVu Sans'; fill: #cc6677">.</tspan>
      <tspan x="50.167969" y="-0.09375" style="font-size: 12px; font-family: 'DejaVu Sans'; fill: #cc6677">6</tspan>
     </text>
    </g>
    <!-- $p &lt; 10^{-6}$ -->
    <g style="fill: #cc6677" transform="translate(86.649209 134.563875)">
     <text>
      <tspan x="0" y="-0.171875" style="font-style: oblique; font-size: 12px; font-family: 'DejaVu Sans'; fill: #cc6677">p</tspan>
      <tspan x="9.955078" y="-0.171875" style="font-size: 12px; font-family: 'DejaVu Sans'; fill: #cc6677">&lt;</tspan>
      <tspan x="22.347656" y="-0.171875" style="font-size: 12px; font-family: 'DejaVu Sans'; fill: #cc6677">1</tspan>
      <tspan x="29.982422" y="-0.171875" style="font-size: 12px; font-family: 'DejaVu Sans'; fill: #cc6677">0</tspan>
      <tspan x="37.732031" y="-4.765625" style="font-size: 8.4px; font-family: 'DejaVu Sans'; fill: #cc6677">−</tspan>
      <tspan x="44.770312" y="-4.765625" style="font-size: 8.4px; font-family: 'DejaVu Sans'; fill: #cc6677">6</tspan>
     </text>
    </g>
   </g>
   <g id="line2d_17">
    <path d="M 77.699233 316.8 
L 77.699233 39.6 
" clip-path="url(#p8350985e41)" style="fill: none; stroke: #cc6677; stroke-width: 1.6; stroke-linecap: square"/>
   </g>
  </g>
  <g id="text_20">
   <text style="font-size: 12px; font-family: 'Liberation Sans', 'DejaVu Sans', sans-serif; text-anchor: middle" x="248.944688" y="15.89625" transform="rotate(-0 248.944688 15.89625)">Condition B: 20-AA SGC, Dirichlet energy null</text>
  </g>
 </g>
 <defs>
  <clipPath id="p8350985e41">
   <rect x="59.944688" y="39.6" width="390.6" height="277.2"/>
  </clipPath>
 </defs>
</svg>
