<?xml version="1.0" encoding="utf-8" standalone="no"?>
<!DOCTYPE svg PUBLIC "-//W3C//DTD SVG 1.1//EN"
  "http://www.w3.org/Graphics/SVG/1.1/DTD/svg11.dtd">
<svg xmlns:xlink="http://www.w3.org/1999/xlink" width="497.38625pt" height="325.048125pt" viewBox="0 0 497.38625 325.048125" xmlns="http://www.w3.org/2000/svg" version="1.1">
 <metadata>
  <rdf:RDF xmlns:dc="http://purl.org/dc/elements/1.1/" xmlns:cc="http://creativecommons.org/ns#" xmlns:rdf="http://www.w3.org/1999/02/22-rdf-syntax-ns#">
   <cc:Work>
    <dc:type rdf:resource="http://purl.org/dc/dcmitype/StillImage"/>
    <dc:date>2026-04-23T13:12:57.925728</dc:date>
    <dc:format>image/svg+xml</dc:format>
    <dc:creator>
     <cc:Agent>
      <dc:title>Matplotlib v3.10.7, https://matplotlib.org/</dc:title>
     </cc:Agent>
    </dc:creator>
   </cc:Work>
  </rdf:RDF>
 </metadata>
 <defs>
  <style type="text/css">*{stroke-linejoin: round; stroke-linecap: butt}</style>
 </defs>
 <g id="figure_1">
  <g id="patch_1">
   <path d="M 0 325.048125 
L 497.38625 325.048125 
L 497.38625 0 
L 0 0 
z
" style="fill: #ffffff"/>
  </g>
  <g id="axes_1">
   <g id="patch_2">
    <path d="M 43.78625 285.84 
L 490.18625 285.84 
L 490.18625 36.36 
L 43.78625 36.36 
z
" style="fill: #ffffff"/>
   </g>
   <g id="patch_3">
    <path d="M 74.389035 285.84 
L 75.567821 285.84 
L 75.567821 285.830906 
L 74.389035 285.830906 
z
" clip-path="url(#p8f60e76c8e)" style="fill: #4477aa; opacity: 0.7; stroke: #000000; stroke-width: 0.25; stroke-linejoin: miter"/>
   </g>
   <g id="patch_4">
    <path d="M 75.567821 285.84 
L 76.746608 285.84 
L 76.746608 285.821813 
L 75.567821 285.821813 
z
" clip-path="url(#p8f60e76c8e)" style="fill: #4477aa; opacity: 0.7; stroke: #000000; stroke-width: 0.25; stroke-linejoin: miter"/>
   </g>
   <g id="patch_5">
    <path d="M 76.746608 285.84 
L 77.925394 285.84 
L 77.925394 285.812719 
L 76.746608 285.812719 
z
" clip-path="url(#p8f60e76c8e)" style="fill: #4477aa; opacity: 0.7; stroke: #000000; stroke-width: 0.25; stroke-linejoin: miter"/>
   </g>
   <g id="patch_6">
    <path d="M 77.925394 285.84 
L 79.10418 285.84 
L 79.10418 285.812719 
L 77.925394 285.812719 
z
" clip-path="url(#p8f60e76c8e)" style="fill: #4477aa; opacity: 0.7; stroke: #000000; stroke-width: 0.25; stroke-linejoin: miter"/>
   </g>
   <g id="patch_7">
    <path d="M 79.10418 285.84 
L 80.282967 285.84 
L 80.282967 285.830906 
L 79.10418 285.830906 
z
" clip-path="url(#p8f60e76c8e)" style="fill: #4477aa; opacity: 0.7; stroke: #000000; stroke-width: 0.25; stroke-linejoin: miter"/>
   </g>
   <g id="patch_8">
    <path d="M 80.282967 285.84 
L 81.461753 285.84 
L 81.461753 285.821813 
L 80.282967 285.821813 
z
" clip-path="url(#p8f60e76c8e)" style="fill: #4477aa; opacity: 0.7; stroke: #000000; stroke-width: 0.25; stroke-linejoin: miter"/>
   </g>
   <g id="patch_9">
    <path d="M 81.461753 285.84 
L 82.64054 285.84 
L 82.64054 285.776344 
L 81.461753 285.776344 
z
" clip-path="url(#p8f60e76c8e)" style="fill: #4477aa; opacity: 0.7; stroke: #000000; stroke-width: 0.25; stroke-linejoin: miter"/>
   </g>
   <g id="patch_10">
    <path d="M 82.64054 285.84 
L 83.819326 285.84 
L 83.819326 285.812719 
L 82.64054 285.812719 
z
" clip-path="url(#p8f60e76c8e)" style="fill: #4477aa; opacity: 0.7; stroke: #000000; stroke-width: 0.25; stroke-linejoin: miter"/>
   </g>
   <g id="patch_11">
    <path d="M 83.819326 285.84 
L 84.998113 285.84 
L 84.998113 285.794532 
L 83.819326 285.794532 
z
" clip-path="url(#p8f60e76c8e)" style="fill: #4477aa; opacity: 0.7; stroke: #000000; stroke-width: 0.25; stroke-linejoin: miter"/>
   </g>
   <g id="patch_12">
    <path d="M 84.998113 285.84 
L 86.176899 285.84 
L 86.176899 285.803625 
L 84.998113 285.803625 
z
" clip-path="url(#p8f60e76c8e)" style="fill: #4477aa; opacity: 0.7; stroke: #000000; stroke-width: 0.25; stroke-linejoin: miter"/>
   </g>
   <g id="patch_13">
    <path d="M 86.176899 285.84 
L 87.355685 285.84 
L 87.355685 285.712688 
L 86.176899 285.712688 
z
" clip-path="url(#p8f60e76c8e)" style="fill: #4477aa; opacity: 0.7; stroke: #000000; stroke-width: 0.25; stroke-linejoin: miter"/>
   </g>
   <g id="patch_14">
    <path d="M 87.355685 285.84 
L 88.534472 285.84 
L 88.534472 285.676314 
L 87.355685 285.676314 
z
" clip-path="url(#p8f60e76c8e)" style="fill: #4477aa; opacity: 0.7; stroke: #000000; stroke-width: 0.25; stroke-linejoin: miter"/>
   </g>
   <g id="patch_15">
    <path d="M 88.534472 285.84 
L 89.713258 285.84 
L 89.713258 285.567189 
L 88.534472 285.567189 
z
" clip-path="url(#p8f60e76c8e)" style="fill: #4477aa; opacity: 0.7; stroke: #000000; stroke-width: 0.25; stroke-linejoin: miter"/>
   </g>
   <g id="patch_16">
    <path d="M 89.713258 285.84 
L 90.892045 285.84 
L 90.892045 285.539908 
L 89.713258 285.539908 
z
" clip-path="url(#p8f60e76c8e)" style="fill: #4477aa; opacity: 0.7; stroke: #000000; stroke-width: 0.25; stroke-linejoin: miter"/>
   </g>
   <g id="patch_17">
    <path d="M 90.892045 285.84 
L 92.070831 285.84 
L 92.070831 285.42169 
L 90.892045 285.42169 
z
" clip-path="url(#p8f60e76c8e)" style="fill: #4477aa; opacity: 0.7; stroke: #000000; stroke-width: 0.25; stroke-linejoin: miter"/>
   </g>
   <g id="patch_18">
    <path d="M 92.070831 285.84 
L 93.249618 285.84 
L 93.249618 285.285285 
L 92.070831 285.285285 
z
" clip-path="url(#p8f60e76c8e)" style="fill: #4477aa; opacity: 0.7; stroke: #000000; stroke-width: 0.25; stroke-linejoin: miter"/>
   </g>
   <g id="patch_19">
    <path d="M 93.249618 285.84 
L 94.428404 285.84 
L 94.428404 285.285285 
L 93.249618 285.285285 
z
" clip-path="url(#p8f60e76c8e)" style="fill: #4477aa; opacity: 0.7; stroke: #000000; stroke-width: 0.25; stroke-linejoin: miter"/>
   </g>
   <g id="patch_20">
    <path d="M 94.428404 285.84 
L 95.60719 285.84 
L 95.60719 285.057942 
L 94.428404 285.057942 
z
" clip-path="url(#p8f60e76c8e)" style="fill: #4477aa; opacity: 0.7; stroke: #000000; stroke-width: 0.25; stroke-linejoin: miter"/>
   </g>
   <g id="patch_21">
    <path d="M 95.60719 285.84 
L 96.785977 285.84 
L 96.785977 284.894256 
L 95.60719 284.894256 
z
" clip-path="url(#p8f60e76c8e)" style="fill: #4477aa; opacity: 0.7; stroke: #000000; stroke-width: 0.25; stroke-linejoin: miter"/>
   </g>
   <g id="patch_22">
    <path d="M 96.785977 285.84 
L 97.964763 285.84 
L 97.964763 284.475946 
L 96.785977 284.475946 
z
" clip-path="url(#p8f60e76c8e)" style="fill: #4477aa; opacity: 0.7; stroke: #000000; stroke-width: 0.25; stroke-linejoin: miter"/>
   </g>
   <g id="patch_23">
    <path d="M 97.964763 285.84 
L 99.14355 285.84 
L 99.14355 284.330447 
L 97.964763 284.330447 
z
" clip-path="url(#p8f60e76c8e)" style="fill: #4477aa; opacity: 0.7; stroke: #000000; stroke-width: 0.25; stroke-linejoin: miter"/>
   </g>
   <g id="patch_24">
    <path d="M 99.14355 285.84 
L 100.322336 285.84 
L 100.322336 284.157667 
L 99.14355 284.157667 
z
" clip-path="url(#p8f60e76c8e)" style="fill: #4477aa; opacity: 0.7; stroke: #000000; stroke-width: 0.25; stroke-linejoin: miter"/>
   </g>
   <g id="patch_25">
    <path d="M 100.322336 285.84 
L 101.501123 285.84 
L 101.501123 283.639326 
L 100.322336 283.639326 
z
" clip-path="url(#p8f60e76c8e)" style="fill: #4477aa; opacity: 0.7; stroke: #000000; stroke-width: 0.25; stroke-linejoin: miter"/>
   </g>
   <g id="patch_26">
    <path d="M 101.501123 285.84 
L 102.679909 285.84 
L 102.679909 282.839081 
L 101.501123 282.839081 
z
" clip-path="url(#p8f60e76c8e)" style="fill: #4477aa; opacity: 0.7; stroke: #000000; stroke-width: 0.25; stroke-linejoin: miter"/>
   </g>
   <g id="patch_27">
    <path d="M 102.679909 285.84 
L 103.858695 285.84 
L 103.858695 282.802707 
L 102.679909 282.802707 
z
" clip-path="url(#p8f60e76c8e)" style="fill: #4477aa; opacity: 0.7; stroke: #000000; stroke-width: 0.25; stroke-linejoin: miter"/>
   </g>
   <g id="patch_28">
    <path d="M 103.858695 285.84 
L 105.037482 285.84 
L 105.037482 281.684182 
L 103.858695 281.684182 
z
" clip-path="url(#p8f60e76c8e)" style="fill: #4477aa; opacity: 0.7; stroke: #000000; stroke-width: 0.25; stroke-linejoin: miter"/>
   </g>
   <g id="patch_29">
    <path d="M 105.037482 285.84 
L 106.216268 285.84 
L 106.216268 280.86575 
L 105.037482 280.86575 
z
" clip-path="url(#p8f60e76c8e)" style="fill: #4477aa; opacity: 0.7; stroke: #000000; stroke-width: 0.25; stroke-linejoin: miter"/>
   </g>
   <g id="patch_30">
    <path d="M 106.216268 285.84 
L 107.395055 285.84 
L 107.395055 279.428947 
L 106.216268 279.428947 
z
" clip-path="url(#p8f60e76c8e)" style="fill: #4477aa; opacity: 0.7; stroke: #000000; stroke-width: 0.25; stroke-linejoin: miter"/>
   </g>
   <g id="patch_31">
    <path d="M 107.395055 285.84 
L 108.573841 285.84 
L 108.573841 278.637795 
L 107.395055 278.637795 
z
" clip-path="url(#p8f60e76c8e)" style="fill: #4477aa; opacity: 0.7; stroke: #000000; stroke-width: 0.25; stroke-linejoin: miter"/>
   </g>
   <g id="patch_32">
    <path d="M 108.573841 285.84 
L 109.752628 285.84 
L 109.752628 276.791776 
L 108.573841 276.791776 
z
" clip-path="url(#p8f60e76c8e)" style="fill: #4477aa; opacity: 0.7; stroke: #000000; stroke-width: 0.25; stroke-linejoin: miter"/>
   </g>
   <g id="patch_33">
    <path d="M 109.752628 285.84 
L 110.931414 285.84 
L 110.931414 275.245848 
L 109.752628 275.245848 
z
" clip-path="url(#p8f60e76c8e)" style="fill: #4477aa; opacity: 0.7; stroke: #000000; stroke-width: 0.25; stroke-linejoin: miter"/>
   </g>
   <g id="patch_34">
    <path d="M 110.931414 285.84 
L 112.1102 285.84 
L 112.1102 273.981825 
L 110.931414 273.981825 
z
" clip-path="url(#p8f60e76c8e)" style="fill: #4477aa; opacity: 0.7; stroke: #000000; stroke-width: 0.25; stroke-linejoin: miter"/>
   </g>
   <g id="patch_35">
    <path d="M 112.1102 285.84 
L 113.288987 285.84 
L 113.288987 271.599277 
L 112.1102 271.599277 
z
" clip-path="url(#p8f60e76c8e)" style="fill: #4477aa; opacity: 0.7; stroke: #000000; stroke-width: 0.25; stroke-linejoin: miter"/>
   </g>
   <g id="patch_36">
    <path d="M 113.288987 285.84 
L 114.467773 285.84 
L 114.467773 269.680508 
L 113.288987 269.680508 
z
" clip-path="url(#p8f60e76c8e)" style="fill: #4477aa; opacity: 0.7; stroke: #000000; stroke-width: 0.25; stroke-linejoin: miter"/>
   </g>
   <g id="patch_37">
    <path d="M 114.467773 285.84 
L 115.64656 285.84 
L 115.64656 266.279467 
L 114.467773 266.279467 
z
" clip-path="url(#p8f60e76c8e)" style="fill: #4477aa; opacity: 0.7; stroke: #000000; stroke-width: 0.25; stroke-linejoin: miter"/>
   </g>
   <g id="patch_38">
    <path d="M 115.64656 285.84 
L 116.825346 285.84 
L 116.825346 264.651696 
L 115.64656 264.651696 
z
" clip-path="url(#p8f60e76c8e)" style="fill: #4477aa; opacity: 0.7; stroke: #000000; stroke-width: 0.25; stroke-linejoin: miter"/>
   </g>
   <g id="patch_39">
    <path d="M 116.825346 285.84 
L 118.004133 285.84 
L 118.004133 260.532254 
L 116.825346 260.532254 
z
" clip-path="url(#p8f60e76c8e)" style="fill: #4477aa; opacity: 0.7; stroke: #000000; stroke-width: 0.25; stroke-linejoin: miter"/>
   </g>
   <g id="patch_40">
    <path d="M 118.004133 285.84 
L 119.182919 285.84 
L 119.182919 257.176681 
L 118.004133 257.176681 
z
" clip-path="url(#p8f60e76c8e)" style="fill: #4477aa; opacity: 0.7; stroke: #000000; stroke-width: 0.25; stroke-linejoin: miter"/>
   </g>
   <g id="patch_41">
    <path d="M 119.182919 285.84 
L 120.361705 285.84 
L 120.361705 252.893552 
L 119.182919 252.893552 
z
" clip-path="url(#p8f60e76c8e)" style="fill: #4477aa; opacity: 0.7; stroke: #000000; stroke-width: 0.25; stroke-linejoin: miter"/>
   </g>
   <g id="patch_42">
    <path d="M 120.361705 285.84 
L 121.540492 285.84 
L 121.540492 248.319424 
L 120.361705 248.319424 
z
" clip-path="url(#p8f60e76c8e)" style="fill: #4477aa; opacity: 0.7; stroke: #000000; stroke-width: 0.25; stroke-linejoin: miter"/>
   </g>
   <g id="patch_43">
    <path d="M 121.540492 285.84 
L 122.719278 285.84 
L 122.719278 244.136326 
L 121.540492 244.136326 
z
" clip-path="url(#p8f60e76c8e)" style="fill: #4477aa; opacity: 0.7; stroke: #000000; stroke-width: 0.25; stroke-linejoin: miter"/>
   </g>
   <g id="patch_44">
    <path d="M 122.719278 285.84 
L 123.898065 285.84 
L 123.898065 238.552799 
L 122.719278 238.552799 
z
" clip-path="url(#p8f60e76c8e)" style="fill: #4477aa; opacity: 0.7; stroke: #000000; stroke-width: 0.25; stroke-linejoin: miter"/>
   </g>
   <g id="patch_45">
    <path d="M 123.898065 285.84 
L 125.076851 285.84 
L 125.076851 233.70586 
L 123.898065 233.70586 
z
" clip-path="url(#p8f60e76c8e)" style="fill: #4477aa; opacity: 0.7; stroke: #000000; stroke-width: 0.25; stroke-linejoin: miter"/>
   </g>
   <g id="patch_46">
    <path d="M 125.076851 285.84 
L 126.255638 285.84 
L 126.255638 229.313607 
L 125.076851 229.313607 
z
" clip-path="url(#p8f60e76c8e)" style="fill: #4477aa; opacity: 0.7; stroke: #000000; stroke-width: 0.25; stroke-linejoin: miter"/>
   </g>
   <g id="patch_47">
    <path d="M 126.255638 285.84 
L 127.434424 285.84 
L 127.434424 220.383601 
L 126.255638 220.383601 
z
" clip-path="url(#p8f60e76c8e)" style="fill: #4477aa; opacity: 0.7; stroke: #000000; stroke-width: 0.25; stroke-linejoin: miter"/>
   </g>
   <g id="patch_48">
    <path d="M 127.434424 285.84 
L 128.61321 285.84 
L 128.61321 215.473007 
L 127.434424 215.473007 
z
" clip-path="url(#p8f60e76c8e)" style="fill: #4477aa; opacity: 0.7; stroke: #000000; stroke-width: 0.25; stroke-linejoin: miter"/>
   </g>
   <g id="patch_49">
    <path d="M 128.61321 285.84 
L 129.791997 285.84 
L 129.791997 209.425701 
L 128.61321 209.425701 
z
" clip-path="url(#p8f60e76c8e)" style="fill: #4477aa; opacity: 0.7; stroke: #000000; stroke-width: 0.25; stroke-linejoin: miter"/>
   </g>
   <g id="patch_50">
    <path d="M 129.791997 285.84 
L 130.970783 285.84 
L 130.970783 200.104666 
L 129.791997 200.104666 
z
" clip-path="url(#p8f60e76c8e)" style="fill: #4477aa; opacity: 0.7; stroke: #000000; stroke-width: 0.25; stroke-linejoin: miter"/>
   </g>
   <g id="patch_51">
    <path d="M 130.970783 285.84 
L 132.14957 285.84 
L 132.14957 192.556901 
L 130.970783 192.556901 
z
" clip-path="url(#p8f60e76c8e)" style="fill: #4477aa; opacity: 0.7; stroke: #000000; stroke-width: 0.25; stroke-linejoin: miter"/>
   </g>
   <g id="patch_52">
    <path d="M 132.14957 285.84 
L 133.328356 285.84 
L 133.328356 188.892143 
L 132.14957 188.892143 
z
" clip-path="url(#p8f60e76c8e)" style="fill: #4477aa; opacity: 0.7; stroke: #000000; stroke-width: 0.25; stroke-linejoin: miter"/>
   </g>
   <g id="patch_53">
    <path d="M 133.328356 285.84 
L 134.507143 285.84 
L 134.507143 177.888775 
L 133.328356 177.888775 
z
" clip-path="url(#p8f60e76c8e)" style="fill: #4477aa; opacity: 0.7; stroke: #000000; stroke-width: 0.25; stroke-linejoin: miter"/>
   </g>
   <g id="patch_54">
    <path d="M 134.507143 285.84 
L 135.685929 285.84 
L 135.685929 170.431947 
L 134.507143 170.431947 
z
" clip-path="url(#p8f60e76c8e)" style="fill: #4477aa; opacity: 0.7; stroke: #000000; stroke-width: 0.25; stroke-linejoin: miter"/>
   </g>
   <g id="patch_55">
    <path d="M 135.685929 285.84 
L 136.864715 285.84 
L 136.864715 161.874783 
L 135.685929 161.874783 
z
" clip-path="url(#p8f60e76c8e)" style="fill: #4477aa; opacity: 0.7; stroke: #000000; stroke-width: 0.25; stroke-linejoin: miter"/>
   </g>
   <g id="patch_56">
    <path d="M 136.864715 285.84 
L 138.043502 285.84 
L 138.043502 152.85384 
L 136.864715 152.85384 
z
" clip-path="url(#p8f60e76c8e)" style="fill: #4477aa; opacity: 0.7; stroke: #000000; stroke-width: 0.25; stroke-linejoin: miter"/>
   </g>
   <g id="patch_57">
    <path d="M 138.043502 285.84 
L 139.222288 285.84 
L 139.222288 142.496124 
L 138.043502 142.496124 
z
" clip-path="url(#p8f60e76c8e)" style="fill: #4477aa; opacity: 0.7; stroke: #000000; stroke-width: 0.25; stroke-linejoin: miter"/>
   </g>
   <g id="patch_58">
    <path d="M 139.222288 285.84 
L 140.401075 285.84 
L 140.401075 134.848328 
L 139.222288 134.848328 
z
" clip-path="url(#p8f60e76c8e)" style="fill: #4477aa; opacity: 0.7; stroke: #000000; stroke-width: 0.25; stroke-linejoin: miter"/>
   </g>
   <g id="patch_59">
    <path d="M 140.401075 285.84 
L 141.579861 285.84 
L 141.579861 127.837091 
L 140.401075 127.837091 
z
" clip-path="url(#p8f60e76c8e)" style="fill: #4477aa; opacity: 0.7; stroke: #000000; stroke-width: 0.25; stroke-linejoin: miter"/>
   </g>
   <g id="patch_60">
    <path d="M 141.579861 285.84 
L 142.758648 285.84 
L 142.758648 117.388438 
L 141.579861 117.388438 
z
" clip-path="url(#p8f60e76c8e)" style="fill: #4477aa; opacity: 0.7; stroke: #000000; stroke-width: 0.25; stroke-linejoin: miter"/>
   </g>
   <g id="patch_61">
    <path d="M 142.758648 285.84 
L 143.937434 285.84 
L 143.937434 110.786418 
L 142.758648 110.786418 
z
" clip-path="url(#p8f60e76c8e)" style="fill: #4477aa; opacity: 0.7; stroke: #000000; stroke-width: 0.25; stroke-linejoin: miter"/>
   </g>
   <g id="patch_62">
    <path d="M 143.937434 285.84 
L 145.11622 285.84 
L 145.11622 102.956748 
L 143.937434 102.956748 
z
" clip-path="url(#p8f60e76c8e)" style="fill: #4477aa; opacity: 0.7; stroke: #000000; stroke-width: 0.25; stroke-linejoin: miter"/>
   </g>
   <g id="patch_63">
    <path d="M 145.11622 285.84 
L 146.295007 285.84 
L 146.295007 94.299553 
L 145.11622 94.299553 
z
" clip-path="url(#p8f60e76c8e)" style="fill: #4477aa; opacity: 0.7; stroke: #000000; stroke-width: 0.25; stroke-linejoin: miter"/>
   </g>
   <g id="patch_64">
    <path d="M 146.295007 285.84 
L 147.473793 285.84 
L 147.473793 86.70632 
L 146.295007 86.70632 
z
" clip-path="url(#p8f60e76c8e)" style="fill: #4477aa; opacity: 0.7; stroke: #000000; stroke-width: 0.25; stroke-linejoin: miter"/>
   </g>
   <g id="patch_65">
    <path d="M 147.473793 285.84 
L 148.65258 285.84 
L 148.65258 80.622639 
L 147.473793 80.622639 
z
" clip-path="url(#p8f60e76c8e)" style="fill: #4477aa; opacity: 0.7; stroke: #000000; stroke-width: 0.25; stroke-linejoin: miter"/>
   </g>
   <g id="patch_66">
    <path d="M 148.65258 285.84 
L 149.831366 285.84 
L 149.831366 72.483784 
L 148.65258 72.483784 
z
" clip-path="url(#p8f60e76c8e)" style="fill: #4477aa; opacity: 0.7; stroke: #000000; stroke-width: 0.25; stroke-linejoin: miter"/>
   </g>
   <g id="patch_67">
    <path d="M 149.831366 285.84 
L 151.010153 285.84 
L 151.010153 68.964525 
L 149.831366 68.964525 
z
" clip-path="url(#p8f60e76c8e)" style="fill: #4477aa; opacity: 0.7; stroke: #000000; stroke-width: 0.25; stroke-linejoin: miter"/>
   </g>
   <g id="patch_68">
    <path d="M 151.010153 285.84 
L 152.188939 285.84 
L 152.188939 62.862658 
L 151.010153 62.862658 
z
" clip-path="url(#p8f60e76c8e)" style="fill: #4477aa; opacity: 0.7; stroke: #000000; stroke-width: 0.25; stroke-linejoin: miter"/>
   </g>
   <g id="patch_69">
    <path d="M 152.188939 285.84 
L 153.367725 285.84 
L 153.367725 58.834152 
L 152.188939 58.834152 
z
" clip-path="url(#p8f60e76c8e)" style="fill: #4477aa; opacity: 0.7; stroke: #000000; stroke-width: 0.25; stroke-linejoin: miter"/>
   </g>
   <g id="patch_70">
    <path d="M 153.367725 285.84 
L 154.546512 285.84 
L 154.546512 51.586479 
L 153.367725 51.586479 
z
" clip-path="url(#p8f60e76c8e)" style="fill: #4477aa; opacity: 0.7; stroke: #000000; stroke-width: 0.25; stroke-linejoin: miter"/>
   </g>
   <g id="patch_71">
    <path d="M 154.546512 285.84 
L 155.725298 285.84 
L 155.725298 52.004789 
L 154.546512 52.004789 
z
" clip-path="url(#p8f60e76c8e)" style="fill: #4477aa; opacity: 0.7; stroke: #000000; stroke-width: 0.25; stroke-linejoin: miter"/>
   </g>
   <g id="patch_72">
    <path d="M 155.725298 285.84 
L 156.904085 285.84 
L 156.904085 48.24 
L 155.725298 48.24 
z
" clip-path="url(#p8f60e76c8e)" style="fill: #4477aa; opacity: 0.7; stroke: #000000; stroke-width: 0.25; stroke-linejoin: miter"/>
   </g>
   <g id="patch_73">
    <path d="M 156.904085 285.84 
L 158.082871 285.84 
L 158.082871 52.859596 
L 156.904085 52.859596 
z
" clip-path="url(#p8f60e76c8e)" style="fill: #4477aa; opacity: 0.7; stroke: #000000; stroke-width: 0.25; stroke-linejoin: miter"/>
   </g>
   <g id="patch_74">
    <path d="M 158.082871 285.84 
L 159.261658 285.84 
L 159.261658 49.458555 
L 158.082871 49.458555 
z
" clip-path="url(#p8f60e76c8e)" style="fill: #4477aa; opacity: 0.7; stroke: #000000; stroke-width: 0.25; stroke-linejoin: miter"/>
   </g>
   <g id="patch_75">
    <path d="M 159.261658 285.84 
L 160.440444 285.84 
L 160.440444 49.103901 
L 159.261658 49.103901 
z
" clip-path="url(#p8f60e76c8e)" style="fill: #4477aa; opacity: 0.7; stroke: #000000; stroke-width: 0.25; stroke-linejoin: miter"/>
   </g>
   <g id="patch_76">
    <path d="M 160.440444 285.84 
L 161.61923 285.84 
L 161.61923 51.295481 
L 160.440444 51.295481 
z
" clip-path="url(#p8f60e76c8e)" style="fill: #4477aa; opacity: 0.7; stroke: #000000; stroke-width: 0.25; stroke-linejoin: miter"/>
   </g>
   <g id="patch_77">
    <path d="M 161.61923 285.84 
L 162.798017 285.84 
L 162.798017 56.51526 
L 161.61923 56.51526 
z
" clip-path="url(#p8f60e76c8e)" style="fill: #4477aa; opacity: 0.7; stroke: #000000; stroke-width: 0.25; stroke-linejoin: miter"/>
   </g>
   <g id="patch_78">
    <path d="M 162.798017 285.84 
L 163.976803 285.84 
L 163.976803 58.624997 
L 162.798017 58.624997 
z
" clip-path="url(#p8f60e76c8e)" style="fill: #4477aa; opacity: 0.7; stroke: #000000; stroke-width: 0.25; stroke-linejoin: miter"/>
   </g>
   <g id="patch_79">
    <path d="M 163.976803 285.84 
L 165.15559 285.84 
L 165.15559 62.42616 
L 163.976803 62.42616 
z
" clip-path="url(#p8f60e76c8e)" style="fill: #4477aa; opacity: 0.7; stroke: #000000; stroke-width: 0.25; stroke-linejoin: miter"/>
   </g>
   <g id="patch_80">
    <path d="M 165.15559 285.84 
L 166.334376 285.84 
L 166.334376 69.482866 
L 165.15559 69.482866 
z
" clip-path="url(#p8f60e76c8e)" style="fill: #4477aa; opacity: 0.7; stroke: #000000; stroke-width: 0.25; stroke-linejoin: miter"/>
   </g>
   <g id="patch_81">
    <path d="M 166.334376 285.84 
L 167.513163 285.84 
L 167.513163 74.193399 
L 166.334376 74.193399 
z
" clip-path="url(#p8f60e76c8e)" style="fill: #4477aa; opacity: 0.7; stroke: #000000; stroke-width: 0.25; stroke-linejoin: miter"/>
   </g>
   <g id="patch_82">
    <path d="M 167.513163 285.84 
L 168.691949 285.84 
L 168.691949 80.740857 
L 167.513163 80.740857 
z
" clip-path="url(#p8f60e76c8e)" style="fill: #4477aa; opacity: 0.7; stroke: #000000; stroke-width: 0.25; stroke-linejoin: miter"/>
   </g>
   <g id="patch_83">
    <path d="M 168.691949 285.84 
L 169.870735 285.84 
L 169.870735 89.361678 
L 168.691949 89.361678 
z
" clip-path="url(#p8f60e76c8e)" style="fill: #4477aa; opacity: 0.7; stroke: #000000; stroke-width: 0.25; stroke-linejoin: miter"/>
   </g>
   <g id="patch_84">
    <path d="M 169.870735 285.84 
L 171.049522 285.84 
L 171.049522 95.900043 
L 169.870735 95.900043 
z
" clip-path="url(#p8f60e76c8e)" style="fill: #4477aa; opacity: 0.7; stroke: #000000; stroke-width: 0.25; stroke-linejoin: miter"/>
   </g>
   <g id="patch_85">
    <path d="M 171.049522 285.84 
L 172.228308 285.84 
L 172.228308 105.712137 
L 171.049522 105.712137 
z
" clip-path="url(#p8f60e76c8e)" style="fill: #4477aa; opacity: 0.7; stroke: #000000; stroke-width: 0.25; stroke-linejoin: miter"/>
   </g>
   <g id="patch_86">
    <path d="M 172.228308 285.84 
L 173.407095 285.84 
L 173.407095 116.424507 
L 172.228308 116.424507 
z
" clip-path="url(#p8f60e76c8e)" style="fill: #4477aa; opacity: 0.7; stroke: #000000; stroke-width: 0.25; stroke-linejoin: miter"/>
   </g>
   <g id="patch_87">
    <path d="M 173.407095 285.84 
L 174.585881 285.84 
L 174.585881 124.92711 
L 173.407095 124.92711 
z
" clip-path="url(#p8f60e76c8e)" style="fill: #4477aa; opacity: 0.7; stroke: #000000; stroke-width: 0.25; stroke-linejoin: miter"/>
   </g>
   <g id="patch_88">
    <path d="M 174.585881 285.84 
L 175.764668 285.84 
L 175.764668 136.103258 
L 174.585881 136.103258 
z
" clip-path="url(#p8f60e76c8e)" style="fill: #4477aa; opacity: 0.7; stroke: #000000; stroke-width: 0.25; stroke-linejoin: miter"/>
   </g>
   <g id="patch_89">
    <path d="M 175.764668 285.84 
L 176.943454 285.84 
L 176.943454 147.188469 
L 175.764668 147.188469 
z
" clip-path="url(#p8f60e76c8e)" style="fill: #4477aa; opacity: 0.7; stroke: #000000; stroke-width: 0.25; stroke-linejoin: miter"/>
   </g>
   <g id="patch_90">
    <path d="M 176.943454 285.84 
L 178.12224 285.84 
L 178.12224 157.973588 
L 176.943454 157.973588 
z
" clip-path="url(#p8f60e76c8e)" style="fill: #4477aa; opacity: 0.7; stroke: #000000; stroke-width: 0.25; stroke-linejoin: miter"/>
   </g>
   <g id="patch_91">
    <path d="M 178.12224 285.84 
L 179.301027 285.84 
L 179.301027 166.676252 
L 178.12224 166.676252 
z
" clip-path="url(#p8f60e76c8e)" style="fill: #4477aa; opacity: 0.7; stroke: #000000; stroke-width: 0.25; stroke-linejoin: miter"/>
   </g>
   <g id="patch_92">
    <path d="M 179.301027 285.84 
L 180.479813 285.84 
L 180.479813 178.325273 
L 179.301027 178.325273 
z
" clip-path="url(#p8f60e76c8e)" style="fill: #4477aa; opacity: 0.7; stroke: #000000; stroke-width: 0.25; stroke-linejoin: miter"/>
   </g>
   <g id="patch_93">
    <path d="M 180.479813 285.84 
L 181.6586 285.84 
L 181.6586 186.345909 
L 180.479813 186.345909 
z
" clip-path="url(#p8f60e76c8e)" style="fill: #4477aa; opacity: 0.7; stroke: #000000; stroke-width: 0.25; stroke-linejoin: miter"/>
   </g>
   <g id="patch_94">
    <path d="M 181.6586 285.84 
L 182.837386 285.84 
L 182.837386 196.903686 
L 181.6586 196.903686 
z
" clip-path="url(#p8f60e76c8e)" style="fill: #4477aa; opacity: 0.7; stroke: #000000; stroke-width: 0.25; stroke-linejoin: miter"/>
   </g>
   <g id="patch_95">
    <path d="M 182.837386 285.84 
L 184.016172 285.84 
L 184.016172 206.433876 
L 182.837386 206.433876 
z
" clip-path="url(#p8f60e76c8e)" style="fill: #4477aa; opacity: 0.7; stroke: #000000; stroke-width: 0.25; stroke-linejoin: miter"/>
   </g>
   <g id="patch_96">
    <path d="M 184.016172 285.84 
L 185.194959 285.84 
L 185.194959 217.519088 
L 184.016172 217.519088 
z
" clip-path="url(#p8f60e76c8e)" style="fill: #4477aa; opacity: 0.7; stroke: #000000; stroke-width: 0.25; stroke-linejoin: miter"/>
   </g>
   <g id="patch_97">
    <path d="M 185.194959 285.84 
L 186.373745 285.84 
L 186.373745 224.275701 
L 185.194959 224.275701 
z
" clip-path="url(#p8f60e76c8e)" style="fill: #4477aa; opacity: 0.7; stroke: #000000; stroke-width: 0.25; stroke-linejoin: miter"/>
   </g>
   <g id="patch_98">
    <path d="M 186.373745 285.84 
L 187.552532 285.84 
L 187.552532 230.950472 
L 186.373745 230.950472 
z
" clip-path="url(#p8f60e76c8e)" style="fill: #4477aa; opacity: 0.7; stroke: #000000; stroke-width: 0.25; stroke-linejoin: miter"/>
   </g>
   <g id="patch_99">
    <path d="M 187.552532 285.84 
L 188.731318 285.84 
L 188.731318 239.116607 
L 187.552532 239.116607 
z
" clip-path="url(#p8f60e76c8e)" style="fill: #4477aa; opacity: 0.7; stroke: #000000; stroke-width: 0.25; stroke-linejoin: miter"/>
   </g>
   <g id="patch_100">
    <path d="M 188.731318 285.84 
L 189.910105 285.84 
L 189.910105 245.873221 
L 188.731318 245.873221 
z
" clip-path="url(#p8f60e76c8e)" style="fill: #4477aa; opacity: 0.7; stroke: #000000; stroke-width: 0.25; stroke-linejoin: miter"/>
   </g>
   <g id="patch_101">
    <path d="M 189.910105 285.84 
L 191.088891 285.84 
L 191.088891 253.43008 
L 189.910105 253.43008 
z
" clip-path="url(#p8f60e76c8e)" style="fill: #4477aa; opacity: 0.7; stroke: #000000; stroke-width: 0.25; stroke-linejoin: miter"/>
   </g>
   <g id="patch_102">
    <path d="M 191.088891 285.84 
L 192.267677 285.84 
L 192.267677 257.531335 
L 191.088891 257.531335 
z
" clip-path="url(#p8f60e76c8e)" style="fill: #4477aa; opacity: 0.7; stroke: #000000; stroke-width: 0.25; stroke-linejoin: miter"/>
   </g>
   <g id="patch_103">
    <path d="M 192.267677 285.84 
L 193.446464 285.84 
L 193.446464 262.369179 
L 192.267677 262.369179 
z
" clip-path="url(#p8f60e76c8e)" style="fill: #4477aa; opacity: 0.7; stroke: #000000; stroke-width: 0.25; stroke-linejoin: miter"/>
   </g>
   <g id="patch_104">
    <path d="M 193.446464 285.84 
L 194.62525 285.84 
L 194.62525 266.588653 
L 193.446464 266.588653 
z
" clip-path="url(#p8f60e76c8e)" style="fill: #4477aa; opacity: 0.7; stroke: #000000; stroke-width: 0.25; stroke-linejoin: miter"/>
   </g>
   <g id="patch_105">
    <path d="M 194.62525 285.84 
L 195.804037 285.84 
L 195.804037 269.998788 
L 194.62525 269.998788 
z
" clip-path="url(#p8f60e76c8e)" style="fill: #4477aa; opacity: 0.7; stroke: #000000; stroke-width: 0.25; stroke-linejoin: miter"/>
   </g>
   <g id="patch_106">
    <path d="M 195.804037 285.84 
L 196.982823 285.84 
L 196.982823 273.854513 
L 195.804037 273.854513 
z
" clip-path="url(#p8f60e76c8e)" style="fill: #4477aa; opacity: 0.7; stroke: #000000; stroke-width: 0.25; stroke-linejoin: miter"/>
   </g>
   <g id="patch_107">
    <path d="M 196.982823 285.84 
L 198.16161 285.84 
L 198.16161 276.518965 
L 196.982823 276.518965 
z
" clip-path="url(#p8f60e76c8e)" style="fill: #4477aa; opacity: 0.7; stroke: #000000; stroke-width: 0.25; stroke-linejoin: miter"/>
   </g>
   <g id="patch_108">
    <path d="M 198.16161 285.84 
L 199.340396 285.84 
L 199.340396 278.810576 
L 198.16161 278.810576 
z
" clip-path="url(#p8f60e76c8e)" style="fill: #4477aa; opacity: 0.7; stroke: #000000; stroke-width: 0.25; stroke-linejoin: miter"/>
   </g>
   <g id="patch_109">
    <path d="M 199.340396 285.84 
L 200.519182 285.84 
L 200.519182 280.320129 
L 199.340396 280.320129 
z
" clip-path="url(#p8f60e76c8e)" style="fill: #4477aa; opacity: 0.7; stroke: #000000; stroke-width: 0.25; stroke-linejoin: miter"/>
   </g>
   <g id="patch_110">
    <path d="M 200.519182 285.84 
L 201.697969 285.84 
L 201.697969 281.602339 
L 200.519182 281.602339 
z
" clip-path="url(#p8f60e76c8e)" style="fill: #4477aa; opacity: 0.7; stroke: #000000; stroke-width: 0.25; stroke-linejoin: miter"/>
   </g>
   <g id="patch_111">
    <path d="M 201.697969 285.84 
L 202.876755 285.84 
L 202.876755 282.88455 
L 201.697969 282.88455 
z
" clip-path="url(#p8f60e76c8e)" style="fill: #4477aa; opacity: 0.7; stroke: #000000; stroke-width: 0.25; stroke-linejoin: miter"/>
   </g>
   <g id="patch_112">
    <path d="M 202.876755 285.84 
L 204.055542 285.84 
L 204.055542 283.539296 
L 202.876755 283.539296 
z
" clip-path="url(#p8f60e76c8e)" style="fill: #4477aa; opacity: 0.7; stroke: #000000; stroke-width: 0.25; stroke-linejoin: miter"/>
   </g>
   <g id="patch_113">
    <path d="M 204.055542 285.84 
L 205.234328 285.84 
L 205.234328 284.212229 
L 204.055542 284.212229 
z
" clip-path="url(#p8f60e76c8e)" style="fill: #4477aa; opacity: 0.7; stroke: #000000; stroke-width: 0.25; stroke-linejoin: miter"/>
   </g>
   <g id="patch_114">
    <path d="M 205.234328 285.84 
L 206.413115 285.84 
L 206.413115 284.748757 
L 205.234328 284.748757 
z
" clip-path="url(#p8f60e76c8e)" style="fill: #4477aa; opacity: 0.7; stroke: #000000; stroke-width: 0.25; stroke-linejoin: miter"/>
   </g>
   <g id="patch_115">
    <path d="M 206.413115 285.84 
L 207.591901 285.84 
L 207.591901 285.230723 
L 206.413115 285.230723 
z
" clip-path="url(#p8f60e76c8e)" style="fill: #4477aa; opacity: 0.7; stroke: #000000; stroke-width: 0.25; stroke-linejoin: miter"/>
   </g>
   <g id="patch_116">
    <path d="M 207.591901 285.84 
L 208.770687 285.84 
L 208.770687 285.339847 
L 207.591901 285.339847 
z
" clip-path="url(#p8f60e76c8e)" style="fill: #4477aa; opacity: 0.7; stroke: #000000; stroke-width: 0.25; stroke-linejoin: miter"/>
   </g>
   <g id="patch_117">
    <path d="M 208.770687 285.84 
L 209.949474 285.84 
L 209.949474 285.530814 
L 208.770687 285.530814 
z
" clip-path="url(#p8f60e76c8e)" style="fill: #4477aa; opacity: 0.7; stroke: #000000; stroke-width: 0.25; stroke-linejoin: miter"/>
   </g>
   <g id="patch_118">
    <path d="M 209.949474 285.84 
L 211.12826 285.84 
L 211.12826 285.66722 
L 209.949474 285.66722 
z
" clip-path="url(#p8f60e76c8e)" style="fill: #4477aa; opacity: 0.7; stroke: #000000; stroke-width: 0.25; stroke-linejoin: miter"/>
   </g>
   <g id="patch_119">
    <path d="M 211.12826 285.84 
L 212.307047 285.84 
L 212.307047 285.739969 
L 211.12826 285.739969 
z
" clip-path="url(#p8f60e76c8e)" style="fill: #4477aa; opacity: 0.7; stroke: #000000; stroke-width: 0.25; stroke-linejoin: miter"/>
   </g>
   <g id="patch_120">
    <path d="M 212.307047 285.84 
L 213.485833 285.84 
L 213.485833 285.803625 
L 212.307047 285.803625 
z
" clip-path="url(#p8f60e76c8e)" style="fill: #4477aa; opacity: 0.7; stroke: #000000; stroke-width: 0.25; stroke-linejoin: miter"/>
   </g>
   <g id="patch_121">
    <path d="M 213.485833 285.84 
L 214.66462 285.84 
L 214.66462 285.776344 
L 213.485833 285.776344 
z
" clip-path="url(#p8f60e76c8e)" style="fill: #4477aa; opacity: 0.7; stroke: #000000; stroke-width: 0.25; stroke-linejoin: miter"/>
   </g>
   <g id="patch_122">
    <path d="M 214.66462 285.84 
L 215.843406 285.84 
L 215.843406 285.812719 
L 214.66462 285.812719 
z
" clip-path="url(#p8f60e76c8e)" style="fill: #4477aa; opacity: 0.7; stroke: #000000; stroke-width: 0.25; stroke-linejoin: miter"/>
   </g>
   <g id="matplotlib.axis_1">
    <g id="xtick_1">
     <g id="line2d_1">
      <defs>
       <path id="m6e708b942c" d="M 0 0 
L 0 4 
" style="stroke: #000000; stroke-width: 0.8"/>
      </defs>
      <g>
       <use xlink:href="#m6e708b942c" x="55.533618" y="285.84" style="stroke: #000000; stroke-width: 0.8"/>
      </g>
     </g>
     <g id="text_1">
      <text style="font-size: 10px; font-family: 'Liberation Sans', 'DejaVu Sans', sans-serif; text-anchor: middle" x="55.533618" y="300.586875" transform="rotate(-0 55.533618 300.586875)">17.5</text>
     </g>
    </g>
    <g id="xtick_2">
     <g id="line2d_2">
      <g>
       <use xlink:href="#m6e708b942c" x="114.270461" y="285.84" style="stroke: #000000; stroke-width: 0.8"/>
      </g>
     </g>
     <g id="text_2">
      <text style="font-size: 10px; font-family: 'Liberation Sans', 'DejaVu Sans', sans-serif; text-anchor: middle" x="114.270461" y="300.586875" transform="rotate(-0 114.270461 300.586875)">20.0</text>
     </g>
    </g>
    <g id="xtick_3">
     <g id="line2d_3">
      <g>
       <use xlink:href="#m6e708b942c" x="173.007303" y="285.84" style="stroke: #000000; stroke-width: 0.8"/>
      </g>
     </g>
     <g id="text_3">
      <text style="font-size: 10px; font-family: 'Liberation Sans', 'DejaVu Sans', sans-serif; text-anchor: middle" x="173.007303" y="300.586875" transform="rotate(-0 173.007303 300.586875)">22.5</text>
     </g>
    </g>
    <g id="xtick_4">
     <g id="line2d_4">
      <g>
       <use xlink:href="#m6e708b942c" x="231.744145" y="285.84" style="stroke: #000000; stroke-width: 0.8"/>
      </g>
     </g>
     <g id="text_4">
      <text style="font-size: 10px; font-family: 'Liberation Sans', 'DejaVu Sans', sans-serif; text-anchor: middle" x="231.744145" y="300.586875" transform="rotate(-0 231.744145 300.586875)">25.0</text>
     </g>
    </g>
    <g id="xtick_5">
     <g id="line2d_5">
      <g>
       <use xlink:href="#m6e708b942c" x="290.480987" y="285.84" style="stroke: #000000; stroke-width: 0.8"/>
      </g>
     </g>
     <g id="text_5">
      <text style="font-size: 10px; font-family: 'Liberation Sans', 'DejaVu Sans', sans-serif; text-anchor: middle" x="290.480987" y="300.586875" transform="rotate(-0 290.480987 300.586875)">27.5</text>
     </g>
    </g>
    <g id="xtick_6">
     <g id="line2d_6">
      <g>
       <use xlink:href="#m6e708b942c" x="349.217829" y="285.84" style="stroke: #000000; stroke-width: 0.8"/>
      </g>
     </g>
     <g id="text_6">
      <text style="font-size: 10px; font-family: 'Liberation Sans', 'DejaVu Sans', sans-serif; text-anchor: middle" x="349.217829" y="300.586875" transform="rotate(-0 349.217829 300.586875)">30.0</text>
     </g>
    </g>
    <g id="xtick_7">
     <g id="line2d_7">
      <g>
       <use xlink:href="#m6e708b942c" x="407.954671" y="285.84" style="stroke: #000000; stroke-width: 0.8"/>
      </g>
     </g>
     <g id="text_7">
      <text style="font-size: 10px; font-family: 'Liberation Sans', 'DejaVu Sans', sans-serif; text-anchor: middle" x="407.954671" y="300.586875" transform="rotate(-0 407.954671 300.586875)">32.5</text>
     </g>
    </g>
    <g id="xtick_8">
     <g id="line2d_8">
      <g>
       <use xlink:href="#m6e708b942c" x="466.691513" y="285.84" style="stroke: #000000; stroke-width: 0.8"/>
      </g>
     </g>
     <g id="text_8">
      <text style="font-size: 10px; font-family: 'Liberation Sans', 'DejaVu Sans', sans-serif; text-anchor: middle" x="466.691513" y="300.586875" transform="rotate(-0 466.691513 300.586875)">35.0</text>
     </g>
    </g>
    <g id="text_9">
     <!-- Noise distortion $D$ -->
     <g transform="translate(219.34625 315.358125)">
      <text>
       <tspan x="0" y="-0.25" style="font-size: 12px; font-family: 'Liberation Sans'">N</tspan>
       <tspan x="8.666016" y="-0.25" style="font-size: 12px; font-family: 'Liberation Sans'">o</tspan>
       <tspan x="15.339844" y="-0.25" style="font-size: 12px; font-family: 'Liberation Sans'">i</tspan>
       <tspan x="18.005859" y="-0.25" style="font-size: 12px; font-family: 'Liberation Sans'">s</tspan>
       <tspan x="24.005859" y="-0.25" style="font-size: 12px; font-family: 'Liberation Sans'">e</tspan>
       <tspan x="30.679688" y="-0.25" style="font-size: 12px; font-family: 'Liberation Sans'"> </tspan>
       <tspan x="34.013672" y="-0.25" style="font-size: 12px; font-family: 'Liberation Sans'">d</tspan>
       <tspan x="40.6875" y="-0.25" style="font-size: 12px; font-family: 'Liberation Sans'">i</tspan>
       <tspan x="43.353516" y="-0.25" style="font-size: 12px; font-family: 'Liberation Sans'">s</tspan>
       <tspan x="49.353516" y="-0.25" style="font-size: 12px; font-family: 'Liberation Sans'">t</tspan>
       <tspan x="52.6875" y="-0.25" style="font-size: 12px; font-family: 'Liberation Sans'">o</tspan>
       <tspan x="59.361328" y="-0.25" style="font-size: 12px; font-family: 'Liberation Sans'">r</tspan>
       <tspan x="63.357422" y="-0.25" style="font-size: 12px; font-family: 'Liberation Sans'">t</tspan>
       <tspan x="66.691406" y="-0.25" style="font-size: 12px; font-family: 'Liberation Sans'">i</tspan>
       <tspan x="69.357422" y="-0.25" style="font-size: 12px; font-family: 'Liberation Sans'">o</tspan>
       <tspan x="76.03125" y="-0.25" style="font-size: 12px; font-family: 'Liberation Sans'">n</tspan>
       <tspan x="82.705078" y="-0.25" style="font-size: 12px; font-family: 'Liberation Sans'"> </tspan>
       <tspan x="86.039062" y="-0.25" style="font-style: oblique; font-size: 12px; font-family: 'DejaVu Sans'">D</tspan>
      </text>
     </g>
    </g>
   </g>
   <g id="matplotlib.axis_2">
    <g id="ytick_1">
     <g id="line2d_9">
      <defs>
       <path id="m2074fcf887" d="M 0 0 
L -4 0 
" style="stroke: #000000; stroke-width: 0.8"/>
      </defs>
      <g>
       <use xlink:href="#m2074fcf887" x="43.78625" y="285.84" style="stroke: #000000; stroke-width: 0.8"/>
      </g>
     </g>
     <g id="text_10">
      <text style="font-size: 10px; font-family: 'Liberation Sans', 'DejaVu Sans', sans-serif; text-anchor: end" x="36.28625" y="289.463437" transform="rotate(-0 36.28625 289.463437)">0.0</text>
     </g>
    </g>
    <g id="ytick_2">
     <g id="line2d_10">
      <g>
       <use xlink:href="#m2074fcf887" x="43.78625" y="240.214797" style="stroke: #000000; stroke-width: 0.8"/>
      </g>
     </g>
     <g id="text_11">
      <text style="font-size: 10px; font-family: 'Liberation Sans', 'DejaVu Sans', sans-serif; text-anchor: end" x="36.28625" y="243.838234" transform="rotate(-0 36.28625 243.838234)">0.1</text>
     </g>
    </g>
    <g id="ytick_3">
     <g id="line2d_11">
      <g>
       <use xlink:href="#m2074fcf887" x="43.78625" y="194.589594" style="stroke: #000000; stroke-width: 0.8"/>
      </g>
     </g>
     <g id="text_12">
      <text style="font-size: 10px; font-family: 'Liberation Sans', 'DejaVu Sans', sans-serif; text-anchor: end" x="36.28625" y="198.213031" transform="rotate(-0 36.28625 198.213031)">0.2</text>
     </g>
    </g>
    <g id="ytick_4">
     <g id="line2d_12">
      <g>
       <use xlink:href="#m2074fcf887" x="43.78625" y="148.964391" style="stroke: #000000; stroke-width: 0.8"/>
      </g>
     </g>
     <g id="text_13">
      <text style="font-size: 10px; font-family: 'Liberation Sans', 'DejaVu Sans', sans-serif; text-anchor: end" x="36.28625" y="152.587828" transform="rotate(-0 36.28625 152.587828)">0.3</text>
     </g>
    </g>
    <g id="ytick_5">
     <g id="line2d_13">
      <g>
       <use xlink:href="#m2074fcf887" x="43.78625" y="103.339188" style="stroke: #000000; stroke-width: 0.8"/>
      </g>
     </g>
     <g id="text_14">
      <text style="font-size: 10px; font-family: 'Liberation Sans', 'DejaVu Sans', sans-serif; text-anchor: end" x="36.28625" y="106.962625" transform="rotate(-0 36.28625 106.962625)">0.4</text>
     </g>
    </g>
    <g id="ytick_6">
     <g id="line2d_14">
      <g>
       <use xlink:href="#m2074fcf887" x="43.78625" y="57.713985" style="stroke: #000000; stroke-width: 0.8"/>
      </g>
     </g>
     <g id="text_15">
      <text style="font-size: 10px; font-family: 'Liberation Sans', 'DejaVu Sans', sans-serif; text-anchor: end" x="36.28625" y="61.337422" transform="rotate(-0 36.28625 61.337422)">0.5</text>
     </g>
    </g>
    <g id="text_16">
     <text style="font-size: 12px; font-family: 'Liberation Sans', 'DejaVu Sans', sans-serif; text-anchor: middle" x="15.89625" y="161.1" transform="rotate(-90 15.89625 161.1)">Density</text>
    </g>
   </g>
   <g id="patch_123">
    <path d="M 43.78625 285.84 
L 43.78625 36.36 
" style="fill: none; stroke: #000000; stroke-width: 0.8; stroke-linejoin: miter; stroke-linecap: square"/>
   </g>
   <g id="patch_124">
    <path d="M 43.78625 285.84 
L 490.18625 285.84 
" style="fill: none; stroke: #000000; stroke-width: 0.8; stroke-linejoin: miter; stroke-linecap: square"/>
   </g>
   <g id="line2d_15">
    <path d="M 74.389035 285.84 
L 74.389035 36.36 
" clip-path="url(#p8f60e76c8e)" style="fill: none; stroke-dasharray: 3.7,1.6; stroke-dashoffset: 0; stroke: #808080"/>
   </g>
   <g id="line2d_16">
    <path d="M 89.302576 285.84 
L 89.302576 36.36 
" clip-path="url(#p8f60e76c8e)" style="fill: none; stroke: #cc6677; stroke-width: 1.6; stroke-linecap: square"/>
   </g>
   <g id="legend_1">
    <g id="line2d_17">
     <path d="M 359.104062 47.832187 
L 368.104062 47.832187 
L 377.104062 47.832187 
" style="fill: none; stroke: #cc6677; stroke-width: 1.6; stroke-linecap: square"/>
    </g>
    <g id="text_17">
     <text style="font-size: 9px; font-family: 'Liberation Sans', 'DejaVu Sans', sans-serif; text-anchor: start" x="384.304062" y="50.982187" transform="rotate(-0 384.304062 50.982187)">SGC observed (z = -3.8)</text>
    </g>
    <g id="line2d_18">
     <path d="M 359.104062 60.721875 
L 368.104062 60.721875 
L 377.104062 60.721875 
" style="fill: none; stroke-dasharray: 3.7,1.6; stroke-dashoffset: 0; stroke: #808080"/>
    </g>
    <g id="text_18">
     <text style="font-size: 9px; font-family: 'Liberation Sans', 'DejaVu Sans', sans-serif; text-anchor: start" x="384.304062" y="63.871875" transform="rotate(-0 384.304062 63.871875)">null minimum = 18.30</text>
    </g>
   </g>
  </g>
  <g id="text_19">
   <!-- A: Condition A — 10 AA, $n$ = 2 (doublet) -->
   <g transform="translate(153.04625 15.96)">
    <text>
     <tspan x="0" y="-0.296875" style="font-size: 12px; font-family: 'Liberation Sans'">A</tspan>
     <tspan x="8.003906" y="-0.296875" style="font-size: 12px; font-family: 'Liberation Sans'">:</tspan>
     <tspan x="11.337891" y="-0.296875" style="font-size: 12px; font-family: 'Liberation Sans'"> </tspan>
     <tspan x="14.671875" y="-0.296875" style="font-size: 12px; font-family: 'Liberation Sans'">C</tspan>
     <tspan x="23.337891" y="-0.296875" style="font-size: 12px; font-family: 'Liberation Sans'">o</tspan>
     <tspan x="30.011719" y="-0.296875" style="font-size: 12px; font-family: 'Liberation Sans'">n</tspan>
     <tspan x="36.685547" y="-0.296875" style="font-size: 12px; font-family: 'Liberation Sans'">d</tspan>
     <tspan x="43.359375" y="-0.296875" style="font-size: 12px; font-family: 'Liberation Sans'">i</tspan>
     <tspan x="46.025391" y="-0.296875" style="font-size: 12px; font-family: 'Liberation Sans'">t</tspan>
     <tspan x="49.359375" y="-0.296875" style="font-size: 12px; font-family: 'Liberation Sans'">i</tspan>
     <tspan x="52.025391" y="-0.296875" style="font-size: 12px; font-family: 'Liberation Sans'">o</tspan>
     <tspan x="58.699219" y="-0.296875" style="font-size: 12px; font-family: 'Liberation Sans'">n</tspan>
     <tspan x="65.373047" y="-0.296875" style="font-size: 12px; font-family: 'Liberation Sans'"> </tspan>
     <tspan x="68.707031" y="-0.296875" style="font-size: 12px; font-family: 'Liberation Sans'">A</tspan>
     <tspan x="76.710938" y="-0.296875" style="font-size: 12px; font-family: 'Liberation Sans'"> </tspan>
     <tspan x="92.044922" y="-0.296875" style="font-size: 12px; font-family: 'Liberation Sans'"> </tspan>
     <tspan x="95.378906" y="-0.296875" style="font-size: 12px; font-family: 'Liberation Sans'">1</tspan>
     <tspan x="102.052734" y="-0.296875" style="font-size: 12px; font-family: 'Liberation Sans'">0</tspan>
     <tspan x="108.726562" y="-0.296875" style="font-size: 12px; font-family: 'Liberation Sans'"> </tspan>
     <tspan x="112.060547" y="-0.296875" style="font-size: 12px; font-family: 'Liberation Sans'">A</tspan>
     <tspan x="120.064453" y="-0.296875" style="font-size: 12px; font-family: 'Liberation Sans'">A</tspan>
     <tspan x="128.068359" y="-0.296875" style="font-size: 12px; font-family: 'Liberation Sans'">,</tspan>
     <tspan x="131.402344" y="-0.296875" style="font-size: 12px; font-family: 'Liberation Sans'"> </tspan>
     <tspan x="142.341797" y="-0.296875" style="font-size: 12px; font-family: 'Liberation Sans'"> </tspan>
     <tspan x="145.675781" y="-0.296875" style="font-size: 12px; font-family: 'Liberation Sans'">=</tspan>
     <tspan x="152.683594" y="-0.296875" style="font-size: 12px; font-family: 'Liberation Sans'"> </tspan>
     <tspan x="156.017578" y="-0.296875" style="font-size: 12px; font-family: 'Liberation Sans'">2</tspan>
     <tspan x="162.691406" y="-0.296875" style="font-size: 12px; font-family: 'Liberation Sans'"> </tspan>
     <tspan x="166.025391" y="-0.296875" style="font-size: 12px; font-family: 'Liberation Sans'">(</tspan>
     <tspan x="170.021484" y="-0.296875" style="font-size: 12px; font-family: 'Liberation Sans'">d</tspan>
     <tspan x="176.695312" y="-0.296875" style="font-size: 12px; font-family: 'Liberation Sans'">o</tspan>
     <tspan x="183.369141" y="-0.296875" style="font-size: 12px; font-family: 'Liberation Sans'">u</tspan>
     <tspan x="190.042969" y="-0.296875" style="font-size: 12px; font-family: 'Liberation Sans'">b</tspan>
     <tspan x="196.716797" y="-0.296875" style="font-size: 12px; font-family: 'Liberation Sans'">l</tspan>
     <tspan x="199.382812" y="-0.296875" style="font-size: 12px; font-family: 'Liberation Sans'">e</tspan>
     <tspan x="206.056641" y="-0.296875" style="font-size: 12px; font-family: 'Liberation Sans'">t</tspan>
     <tspan x="209.390625" y="-0.296875" style="font-size: 12px; font-family: 'Liberation Sans'">)</tspan>
     <tspan x="80.044922" y="-0.296875" style="font-size: 12px; font-family: 'DejaVu Sans Display'">—</tspan>
     <tspan x="134.736328" y="-0.296875" style="font-style: oblique; font-size: 12px; font-family: 'DejaVu Sans'">n</tspan>
    </text>
   </g>
  </g>
 </g>
 <defs>
  <clipPath id="p8f60e76c8e">
   <rect x="43.78625" y="36.36" width="446.4" height="249.48"/>
  </clipPath>
 </defs>
</svg>
