<?xml version="1.0" encoding="utf-8" standalone="no"?>
<!DOCTYPE svg PUBLIC "-//W3C//DTD SVG 1.1//EN"
  "http://www.w3.org/Graphics/SVG/1.1/DTD/svg11.dtd">
<svg xmlns:xlink="http://www.w3.org/1999/xlink" width="497.38625pt" height="325.048125pt" viewBox="0 0 497.38625 325.048125" xmlns="http://www.w3.org/2000/svg" version="1.1">
 <metadata>
  <rdf:RDF xmlns:dc="http://purl.org/dc/elements/1.1/" xmlns:cc="http://creativecommons.org/ns#" xmlns:rdf="http://www.w3.org/1999/02/22-rdf-syntax-ns#">
   <cc:Work>
    <dc:type rdf:resource="http://purl.org/dc/dcmitype/StillImage"/>
    <dc:date>2026-04-23T13:12:58.152421</dc:date>
    <dc:format>image/svg+xml</dc:format>
    <dc:creator>
     <cc:Agent>
      <dc:title>Matplotlib v3.10.7, https://matplotlib.org/</dc:title>
     </cc:Agent>
    </dc:creator>
   </cc:Work>
  </rdf:RDF>
 </metadata>
 <defs>
  <style type="text/css">*{stroke-linejoin: round; stroke-linecap: butt}</style>
 </defs>
 <g id="figure_1">
  <g id="patch_1">
   <path d="M 0 325.048125 
L 497.38625 325.048125 
L 497.38625 0 
L 0 0 
z
" style="fill: #ffffff"/>
  </g>
  <g id="axes_1">
   <g id="patch_2">
    <path d="M 43.78625 285.84 
L 490.18625 285.84 
L 490.18625 36.36 
L 43.78625 36.36 
z
" style="fill: #ffffff"/>
   </g>
   <g id="patch_3">
    <path d="M 288.120632 285.84 
L 289.352887 285.84 
L 289.352887 285.825235 
L 288.120632 285.825235 
z
" clip-path="url(#p6b01d46e1e)" style="fill: #228833; opacity: 0.7; stroke: #000000; stroke-width: 0.25; stroke-linejoin: miter"/>
   </g>
   <g id="patch_4">
    <path d="M 289.352887 285.84 
L 290.585141 285.84 
L 290.585141 285.832618 
L 289.352887 285.832618 
z
" clip-path="url(#p6b01d46e1e)" style="fill: #228833; opacity: 0.7; stroke: #000000; stroke-width: 0.25; stroke-linejoin: miter"/>
   </g>
   <g id="patch_5">
    <path d="M 290.585141 285.84 
L 291.817396 285.84 
L 291.817396 285.84 
L 290.585141 285.84 
z
" clip-path="url(#p6b01d46e1e)" style="fill: #228833; opacity: 0.7; stroke: #000000; stroke-width: 0.25; stroke-linejoin: miter"/>
   </g>
   <g id="patch_6">
    <path d="M 291.817396 285.84 
L 293.04965 285.84 
L 293.04965 285.84 
L 291.817396 285.84 
z
" clip-path="url(#p6b01d46e1e)" style="fill: #228833; opacity: 0.7; stroke: #000000; stroke-width: 0.25; stroke-linejoin: miter"/>
   </g>
   <g id="patch_7">
    <path d="M 293.04965 285.84 
L 294.281905 285.84 
L 294.281905 285.832618 
L 293.04965 285.832618 
z
" clip-path="url(#p6b01d46e1e)" style="fill: #228833; opacity: 0.7; stroke: #000000; stroke-width: 0.25; stroke-linejoin: miter"/>
   </g>
   <g id="patch_8">
    <path d="M 294.281905 285.84 
L 295.514159 285.84 
L 295.514159 285.825235 
L 294.281905 285.825235 
z
" clip-path="url(#p6b01d46e1e)" style="fill: #228833; opacity: 0.7; stroke: #000000; stroke-width: 0.25; stroke-linejoin: miter"/>
   </g>
   <g id="patch_9">
    <path d="M 295.514159 285.84 
L 296.746414 285.84 
L 296.746414 285.817853 
L 295.514159 285.817853 
z
" clip-path="url(#p6b01d46e1e)" style="fill: #228833; opacity: 0.7; stroke: #000000; stroke-width: 0.25; stroke-linejoin: miter"/>
   </g>
   <g id="patch_10">
    <path d="M 296.746414 285.84 
L 297.978669 285.84 
L 297.978669 285.810471 
L 296.746414 285.810471 
z
" clip-path="url(#p6b01d46e1e)" style="fill: #228833; opacity: 0.7; stroke: #000000; stroke-width: 0.25; stroke-linejoin: miter"/>
   </g>
   <g id="patch_11">
    <path d="M 297.978669 285.84 
L 299.210923 285.84 
L 299.210923 285.795706 
L 297.978669 285.795706 
z
" clip-path="url(#p6b01d46e1e)" style="fill: #228833; opacity: 0.7; stroke: #000000; stroke-width: 0.25; stroke-linejoin: miter"/>
   </g>
   <g id="patch_12">
    <path d="M 299.210923 285.84 
L 300.443178 285.84 
L 300.443178 285.817853 
L 299.210923 285.817853 
z
" clip-path="url(#p6b01d46e1e)" style="fill: #228833; opacity: 0.7; stroke: #000000; stroke-width: 0.25; stroke-linejoin: miter"/>
   </g>
   <g id="patch_13">
    <path d="M 300.443178 285.84 
L 301.675432 285.84 
L 301.675432 285.788324 
L 300.443178 285.788324 
z
" clip-path="url(#p6b01d46e1e)" style="fill: #228833; opacity: 0.7; stroke: #000000; stroke-width: 0.25; stroke-linejoin: miter"/>
   </g>
   <g id="patch_14">
    <path d="M 301.675432 285.84 
L 302.907687 285.84 
L 302.907687 285.758794 
L 301.675432 285.758794 
z
" clip-path="url(#p6b01d46e1e)" style="fill: #228833; opacity: 0.7; stroke: #000000; stroke-width: 0.25; stroke-linejoin: miter"/>
   </g>
   <g id="patch_15">
    <path d="M 302.907687 285.84 
L 304.139941 285.84 
L 304.139941 285.751412 
L 302.907687 285.751412 
z
" clip-path="url(#p6b01d46e1e)" style="fill: #228833; opacity: 0.7; stroke: #000000; stroke-width: 0.25; stroke-linejoin: miter"/>
   </g>
   <g id="patch_16">
    <path d="M 304.139941 285.84 
L 305.372196 285.84 
L 305.372196 285.736648 
L 304.139941 285.736648 
z
" clip-path="url(#p6b01d46e1e)" style="fill: #228833; opacity: 0.7; stroke: #000000; stroke-width: 0.25; stroke-linejoin: miter"/>
   </g>
   <g id="patch_17">
    <path d="M 305.372196 285.84 
L 306.60445 285.84 
L 306.60445 285.64806 
L 305.372196 285.64806 
z
" clip-path="url(#p6b01d46e1e)" style="fill: #228833; opacity: 0.7; stroke: #000000; stroke-width: 0.25; stroke-linejoin: miter"/>
   </g>
   <g id="patch_18">
    <path d="M 306.60445 285.84 
L 307.836705 285.84 
L 307.836705 285.699736 
L 306.60445 285.699736 
z
" clip-path="url(#p6b01d46e1e)" style="fill: #228833; opacity: 0.7; stroke: #000000; stroke-width: 0.25; stroke-linejoin: miter"/>
   </g>
   <g id="patch_19">
    <path d="M 307.836705 285.84 
L 309.068959 285.84 
L 309.068959 285.611148 
L 307.836705 285.611148 
z
" clip-path="url(#p6b01d46e1e)" style="fill: #228833; opacity: 0.7; stroke: #000000; stroke-width: 0.25; stroke-linejoin: miter"/>
   </g>
   <g id="patch_20">
    <path d="M 309.068959 285.84 
L 310.301214 285.84 
L 310.301214 285.566854 
L 309.068959 285.566854 
z
" clip-path="url(#p6b01d46e1e)" style="fill: #228833; opacity: 0.7; stroke: #000000; stroke-width: 0.25; stroke-linejoin: miter"/>
   </g>
   <g id="patch_21">
    <path d="M 310.301214 285.84 
L 311.533468 285.84 
L 311.533468 285.463502 
L 310.301214 285.463502 
z
" clip-path="url(#p6b01d46e1e)" style="fill: #228833; opacity: 0.7; stroke: #000000; stroke-width: 0.25; stroke-linejoin: miter"/>
   </g>
   <g id="patch_22">
    <path d="M 311.533468 285.84 
L 312.765723 285.84 
L 312.765723 285.433972 
L 311.533468 285.433972 
z
" clip-path="url(#p6b01d46e1e)" style="fill: #228833; opacity: 0.7; stroke: #000000; stroke-width: 0.25; stroke-linejoin: miter"/>
   </g>
   <g id="patch_23">
    <path d="M 312.765723 285.84 
L 313.997977 285.84 
L 313.997977 285.382296 
L 312.765723 285.382296 
z
" clip-path="url(#p6b01d46e1e)" style="fill: #228833; opacity: 0.7; stroke: #000000; stroke-width: 0.25; stroke-linejoin: miter"/>
   </g>
   <g id="patch_24">
    <path d="M 313.997977 285.84 
L 315.230232 285.84 
L 315.230232 285.175591 
L 313.997977 285.175591 
z
" clip-path="url(#p6b01d46e1e)" style="fill: #228833; opacity: 0.7; stroke: #000000; stroke-width: 0.25; stroke-linejoin: miter"/>
   </g>
   <g id="patch_25">
    <path d="M 315.230232 285.84 
L 316.462487 285.84 
L 316.462487 285.01318 
L 315.230232 285.01318 
z
" clip-path="url(#p6b01d46e1e)" style="fill: #228833; opacity: 0.7; stroke: #000000; stroke-width: 0.25; stroke-linejoin: miter"/>
   </g>
   <g id="patch_26">
    <path d="M 316.462487 285.84 
L 317.694741 285.84 
L 317.694741 284.79171 
L 316.462487 284.79171 
z
" clip-path="url(#p6b01d46e1e)" style="fill: #228833; opacity: 0.7; stroke: #000000; stroke-width: 0.25; stroke-linejoin: miter"/>
   </g>
   <g id="patch_27">
    <path d="M 317.694741 285.84 
L 318.926996 285.84 
L 318.926996 284.5038 
L 317.694741 284.5038 
z
" clip-path="url(#p6b01d46e1e)" style="fill: #228833; opacity: 0.7; stroke: #000000; stroke-width: 0.25; stroke-linejoin: miter"/>
   </g>
   <g id="patch_28">
    <path d="M 318.926996 285.84 
L 320.15925 285.84 
L 320.15925 284.267566 
L 318.926996 284.267566 
z
" clip-path="url(#p6b01d46e1e)" style="fill: #228833; opacity: 0.7; stroke: #000000; stroke-width: 0.25; stroke-linejoin: miter"/>
   </g>
   <g id="patch_29">
    <path d="M 320.15925 285.84 
L 321.391505 285.84 
L 321.391505 283.957508 
L 320.15925 283.957508 
z
" clip-path="url(#p6b01d46e1e)" style="fill: #228833; opacity: 0.7; stroke: #000000; stroke-width: 0.25; stroke-linejoin: miter"/>
   </g>
   <g id="patch_30">
    <path d="M 321.391505 285.84 
L 322.623759 285.84 
L 322.623759 283.425981 
L 321.391505 283.425981 
z
" clip-path="url(#p6b01d46e1e)" style="fill: #228833; opacity: 0.7; stroke: #000000; stroke-width: 0.25; stroke-linejoin: miter"/>
   </g>
   <g id="patch_31">
    <path d="M 322.623759 285.84 
L 323.856014 285.84 
L 323.856014 282.879689 
L 322.623759 282.879689 
z
" clip-path="url(#p6b01d46e1e)" style="fill: #228833; opacity: 0.7; stroke: #000000; stroke-width: 0.25; stroke-linejoin: miter"/>
   </g>
   <g id="patch_32">
    <path d="M 323.856014 285.84 
L 325.088268 285.84 
L 325.088268 281.956899 
L 323.856014 281.956899 
z
" clip-path="url(#p6b01d46e1e)" style="fill: #228833; opacity: 0.7; stroke: #000000; stroke-width: 0.25; stroke-linejoin: miter"/>
   </g>
   <g id="patch_33">
    <path d="M 325.088268 285.84 
L 326.320523 285.84 
L 326.320523 281.262961 
L 325.088268 281.262961 
z
" clip-path="url(#p6b01d46e1e)" style="fill: #228833; opacity: 0.7; stroke: #000000; stroke-width: 0.25; stroke-linejoin: miter"/>
   </g>
   <g id="patch_34">
    <path d="M 326.320523 285.84 
L 327.552777 285.84 
L 327.552777 280.362318 
L 326.320523 280.362318 
z
" clip-path="url(#p6b01d46e1e)" style="fill: #228833; opacity: 0.7; stroke: #000000; stroke-width: 0.25; stroke-linejoin: miter"/>
   </g>
   <g id="patch_35">
    <path d="M 327.552777 285.84 
L 328.785032 285.84 
L 328.785032 279.12947 
L 327.552777 279.12947 
z
" clip-path="url(#p6b01d46e1e)" style="fill: #228833; opacity: 0.7; stroke: #000000; stroke-width: 0.25; stroke-linejoin: miter"/>
   </g>
   <g id="patch_36">
    <path d="M 328.785032 285.84 
L 330.017286 285.84 
L 330.017286 277.350331 
L 328.785032 277.350331 
z
" clip-path="url(#p6b01d46e1e)" style="fill: #228833; opacity: 0.7; stroke: #000000; stroke-width: 0.25; stroke-linejoin: miter"/>
   </g>
   <g id="patch_37">
    <path d="M 330.017286 285.84 
L 331.249541 285.84 
L 331.249541 276.331571 
L 330.017286 276.331571 
z
" clip-path="url(#p6b01d46e1e)" style="fill: #228833; opacity: 0.7; stroke: #000000; stroke-width: 0.25; stroke-linejoin: miter"/>
   </g>
   <g id="patch_38">
    <path d="M 331.249541 285.84 
L 332.481795 285.84 
L 332.481795 274.404785 
L 331.249541 274.404785 
z
" clip-path="url(#p6b01d46e1e)" style="fill: #228833; opacity: 0.7; stroke: #000000; stroke-width: 0.25; stroke-linejoin: miter"/>
   </g>
   <g id="patch_39">
    <path d="M 332.481795 285.84 
L 333.71405 285.84 
L 333.71405 271.857884 
L 332.481795 271.857884 
z
" clip-path="url(#p6b01d46e1e)" style="fill: #228833; opacity: 0.7; stroke: #000000; stroke-width: 0.25; stroke-linejoin: miter"/>
   </g>
   <g id="patch_40">
    <path d="M 333.71405 285.84 
L 334.946305 285.84 
L 334.946305 269.820364 
L 333.71405 269.820364 
z
" clip-path="url(#p6b01d46e1e)" style="fill: #228833; opacity: 0.7; stroke: #000000; stroke-width: 0.25; stroke-linejoin: miter"/>
   </g>
   <g id="patch_41">
    <path d="M 334.946305 285.84 
L 336.178559 285.84 
L 336.178559 266.498319 
L 334.946305 266.498319 
z
" clip-path="url(#p6b01d46e1e)" style="fill: #228833; opacity: 0.7; stroke: #000000; stroke-width: 0.25; stroke-linejoin: miter"/>
   </g>
   <g id="patch_42">
    <path d="M 336.178559 285.84 
L 337.410814 285.84 
L 337.410814 263.301774 
L 336.178559 263.301774 
z
" clip-path="url(#p6b01d46e1e)" style="fill: #228833; opacity: 0.7; stroke: #000000; stroke-width: 0.25; stroke-linejoin: miter"/>
   </g>
   <g id="patch_43">
    <path d="M 337.410814 285.84 
L 338.643068 285.84 
L 338.643068 260.223346 
L 337.410814 260.223346 
z
" clip-path="url(#p6b01d46e1e)" style="fill: #228833; opacity: 0.7; stroke: #000000; stroke-width: 0.25; stroke-linejoin: miter"/>
   </g>
   <g id="patch_44">
    <path d="M 338.643068 285.84 
L 339.875323 285.84 
L 339.875323 256.244275 
L 338.643068 256.244275 
z
" clip-path="url(#p6b01d46e1e)" style="fill: #228833; opacity: 0.7; stroke: #000000; stroke-width: 0.25; stroke-linejoin: miter"/>
   </g>
   <g id="patch_45">
    <path d="M 339.875323 285.84 
L 341.107577 285.84 
L 341.107577 250.449153 
L 339.875323 250.449153 
z
" clip-path="url(#p6b01d46e1e)" style="fill: #228833; opacity: 0.7; stroke: #000000; stroke-width: 0.25; stroke-linejoin: miter"/>
   </g>
   <g id="patch_46">
    <path d="M 341.107577 285.84 
L 342.339832 285.84 
L 342.339832 245.458704 
L 341.107577 245.458704 
z
" clip-path="url(#p6b01d46e1e)" style="fill: #228833; opacity: 0.7; stroke: #000000; stroke-width: 0.25; stroke-linejoin: miter"/>
   </g>
   <g id="patch_47">
    <path d="M 342.339832 285.84 
L 343.572086 285.84 
L 343.572086 240.342756 
L 342.339832 240.342756 
z
" clip-path="url(#p6b01d46e1e)" style="fill: #228833; opacity: 0.7; stroke: #000000; stroke-width: 0.25; stroke-linejoin: miter"/>
   </g>
   <g id="patch_48">
    <path d="M 343.572086 285.84 
L 344.804341 285.84 
L 344.804341 233.38861 
L 343.572086 233.38861 
z
" clip-path="url(#p6b01d46e1e)" style="fill: #228833; opacity: 0.7; stroke: #000000; stroke-width: 0.25; stroke-linejoin: miter"/>
   </g>
   <g id="patch_49">
    <path d="M 344.804341 285.84 
L 346.036595 285.84 
L 346.036595 227.165313 
L 344.804341 227.165313 
z
" clip-path="url(#p6b01d46e1e)" style="fill: #228833; opacity: 0.7; stroke: #000000; stroke-width: 0.25; stroke-linejoin: miter"/>
   </g>
   <g id="patch_50">
    <path d="M 346.036595 285.84 
L 347.26885 285.84 
L 347.26885 219.347435 
L 346.036595 219.347435 
z
" clip-path="url(#p6b01d46e1e)" style="fill: #228833; opacity: 0.7; stroke: #000000; stroke-width: 0.25; stroke-linejoin: miter"/>
   </g>
   <g id="patch_51">
    <path d="M 347.26885 285.84 
L 348.501104 285.84 
L 348.501104 211.854379 
L 347.26885 211.854379 
z
" clip-path="url(#p6b01d46e1e)" style="fill: #228833; opacity: 0.7; stroke: #000000; stroke-width: 0.25; stroke-linejoin: miter"/>
   </g>
   <g id="patch_52">
    <path d="M 348.501104 285.84 
L 349.733359 285.84 
L 349.733359 202.892242 
L 348.501104 202.892242 
z
" clip-path="url(#p6b01d46e1e)" style="fill: #228833; opacity: 0.7; stroke: #000000; stroke-width: 0.25; stroke-linejoin: miter"/>
   </g>
   <g id="patch_53">
    <path d="M 349.733359 285.84 
L 350.965614 285.84 
L 350.965614 193.354283 
L 349.733359 193.354283 
z
" clip-path="url(#p6b01d46e1e)" style="fill: #228833; opacity: 0.7; stroke: #000000; stroke-width: 0.25; stroke-linejoin: miter"/>
   </g>
   <g id="patch_54">
    <path d="M 350.965614 285.84 
L 352.197868 285.84 
L 352.197868 183.270033 
L 350.965614 183.270033 
z
" clip-path="url(#p6b01d46e1e)" style="fill: #228833; opacity: 0.7; stroke: #000000; stroke-width: 0.25; stroke-linejoin: miter"/>
   </g>
   <g id="patch_55">
    <path d="M 352.197868 285.84 
L 353.430123 285.84 
L 353.430123 171.916023 
L 352.197868 171.916023 
z
" clip-path="url(#p6b01d46e1e)" style="fill: #228833; opacity: 0.7; stroke: #000000; stroke-width: 0.25; stroke-linejoin: miter"/>
   </g>
   <g id="patch_56">
    <path d="M 353.430123 285.84 
L 354.662377 285.84 
L 354.662377 161.543862 
L 353.430123 161.543862 
z
" clip-path="url(#p6b01d46e1e)" style="fill: #228833; opacity: 0.7; stroke: #000000; stroke-width: 0.25; stroke-linejoin: miter"/>
   </g>
   <g id="patch_57">
    <path d="M 354.662377 285.84 
L 355.894632 285.84 
L 355.894632 151.452229 
L 354.662377 151.452229 
z
" clip-path="url(#p6b01d46e1e)" style="fill: #228833; opacity: 0.7; stroke: #000000; stroke-width: 0.25; stroke-linejoin: miter"/>
   </g>
   <g id="patch_58">
    <path d="M 355.894632 285.84 
L 357.126886 285.84 
L 357.126886 139.625751 
L 355.894632 139.625751 
z
" clip-path="url(#p6b01d46e1e)" style="fill: #228833; opacity: 0.7; stroke: #000000; stroke-width: 0.25; stroke-linejoin: miter"/>
   </g>
   <g id="patch_59">
    <path d="M 357.126886 285.84 
L 358.359141 285.84 
L 358.359141 128.670387 
L 357.126886 128.670387 
z
" clip-path="url(#p6b01d46e1e)" style="fill: #228833; opacity: 0.7; stroke: #000000; stroke-width: 0.25; stroke-linejoin: miter"/>
   </g>
   <g id="patch_60">
    <path d="M 358.359141 285.84 
L 359.591395 285.84 
L 359.591395 117.050614 
L 358.359141 117.050614 
z
" clip-path="url(#p6b01d46e1e)" style="fill: #228833; opacity: 0.7; stroke: #000000; stroke-width: 0.25; stroke-linejoin: miter"/>
   </g>
   <g id="patch_61">
    <path d="M 359.591395 285.84 
L 360.82365 285.84 
L 360.82365 108.081094 
L 359.591395 108.081094 
z
" clip-path="url(#p6b01d46e1e)" style="fill: #228833; opacity: 0.7; stroke: #000000; stroke-width: 0.25; stroke-linejoin: miter"/>
   </g>
   <g id="patch_62">
    <path d="M 360.82365 285.84 
L 362.055904 285.84 
L 362.055904 96.202939 
L 360.82365 96.202939 
z
" clip-path="url(#p6b01d46e1e)" style="fill: #228833; opacity: 0.7; stroke: #000000; stroke-width: 0.25; stroke-linejoin: miter"/>
   </g>
   <g id="patch_63">
    <path d="M 362.055904 285.84 
L 363.288159 285.84 
L 363.288159 89.04947 
L 362.055904 89.04947 
z
" clip-path="url(#p6b01d46e1e)" style="fill: #228833; opacity: 0.7; stroke: #000000; stroke-width: 0.25; stroke-linejoin: miter"/>
   </g>
   <g id="patch_64">
    <path d="M 363.288159 285.84 
L 364.520413 285.84 
L 364.520413 77.865254 
L 363.288159 77.865254 
z
" clip-path="url(#p6b01d46e1e)" style="fill: #228833; opacity: 0.7; stroke: #000000; stroke-width: 0.25; stroke-linejoin: miter"/>
   </g>
   <g id="patch_65">
    <path d="M 364.520413 285.84 
L 365.752668 285.84 
L 365.752668 70.490315 
L 364.520413 70.490315 
z
" clip-path="url(#p6b01d46e1e)" style="fill: #228833; opacity: 0.7; stroke: #000000; stroke-width: 0.25; stroke-linejoin: miter"/>
   </g>
   <g id="patch_66">
    <path d="M 365.752668 285.84 
L 366.984922 285.84 
L 366.984922 62.443586 
L 365.752668 62.443586 
z
" clip-path="url(#p6b01d46e1e)" style="fill: #228833; opacity: 0.7; stroke: #000000; stroke-width: 0.25; stroke-linejoin: miter"/>
   </g>
   <g id="patch_67">
    <path d="M 366.984922 285.84 
L 368.217177 285.84 
L 368.217177 56.028349 
L 366.984922 56.028349 
z
" clip-path="url(#p6b01d46e1e)" style="fill: #228833; opacity: 0.7; stroke: #000000; stroke-width: 0.25; stroke-linejoin: miter"/>
   </g>
   <g id="patch_68">
    <path d="M 368.217177 285.84 
L 369.449432 285.84 
L 369.449432 54.618325 
L 368.217177 54.618325 
z
" clip-path="url(#p6b01d46e1e)" style="fill: #228833; opacity: 0.7; stroke: #000000; stroke-width: 0.25; stroke-linejoin: miter"/>
   </g>
   <g id="patch_69">
    <path d="M 369.449432 285.84 
L 370.681686 285.84 
L 370.681686 50.528519 
L 369.449432 50.528519 
z
" clip-path="url(#p6b01d46e1e)" style="fill: #228833; opacity: 0.7; stroke: #000000; stroke-width: 0.25; stroke-linejoin: miter"/>
   </g>
   <g id="patch_70">
    <path d="M 370.681686 285.84 
L 371.913941 285.84 
L 371.913941 48.24 
L 370.681686 48.24 
z
" clip-path="url(#p6b01d46e1e)" style="fill: #228833; opacity: 0.7; stroke: #000000; stroke-width: 0.25; stroke-linejoin: miter"/>
   </g>
   <g id="patch_71">
    <path d="M 371.913941 285.84 
L 373.146195 285.84 
L 373.146195 48.409793 
L 371.913941 48.409793 
z
" clip-path="url(#p6b01d46e1e)" style="fill: #228833; opacity: 0.7; stroke: #000000; stroke-width: 0.25; stroke-linejoin: miter"/>
   </g>
   <g id="patch_72">
    <path d="M 373.146195 285.84 
L 374.37845 285.84 
L 374.37845 50.661401 
L 373.146195 50.661401 
z
" clip-path="url(#p6b01d46e1e)" style="fill: #228833; opacity: 0.7; stroke: #000000; stroke-width: 0.25; stroke-linejoin: miter"/>
   </g>
   <g id="patch_73">
    <path d="M 374.37845 285.84 
L 375.610704 285.84 
L 375.610704 51.93116 
L 374.37845 51.93116 
z
" clip-path="url(#p6b01d46e1e)" style="fill: #228833; opacity: 0.7; stroke: #000000; stroke-width: 0.25; stroke-linejoin: miter"/>
   </g>
   <g id="patch_74">
    <path d="M 375.610704 285.84 
L 376.842959 285.84 
L 376.842959 56.670611 
L 375.610704 56.670611 
z
" clip-path="url(#p6b01d46e1e)" style="fill: #228833; opacity: 0.7; stroke: #000000; stroke-width: 0.25; stroke-linejoin: miter"/>
   </g>
   <g id="patch_75">
    <path d="M 376.842959 285.84 
L 378.075213 285.84 
L 378.075213 61.875147 
L 376.842959 61.875147 
z
" clip-path="url(#p6b01d46e1e)" style="fill: #228833; opacity: 0.7; stroke: #000000; stroke-width: 0.25; stroke-linejoin: miter"/>
   </g>
   <g id="patch_76">
    <path d="M 378.075213 285.84 
L 379.307468 285.84 
L 379.307468 69.840671 
L 378.075213 69.840671 
z
" clip-path="url(#p6b01d46e1e)" style="fill: #228833; opacity: 0.7; stroke: #000000; stroke-width: 0.25; stroke-linejoin: miter"/>
   </g>
   <g id="patch_77">
    <path d="M 379.307468 285.84 
L 380.539722 285.84 
L 380.539722 77.259904 
L 379.307468 77.259904 
z
" clip-path="url(#p6b01d46e1e)" style="fill: #228833; opacity: 0.7; stroke: #000000; stroke-width: 0.25; stroke-linejoin: miter"/>
   </g>
   <g id="patch_78">
    <path d="M 380.539722 285.84 
L 381.771977 285.84 
L 381.771977 88.12668 
L 380.539722 88.12668 
z
" clip-path="url(#p6b01d46e1e)" style="fill: #228833; opacity: 0.7; stroke: #000000; stroke-width: 0.25; stroke-linejoin: miter"/>
   </g>
   <g id="patch_79">
    <path d="M 381.771977 285.84 
L 383.004231 285.84 
L 383.004231 102.426236 
L 381.771977 102.426236 
z
" clip-path="url(#p6b01d46e1e)" style="fill: #228833; opacity: 0.7; stroke: #000000; stroke-width: 0.25; stroke-linejoin: miter"/>
   </g>
   <g id="patch_80">
    <path d="M 383.004231 285.84 
L 384.236486 285.84 
L 384.236486 110.347466 
L 383.004231 110.347466 
z
" clip-path="url(#p6b01d46e1e)" style="fill: #228833; opacity: 0.7; stroke: #000000; stroke-width: 0.25; stroke-linejoin: miter"/>
   </g>
   <g id="patch_81">
    <path d="M 384.236486 285.84 
L 385.46874 285.84 
L 385.46874 120.439099 
L 384.236486 120.439099 
z
" clip-path="url(#p6b01d46e1e)" style="fill: #228833; opacity: 0.7; stroke: #000000; stroke-width: 0.25; stroke-linejoin: miter"/>
   </g>
   <g id="patch_82">
    <path d="M 385.46874 285.84 
L 386.700995 285.84 
L 386.700995 133.911835 
L 385.46874 133.911835 
z
" clip-path="url(#p6b01d46e1e)" style="fill: #228833; opacity: 0.7; stroke: #000000; stroke-width: 0.25; stroke-linejoin: miter"/>
   </g>
   <g id="patch_83">
    <path d="M 386.700995 285.84 
L 387.93325 285.84 
L 387.93325 147.665099 
L 386.700995 147.665099 
z
" clip-path="url(#p6b01d46e1e)" style="fill: #228833; opacity: 0.7; stroke: #000000; stroke-width: 0.25; stroke-linejoin: miter"/>
   </g>
   <g id="patch_84">
    <path d="M 387.93325 285.84 
L 389.165504 285.84 
L 389.165504 157.948672 
L 387.93325 157.948672 
z
" clip-path="url(#p6b01d46e1e)" style="fill: #228833; opacity: 0.7; stroke: #000000; stroke-width: 0.25; stroke-linejoin: miter"/>
   </g>
   <g id="patch_85">
    <path d="M 389.165504 285.84 
L 390.397759 285.84 
L 390.397759 170.033531 
L 389.165504 170.033531 
z
" clip-path="url(#p6b01d46e1e)" style="fill: #228833; opacity: 0.7; stroke: #000000; stroke-width: 0.25; stroke-linejoin: miter"/>
   </g>
   <g id="patch_86">
    <path d="M 390.397759 285.84 
L 391.630013 285.84 
L 391.630013 182.391536 
L 390.397759 182.391536 
z
" clip-path="url(#p6b01d46e1e)" style="fill: #228833; opacity: 0.7; stroke: #000000; stroke-width: 0.25; stroke-linejoin: miter"/>
   </g>
   <g id="patch_87">
    <path d="M 391.630013 285.84 
L 392.862268 285.84 
L 392.862268 195.332745 
L 391.630013 195.332745 
z
" clip-path="url(#p6b01d46e1e)" style="fill: #228833; opacity: 0.7; stroke: #000000; stroke-width: 0.25; stroke-linejoin: miter"/>
   </g>
   <g id="patch_88">
    <path d="M 392.862268 285.84 
L 394.094522 285.84 
L 394.094522 204.139854 
L 392.862268 204.139854 
z
" clip-path="url(#p6b01d46e1e)" style="fill: #228833; opacity: 0.7; stroke: #000000; stroke-width: 0.25; stroke-linejoin: miter"/>
   </g>
   <g id="patch_89">
    <path d="M 394.094522 285.84 
L 395.326777 285.84 
L 395.326777 213.914047 
L 394.094522 213.914047 
z
" clip-path="url(#p6b01d46e1e)" style="fill: #228833; opacity: 0.7; stroke: #000000; stroke-width: 0.25; stroke-linejoin: miter"/>
   </g>
   <g id="patch_90">
    <path d="M 395.326777 285.84 
L 396.559031 285.84 
L 396.559031 224.603648 
L 395.326777 224.603648 
z
" clip-path="url(#p6b01d46e1e)" style="fill: #228833; opacity: 0.7; stroke: #000000; stroke-width: 0.25; stroke-linejoin: miter"/>
   </g>
   <g id="patch_91">
    <path d="M 396.559031 285.84 
L 397.791286 285.84 
L 397.791286 232.140997 
L 396.559031 232.140997 
z
" clip-path="url(#p6b01d46e1e)" style="fill: #228833; opacity: 0.7; stroke: #000000; stroke-width: 0.25; stroke-linejoin: miter"/>
   </g>
   <g id="patch_92">
    <path d="M 397.791286 285.84 
L 399.02354 285.84 
L 399.02354 240.815224 
L 397.791286 240.815224 
z
" clip-path="url(#p6b01d46e1e)" style="fill: #228833; opacity: 0.7; stroke: #000000; stroke-width: 0.25; stroke-linejoin: miter"/>
   </g>
   <g id="patch_93">
    <path d="M 399.02354 285.84 
L 400.255795 285.84 
L 400.255795 247.584813 
L 399.02354 247.584813 
z
" clip-path="url(#p6b01d46e1e)" style="fill: #228833; opacity: 0.7; stroke: #000000; stroke-width: 0.25; stroke-linejoin: miter"/>
   </g>
   <g id="patch_94">
    <path d="M 400.255795 285.84 
L 401.488049 285.84 
L 401.488049 253.800727 
L 400.255795 253.800727 
z
" clip-path="url(#p6b01d46e1e)" style="fill: #228833; opacity: 0.7; stroke: #000000; stroke-width: 0.25; stroke-linejoin: miter"/>
   </g>
   <g id="patch_95">
    <path d="M 401.488049 285.84 
L 402.720304 285.84 
L 402.720304 259.381762 
L 401.488049 259.381762 
z
" clip-path="url(#p6b01d46e1e)" style="fill: #228833; opacity: 0.7; stroke: #000000; stroke-width: 0.25; stroke-linejoin: miter"/>
   </g>
   <g id="patch_96">
    <path d="M 402.720304 285.84 
L 403.952558 285.84 
L 403.952558 263.619214 
L 402.720304 263.619214 
z
" clip-path="url(#p6b01d46e1e)" style="fill: #228833; opacity: 0.7; stroke: #000000; stroke-width: 0.25; stroke-linejoin: miter"/>
   </g>
   <g id="patch_97">
    <path d="M 403.952558 285.84 
L 405.184813 285.84 
L 405.184813 267.531844 
L 403.952558 267.531844 
z
" clip-path="url(#p6b01d46e1e)" style="fill: #228833; opacity: 0.7; stroke: #000000; stroke-width: 0.25; stroke-linejoin: miter"/>
   </g>
   <g id="patch_98">
    <path d="M 405.184813 285.84 
L 406.417068 285.84 
L 406.417068 271.341122 
L 405.184813 271.341122 
z
" clip-path="url(#p6b01d46e1e)" style="fill: #228833; opacity: 0.7; stroke: #000000; stroke-width: 0.25; stroke-linejoin: miter"/>
   </g>
   <g id="patch_99">
    <path d="M 406.417068 285.84 
L 407.649322 285.84 
L 407.649322 274.574578 
L 406.417068 274.574578 
z
" clip-path="url(#p6b01d46e1e)" style="fill: #228833; opacity: 0.7; stroke: #000000; stroke-width: 0.25; stroke-linejoin: miter"/>
   </g>
   <g id="patch_100">
    <path d="M 407.649322 285.84 
L 408.881577 285.84 
L 408.881577 277.069803 
L 407.649322 277.069803 
z
" clip-path="url(#p6b01d46e1e)" style="fill: #228833; opacity: 0.7; stroke: #000000; stroke-width: 0.25; stroke-linejoin: miter"/>
   </g>
   <g id="patch_101">
    <path d="M 408.881577 285.84 
L 410.113831 285.84 
L 410.113831 278.450297 
L 408.881577 278.450297 
z
" clip-path="url(#p6b01d46e1e)" style="fill: #228833; opacity: 0.7; stroke: #000000; stroke-width: 0.25; stroke-linejoin: miter"/>
   </g>
   <g id="patch_102">
    <path d="M 410.113831 285.84 
L 411.346086 285.84 
L 411.346086 280.229436 
L 410.113831 280.229436 
z
" clip-path="url(#p6b01d46e1e)" style="fill: #228833; opacity: 0.7; stroke: #000000; stroke-width: 0.25; stroke-linejoin: miter"/>
   </g>
   <g id="patch_103">
    <path d="M 411.346086 285.84 
L 412.57834 285.84 
L 412.57834 281.528725 
L 411.346086 281.528725 
z
" clip-path="url(#p6b01d46e1e)" style="fill: #228833; opacity: 0.7; stroke: #000000; stroke-width: 0.25; stroke-linejoin: miter"/>
   </g>
   <g id="patch_104">
    <path d="M 412.57834 285.84 
L 413.810595 285.84 
L 413.810595 282.318633 
L 412.57834 282.318633 
z
" clip-path="url(#p6b01d46e1e)" style="fill: #228833; opacity: 0.7; stroke: #000000; stroke-width: 0.25; stroke-linejoin: miter"/>
   </g>
   <g id="patch_105">
    <path d="M 413.810595 285.84 
L 415.042849 285.84 
L 415.042849 283.330011 
L 413.810595 283.330011 
z
" clip-path="url(#p6b01d46e1e)" style="fill: #228833; opacity: 0.7; stroke: #000000; stroke-width: 0.25; stroke-linejoin: miter"/>
   </g>
   <g id="patch_106">
    <path d="M 415.042849 285.84 
L 416.275104 285.84 
L 416.275104 283.920597 
L 415.042849 283.920597 
z
" clip-path="url(#p6b01d46e1e)" style="fill: #228833; opacity: 0.7; stroke: #000000; stroke-width: 0.25; stroke-linejoin: miter"/>
   </g>
   <g id="patch_107">
    <path d="M 416.275104 285.84 
L 417.507358 285.84 
L 417.507358 284.511182 
L 416.275104 284.511182 
z
" clip-path="url(#p6b01d46e1e)" style="fill: #228833; opacity: 0.7; stroke: #000000; stroke-width: 0.25; stroke-linejoin: miter"/>
   </g>
   <g id="patch_108">
    <path d="M 417.507358 285.84 
L 418.739613 285.84 
L 418.739613 284.858151 
L 417.507358 284.858151 
z
" clip-path="url(#p6b01d46e1e)" style="fill: #228833; opacity: 0.7; stroke: #000000; stroke-width: 0.25; stroke-linejoin: miter"/>
   </g>
   <g id="patch_109">
    <path d="M 418.739613 285.84 
L 419.971867 285.84 
L 419.971867 285.123915 
L 418.739613 285.123915 
z
" clip-path="url(#p6b01d46e1e)" style="fill: #228833; opacity: 0.7; stroke: #000000; stroke-width: 0.25; stroke-linejoin: miter"/>
   </g>
   <g id="patch_110">
    <path d="M 419.971867 285.84 
L 421.204122 285.84 
L 421.204122 285.315855 
L 419.971867 285.315855 
z
" clip-path="url(#p6b01d46e1e)" style="fill: #228833; opacity: 0.7; stroke: #000000; stroke-width: 0.25; stroke-linejoin: miter"/>
   </g>
   <g id="patch_111">
    <path d="M 421.204122 285.84 
L 422.436377 285.84 
L 422.436377 285.485649 
L 421.204122 285.485649 
z
" clip-path="url(#p6b01d46e1e)" style="fill: #228833; opacity: 0.7; stroke: #000000; stroke-width: 0.25; stroke-linejoin: miter"/>
   </g>
   <g id="patch_112">
    <path d="M 422.436377 285.84 
L 423.668631 285.84 
L 423.668631 285.603766 
L 422.436377 285.603766 
z
" clip-path="url(#p6b01d46e1e)" style="fill: #228833; opacity: 0.7; stroke: #000000; stroke-width: 0.25; stroke-linejoin: miter"/>
   </g>
   <g id="patch_113">
    <path d="M 423.668631 285.84 
L 424.900886 285.84 
L 424.900886 285.611148 
L 423.668631 285.611148 
z
" clip-path="url(#p6b01d46e1e)" style="fill: #228833; opacity: 0.7; stroke: #000000; stroke-width: 0.25; stroke-linejoin: miter"/>
   </g>
   <g id="patch_114">
    <path d="M 424.900886 285.84 
L 426.13314 285.84 
L 426.13314 285.721883 
L 424.900886 285.721883 
z
" clip-path="url(#p6b01d46e1e)" style="fill: #228833; opacity: 0.7; stroke: #000000; stroke-width: 0.25; stroke-linejoin: miter"/>
   </g>
   <g id="patch_115">
    <path d="M 426.13314 285.84 
L 427.365395 285.84 
L 427.365395 285.74403 
L 426.13314 285.74403 
z
" clip-path="url(#p6b01d46e1e)" style="fill: #228833; opacity: 0.7; stroke: #000000; stroke-width: 0.25; stroke-linejoin: miter"/>
   </g>
   <g id="patch_116">
    <path d="M 427.365395 285.84 
L 428.597649 285.84 
L 428.597649 285.788324 
L 427.365395 285.788324 
z
" clip-path="url(#p6b01d46e1e)" style="fill: #228833; opacity: 0.7; stroke: #000000; stroke-width: 0.25; stroke-linejoin: miter"/>
   </g>
   <g id="patch_117">
    <path d="M 428.597649 285.84 
L 429.829904 285.84 
L 429.829904 285.817853 
L 428.597649 285.817853 
z
" clip-path="url(#p6b01d46e1e)" style="fill: #228833; opacity: 0.7; stroke: #000000; stroke-width: 0.25; stroke-linejoin: miter"/>
   </g>
   <g id="patch_118">
    <path d="M 429.829904 285.84 
L 431.062158 285.84 
L 431.062158 285.832618 
L 429.829904 285.832618 
z
" clip-path="url(#p6b01d46e1e)" style="fill: #228833; opacity: 0.7; stroke: #000000; stroke-width: 0.25; stroke-linejoin: miter"/>
   </g>
   <g id="patch_119">
    <path d="M 431.062158 285.84 
L 432.294413 285.84 
L 432.294413 285.832618 
L 431.062158 285.832618 
z
" clip-path="url(#p6b01d46e1e)" style="fill: #228833; opacity: 0.7; stroke: #000000; stroke-width: 0.25; stroke-linejoin: miter"/>
   </g>
   <g id="patch_120">
    <path d="M 432.294413 285.84 
L 433.526667 285.84 
L 433.526667 285.832618 
L 432.294413 285.832618 
z
" clip-path="url(#p6b01d46e1e)" style="fill: #228833; opacity: 0.7; stroke: #000000; stroke-width: 0.25; stroke-linejoin: miter"/>
   </g>
   <g id="patch_121">
    <path d="M 433.526667 285.84 
L 434.758922 285.84 
L 434.758922 285.832618 
L 433.526667 285.832618 
z
" clip-path="url(#p6b01d46e1e)" style="fill: #228833; opacity: 0.7; stroke: #000000; stroke-width: 0.25; stroke-linejoin: miter"/>
   </g>
   <g id="patch_122">
    <path d="M 434.758922 285.84 
L 435.991176 285.84 
L 435.991176 285.832618 
L 434.758922 285.832618 
z
" clip-path="url(#p6b01d46e1e)" style="fill: #228833; opacity: 0.7; stroke: #000000; stroke-width: 0.25; stroke-linejoin: miter"/>
   </g>
   <g id="matplotlib.axis_1">
    <g id="xtick_1">
     <g id="line2d_1">
      <defs>
       <path id="md36553b6a3" d="M 0 0 
L 0 4 
" style="stroke: #000000; stroke-width: 0.8"/>
      </defs>
      <g>
       <use xlink:href="#md36553b6a3" x="55.533618" y="285.84" style="stroke: #000000; stroke-width: 0.8"/>
      </g>
     </g>
     <g id="text_1">
      <text style="font-size: 10px; font-family: 'Liberation Sans', 'DejaVu Sans', sans-serif; text-anchor: middle" x="55.533618" y="300.586875" transform="rotate(-0 55.533618 300.586875)">17.5</text>
     </g>
    </g>
    <g id="xtick_2">
     <g id="line2d_2">
      <g>
       <use xlink:href="#md36553b6a3" x="114.270461" y="285.84" style="stroke: #000000; stroke-width: 0.8"/>
      </g>
     </g>
     <g id="text_2">
      <text style="font-size: 10px; font-family: 'Liberation Sans', 'DejaVu Sans', sans-serif; text-anchor: middle" x="114.270461" y="300.586875" transform="rotate(-0 114.270461 300.586875)">20.0</text>
     </g>
    </g>
    <g id="xtick_3">
     <g id="line2d_3">
      <g>
       <use xlink:href="#md36553b6a3" x="173.007303" y="285.84" style="stroke: #000000; stroke-width: 0.8"/>
      </g>
     </g>
     <g id="text_3">
      <text style="font-size: 10px; font-family: 'Liberation Sans', 'DejaVu Sans', sans-serif; text-anchor: middle" x="173.007303" y="300.586875" transform="rotate(-0 173.007303 300.586875)">22.5</text>
     </g>
    </g>
    <g id="xtick_4">
     <g id="line2d_4">
      <g>
       <use xlink:href="#md36553b6a3" x="231.744145" y="285.84" style="stroke: #000000; stroke-width: 0.8"/>
      </g>
     </g>
     <g id="text_4">
      <text style="font-size: 10px; font-family: 'Liberation Sans', 'DejaVu Sans', sans-serif; text-anchor: middle" x="231.744145" y="300.586875" transform="rotate(-0 231.744145 300.586875)">25.0</text>
     </g>
    </g>
    <g id="xtick_5">
     <g id="line2d_5">
      <g>
       <use xlink:href="#md36553b6a3" x="290.480987" y="285.84" style="stroke: #000000; stroke-width: 0.8"/>
      </g>
     </g>
     <g id="text_5">
      <text style="font-size: 10px; font-family: 'Liberation Sans', 'DejaVu Sans', sans-serif; text-anchor: middle" x="290.480987" y="300.586875" transform="rotate(-0 290.480987 300.586875)">27.5</text>
     </g>
    </g>
    <g id="xtick_6">
     <g id="line2d_6">
      <g>
       <use xlink:href="#md36553b6a3" x="349.217829" y="285.84" style="stroke: #000000; stroke-width: 0.8"/>
      </g>
     </g>
     <g id="text_6">
      <text style="font-size: 10px; font-family: 'Liberation Sans', 'DejaVu Sans', sans-serif; text-anchor: middle" x="349.217829" y="300.586875" transform="rotate(-0 349.217829 300.586875)">30.0</text>
     </g>
    </g>
    <g id="xtick_7">
     <g id="line2d_7">
      <g>
       <use xlink:href="#md36553b6a3" x="407.954671" y="285.84" style="stroke: #000000; stroke-width: 0.8"/>
      </g>
     </g>
     <g id="text_7">
      <text style="font-size: 10px; font-family: 'Liberation Sans', 'DejaVu Sans', sans-serif; text-anchor: middle" x="407.954671" y="300.586875" transform="rotate(-0 407.954671 300.586875)">32.5</text>
     </g>
    </g>
    <g id="xtick_8">
     <g id="line2d_8">
      <g>
       <use xlink:href="#md36553b6a3" x="466.691513" y="285.84" style="stroke: #000000; stroke-width: 0.8"/>
      </g>
     </g>
     <g id="text_8">
      <text style="font-size: 10px; font-family: 'Liberation Sans', 'DejaVu Sans', sans-serif; text-anchor: middle" x="466.691513" y="300.586875" transform="rotate(-0 466.691513 300.586875)">35.0</text>
     </g>
    </g>
    <g id="text_9">
     <!-- Noise distortion $D$ -->
     <g transform="translate(219.34625 315.358125)">
      <text>
       <tspan x="0" y="-0.25" style="font-size: 12px; font-family: 'Liberation Sans'">N</tspan>
       <tspan x="8.666016" y="-0.25" style="font-size: 12px; font-family: 'Liberation Sans'">o</tspan>
       <tspan x="15.339844" y="-0.25" style="font-size: 12px; font-family: 'Liberation Sans'">i</tspan>
       <tspan x="18.005859" y="-0.25" style="font-size: 12px; font-family: 'Liberation Sans'">s</tspan>
       <tspan x="24.005859" y="-0.25" style="font-size: 12px; font-family: 'Liberation Sans'">e</tspan>
       <tspan x="30.679688" y="-0.25" style="font-size: 12px; font-family: 'Liberation Sans'"> </tspan>
       <tspan x="34.013672" y="-0.25" style="font-size: 12px; font-family: 'Liberation Sans'">d</tspan>
       <tspan x="40.6875" y="-0.25" style="font-size: 12px; font-family: 'Liberation Sans'">i</tspan>
       <tspan x="43.353516" y="-0.25" style="font-size: 12px; font-family: 'Liberation Sans'">s</tspan>
       <tspan x="49.353516" y="-0.25" style="font-size: 12px; font-family: 'Liberation Sans'">t</tspan>
       <tspan x="52.6875" y="-0.25" style="font-size: 12px; font-family: 'Liberation Sans'">o</tspan>
       <tspan x="59.361328" y="-0.25" style="font-size: 12px; font-family: 'Liberation Sans'">r</tspan>
       <tspan x="63.357422" y="-0.25" style="font-size: 12px; font-family: 'Liberation Sans'">t</tspan>
       <tspan x="66.691406" y="-0.25" style="font-size: 12px; font-family: 'Liberation Sans'">i</tspan>
       <tspan x="69.357422" y="-0.25" style="font-size: 12px; font-family: 'Liberation Sans'">o</tspan>
       <tspan x="76.03125" y="-0.25" style="font-size: 12px; font-family: 'Liberation Sans'">n</tspan>
       <tspan x="82.705078" y="-0.25" style="font-size: 12px; font-family: 'Liberation Sans'"> </tspan>
       <tspan x="86.039062" y="-0.25" style="font-style: oblique; font-size: 12px; font-family: 'DejaVu Sans'">D</tspan>
      </text>
     </g>
    </g>
   </g>
   <g id="matplotlib.axis_2">
    <g id="ytick_1">
     <g id="line2d_9">
      <defs>
       <path id="ma50cf9d33e" d="M 0 0 
L -4 0 
" style="stroke: #000000; stroke-width: 0.8"/>
      </defs>
      <g>
       <use xlink:href="#ma50cf9d33e" x="43.78625" y="285.84" style="stroke: #000000; stroke-width: 0.8"/>
      </g>
     </g>
     <g id="text_10">
      <text style="font-size: 10px; font-family: 'Liberation Sans', 'DejaVu Sans', sans-serif; text-anchor: end" x="36.28625" y="289.463437" transform="rotate(-0 36.28625 289.463437)">0.0</text>
     </g>
    </g>
    <g id="ytick_2">
     <g id="line2d_10">
      <g>
       <use xlink:href="#ma50cf9d33e" x="43.78625" y="247.121122" style="stroke: #000000; stroke-width: 0.8"/>
      </g>
     </g>
     <g id="text_11">
      <text style="font-size: 10px; font-family: 'Liberation Sans', 'DejaVu Sans', sans-serif; text-anchor: end" x="36.28625" y="250.74456" transform="rotate(-0 36.28625 250.74456)">0.1</text>
     </g>
    </g>
    <g id="ytick_3">
     <g id="line2d_11">
      <g>
       <use xlink:href="#ma50cf9d33e" x="43.78625" y="208.402244" style="stroke: #000000; stroke-width: 0.8"/>
      </g>
     </g>
     <g id="text_12">
      <text style="font-size: 10px; font-family: 'Liberation Sans', 'DejaVu Sans', sans-serif; text-anchor: end" x="36.28625" y="212.025682" transform="rotate(-0 36.28625 212.025682)">0.2</text>
     </g>
    </g>
    <g id="ytick_4">
     <g id="line2d_12">
      <g>
       <use xlink:href="#ma50cf9d33e" x="43.78625" y="169.683366" style="stroke: #000000; stroke-width: 0.8"/>
      </g>
     </g>
     <g id="text_13">
      <text style="font-size: 10px; font-family: 'Liberation Sans', 'DejaVu Sans', sans-serif; text-anchor: end" x="36.28625" y="173.306804" transform="rotate(-0 36.28625 173.306804)">0.3</text>
     </g>
    </g>
    <g id="ytick_5">
     <g id="line2d_13">
      <g>
       <use xlink:href="#ma50cf9d33e" x="43.78625" y="130.964488" style="stroke: #000000; stroke-width: 0.8"/>
      </g>
     </g>
     <g id="text_14">
      <text style="font-size: 10px; font-family: 'Liberation Sans', 'DejaVu Sans', sans-serif; text-anchor: end" x="36.28625" y="134.587926" transform="rotate(-0 36.28625 134.587926)">0.4</text>
     </g>
    </g>
    <g id="ytick_6">
     <g id="line2d_14">
      <g>
       <use xlink:href="#ma50cf9d33e" x="43.78625" y="92.24561" style="stroke: #000000; stroke-width: 0.8"/>
      </g>
     </g>
     <g id="text_15">
      <text style="font-size: 10px; font-family: 'Liberation Sans', 'DejaVu Sans', sans-serif; text-anchor: end" x="36.28625" y="95.869048" transform="rotate(-0 36.28625 95.869048)">0.5</text>
     </g>
    </g>
    <g id="ytick_7">
     <g id="line2d_15">
      <g>
       <use xlink:href="#ma50cf9d33e" x="43.78625" y="53.526732" style="stroke: #000000; stroke-width: 0.8"/>
      </g>
     </g>
     <g id="text_16">
      <text style="font-size: 10px; font-family: 'Liberation Sans', 'DejaVu Sans', sans-serif; text-anchor: end" x="36.28625" y="57.15017" transform="rotate(-0 36.28625 57.15017)">0.6</text>
     </g>
    </g>
    <g id="text_17">
     <text style="font-size: 12px; font-family: 'Liberation Sans', 'DejaVu Sans', sans-serif; text-anchor: middle" x="15.89625" y="161.1" transform="rotate(-90 15.89625 161.1)">Density</text>
    </g>
   </g>
   <g id="patch_123">
    <path d="M 43.78625 285.84 
L 43.78625 36.36 
" style="fill: none; stroke: #000000; stroke-width: 0.8; stroke-linejoin: miter; stroke-linecap: square"/>
   </g>
   <g id="patch_124">
    <path d="M 43.78625 285.84 
L 490.18625 285.84 
" style="fill: none; stroke: #000000; stroke-width: 0.8; stroke-linejoin: miter; stroke-linecap: square"/>
   </g>
   <g id="line2d_16">
    <path d="M 288.120632 285.84 
L 288.120632 36.36 
" clip-path="url(#p6b01d46e1e)" style="fill: none; stroke-dasharray: 3.7,1.6; stroke-dashoffset: 0; stroke: #808080"/>
   </g>
   <g id="line2d_17">
    <path d="M 144.076821 285.84 
L 144.076821 36.36 
" clip-path="url(#p6b01d46e1e)" style="fill: none; stroke: #cc6677; stroke-width: 1.6; stroke-linecap: square"/>
   </g>
   <g id="legend_1">
    <g id="line2d_18">
     <path d="M 354.099219 47.832187 
L 363.099219 47.832187 
L 372.099219 47.832187 
" style="fill: none; stroke: #cc6677; stroke-width: 1.6; stroke-linecap: square"/>
    </g>
    <g id="text_18">
     <text style="font-size: 9px; font-family: 'Liberation Sans', 'DejaVu Sans', sans-serif; text-anchor: start" x="379.299219" y="50.982187" transform="rotate(-0 379.299219 50.982187)">SGC observed (z = -14.8)</text>
    </g>
    <g id="line2d_19">
     <path d="M 354.099219 60.721875 
L 363.099219 60.721875 
L 372.099219 60.721875 
" style="fill: none; stroke-dasharray: 3.7,1.6; stroke-dashoffset: 0; stroke: #808080"/>
    </g>
    <g id="text_19">
     <text style="font-size: 9px; font-family: 'Liberation Sans', 'DejaVu Sans', sans-serif; text-anchor: start" x="379.299219" y="63.871875" transform="rotate(-0 379.299219 63.871875)">null minimum = 27.40</text>
    </g>
   </g>
  </g>
  <g id="text_20">
   <!-- B: Condition C — 10 AA, $n$ = 3 (RAA10 triplet) -->
   <g transform="translate(137.08625 15.96)">
    <text>
     <tspan x="0" y="-0.296875" style="font-size: 12px; font-family: 'Liberation Sans'">B</tspan>
     <tspan x="8.003906" y="-0.296875" style="font-size: 12px; font-family: 'Liberation Sans'">:</tspan>
     <tspan x="11.337891" y="-0.296875" style="font-size: 12px; font-family: 'Liberation Sans'"> </tspan>
     <tspan x="14.671875" y="-0.296875" style="font-size: 12px; font-family: 'Liberation Sans'">C</tspan>
     <tspan x="23.337891" y="-0.296875" style="font-size: 12px; font-family: 'Liberation Sans'">o</tspan>
     <tspan x="30.011719" y="-0.296875" style="font-size: 12px; font-family: 'Liberation Sans'">n</tspan>
     <tspan x="36.685547" y="-0.296875" style="font-size: 12px; font-family: 'Liberation Sans'">d</tspan>
     <tspan x="43.359375" y="-0.296875" style="font-size: 12px; font-family: 'Liberation Sans'">i</tspan>
     <tspan x="46.025391" y="-0.296875" style="font-size: 12px; font-family: 'Liberation Sans'">t</tspan>
     <tspan x="49.359375" y="-0.296875" style="font-size: 12px; font-family: 'Liberation Sans'">i</tspan>
     <tspan x="52.025391" y="-0.296875" style="font-size: 12px; font-family: 'Liberation Sans'">o</tspan>
     <tspan x="58.699219" y="-0.296875" style="font-size: 12px; font-family: 'Liberation Sans'">n</tspan>
     <tspan x="65.373047" y="-0.296875" style="font-size: 12px; font-family: 'Liberation Sans'"> </tspan>
     <tspan x="68.707031" y="-0.296875" style="font-size: 12px; font-family: 'Liberation Sans'">C</tspan>
     <tspan x="77.373047" y="-0.296875" style="font-size: 12px; font-family: 'Liberation Sans'"> </tspan>
     <tspan x="92.707031" y="-0.296875" style="font-size: 12px; font-family: 'Liberation Sans'"> </tspan>
     <tspan x="96.041016" y="-0.296875" style="font-size: 12px; font-family: 'Liberation Sans'">1</tspan>
     <tspan x="102.714844" y="-0.296875" style="font-size: 12px; font-family: 'Liberation Sans'">0</tspan>
     <tspan x="109.388672" y="-0.296875" style="font-size: 12px; font-family: 'Liberation Sans'"> </tspan>
     <tspan x="112.722656" y="-0.296875" style="font-size: 12px; font-family: 'Liberation Sans'">A</tspan>
     <tspan x="120.726562" y="-0.296875" style="font-size: 12px; font-family: 'Liberation Sans'">A</tspan>
     <tspan x="128.730469" y="-0.296875" style="font-size: 12px; font-family: 'Liberation Sans'">,</tspan>
     <tspan x="132.064453" y="-0.296875" style="font-size: 12px; font-family: 'Liberation Sans'"> </tspan>
     <tspan x="143.003906" y="-0.296875" style="font-size: 12px; font-family: 'Liberation Sans'"> </tspan>
     <tspan x="146.337891" y="-0.296875" style="font-size: 12px; font-family: 'Liberation Sans'">=</tspan>
     <tspan x="153.345703" y="-0.296875" style="font-size: 12px; font-family: 'Liberation Sans'"> </tspan>
     <tspan x="156.679688" y="-0.296875" style="font-size: 12px; font-family: 'Liberation Sans'">3</tspan>
     <tspan x="163.353516" y="-0.296875" style="font-size: 12px; font-family: 'Liberation Sans'"> </tspan>
     <tspan x="166.6875" y="-0.296875" style="font-size: 12px; font-family: 'Liberation Sans'">(</tspan>
     <tspan x="170.683594" y="-0.296875" style="font-size: 12px; font-family: 'Liberation Sans'">R</tspan>
     <tspan x="179.349609" y="-0.296875" style="font-size: 12px; font-family: 'Liberation Sans'">A</tspan>
     <tspan x="187.353516" y="-0.296875" style="font-size: 12px; font-family: 'Liberation Sans'">A</tspan>
     <tspan x="195.357422" y="-0.296875" style="font-size: 12px; font-family: 'Liberation Sans'">1</tspan>
     <tspan x="202.03125" y="-0.296875" style="font-size: 12px; font-family: 'Liberation Sans'">0</tspan>
     <tspan x="208.705078" y="-0.296875" style="font-size: 12px; font-family: 'Liberation Sans'"> </tspan>
     <tspan x="212.039062" y="-0.296875" style="font-size: 12px; font-family: 'Liberation Sans'">t</tspan>
     <tspan x="215.373047" y="-0.296875" style="font-size: 12px; font-family: 'Liberation Sans'">r</tspan>
     <tspan x="219.369141" y="-0.296875" style="font-size: 12px; font-family: 'Liberation Sans'">i</tspan>
     <tspan x="222.035156" y="-0.296875" style="font-size: 12px; font-family: 'Liberation Sans'">p</tspan>
     <tspan x="228.708984" y="-0.296875" style="font-size: 12px; font-family: 'Liberation Sans'">l</tspan>
     <tspan x="231.375" y="-0.296875" style="font-size: 12px; font-family: 'Liberation Sans'">e</tspan>
     <tspan x="238.048828" y="-0.296875" style="font-size: 12px; font-family: 'Liberation Sans'">t</tspan>
     <tspan x="241.382812" y="-0.296875" style="font-size: 12px; font-family: 'Liberation Sans'">)</tspan>
     <tspan x="80.707031" y="-0.296875" style="font-size: 12px; font-family: 'DejaVu Sans Display'">—</tspan>
     <tspan x="135.398438" y="-0.296875" style="font-style: oblique; font-size: 12px; font-family: 'DejaVu Sans'">n</tspan>
    </text>
   </g>
  </g>
 </g>
 <defs>
  <clipPath id="p6b01d46e1e">
   <rect x="43.78625" y="36.36" width="446.4" height="249.48"/>
  </clipPath>
 </defs>
</svg>
