<svg width="536.64" height="603.84" viewBox="0 0 402.48 452.88" xmlns="http://www.w3.org/2000/svg" xmlns:xlink="http://www.w3.org/1999/xlink" stroke-linejoin="round" overflow="hidden"><defs></defs><defs><clipPath id="pa0cb598c5d"><rect x="7.2" y="57.6" width="388.08" height="388.08"/></clipPath></defs><g id="figure_1"><g id="patch_1"><path d="M0 452.88 402.48 452.88 402.48 -0 0 -0Z" fill="#FFFFFF"/></g><g id="axes_1"><g id="line2d_1"><path d="M188.74 229.99 156.896 174.835" stroke="#CC6677" stroke-width="1.6" stroke-linecap="round" fill="none" clip-path="url(#pa0cb598c5d)"/></g><g id="line2d_2"><path d="M201.24 226.641 201.24 162.953" stroke="#CC6677" stroke-width="1.6" stroke-linecap="round" fill="none" clip-path="url(#pa0cb598c5d)"/></g><g id="line2d_3"><path d="M213.74 229.99 245.583 174.835" stroke="#CC6677" stroke-width="1.6" stroke-linecap="round" fill="none" clip-path="url(#pa0cb598c5d)"/></g><g id="line2d_4"><path d="M190.675 274.297 163.759 332.018" stroke="#CC6677" stroke-width="1.6" stroke-linecap="round" fill="none" clip-path="url(#pa0cb598c5d)"/></g><g id="line2d_5"><path d="M180.762 265.979 128.592 302.509" stroke="#CC6677" stroke-width="1.6" stroke-linecap="round" fill="none" clip-path="url(#pa0cb598c5d)"/></g><g id="line2d_6"><path d="M176.336 253.819 112.89 259.37" stroke="#CC6677" stroke-width="1.6" stroke-linecap="round" fill="none" clip-path="url(#pa0cb598c5d)"/></g><g id="line2d_7"><path d="M226.144 253.819 289.59 259.37" stroke="#4477AA" stroke-width="1.6" stroke-linecap="round" fill="none" clip-path="url(#pa0cb598c5d)"/></g><g id="line2d_8"><path d="M221.718 265.979 273.888 302.509" stroke="#4477AA" stroke-width="1.6" stroke-linecap="round" fill="none" clip-path="url(#pa0cb598c5d)"/></g><g id="line2d_9"><path d="M211.805 274.297 238.721 332.018" stroke="#4477AA" stroke-width="1.6" stroke-linecap="round" fill="none" clip-path="url(#pa0cb598c5d)"/></g><g id="patch_2"><path d="M146.183 177.706C151.865 177.706 157.316 175.448 161.334 171.43 165.353 167.411 167.61 161.961 167.61 156.278 167.61 150.595 165.353 145.144 161.334 141.126 157.316 137.108 151.865 134.85 146.183 134.85 140.5 134.85 135.049 137.108 131.031 141.126 127.013 145.144 124.755 150.595 124.755 156.278 124.755 161.961 127.013 167.411 131.031 171.43 135.049 175.448 140.5 177.706 146.183 177.706Z" stroke="#000000" stroke-linejoin="miter" fill="#CC6677" fill-opacity="0.18"/></g><g id="patch_3"><path d="M201.24 162.953C206.923 162.953 212.373 160.695 216.392 156.677 220.41 152.659 222.668 147.208 222.668 141.525 222.668 135.843 220.41 130.392 216.392 126.374 212.373 122.355 206.923 120.098 201.24 120.098 195.557 120.098 190.107 122.355 186.088 126.374 182.07 130.392 179.812 135.843 179.812 141.525 179.812 147.208 182.07 152.659 186.088 156.677 190.107 160.695 195.557 162.953 201.24 162.953Z" stroke="#000000" stroke-linejoin="miter" fill="#CC6677" fill-opacity="0.18"/></g><g id="patch_4"><path d="M256.297 177.706C261.98 177.706 267.431 175.448 271.449 171.43 275.467 167.411 277.725 161.961 277.725 156.278 277.725 150.595 275.467 145.144 271.449 141.126 267.431 137.108 261.98 134.85 256.297 134.85 250.615 134.85 245.164 137.108 241.146 141.126 237.127 145.144 234.87 150.595 234.87 156.278 234.87 161.961 237.127 167.411 241.146 171.43 245.164 175.448 250.615 177.706 256.297 177.706Z" stroke="#000000" stroke-linejoin="miter" fill="#CC6677" fill-opacity="0.18"/></g><g id="text_1"><text fill="#4C4C4C" font-family="Liberation Sans,DejaVu Sans,Arial" font-style="italic" font-size="11" text-anchor="middle" x="201.24" y="105.086">pos 1</text></g><g id="patch_5"><path d="M154.704 372.866C160.386 372.866 165.837 370.608 169.855 366.59 173.873 362.571 176.131 357.121 176.131 351.438 176.131 345.755 173.873 340.304 169.855 336.286 165.837 332.268 160.386 330.01 154.704 330.01 149.021 330.01 143.57 332.268 139.552 336.286 135.534 340.304 133.276 345.755 133.276 351.438 133.276 357.121 135.534 362.571 139.552 366.59 143.57 370.608 149.021 372.866 154.704 372.866Z" stroke="#000000" stroke-linejoin="miter" fill="#CC6677" fill-opacity="0.18"/></g><g id="patch_6"><path d="M111.039 336.227C116.722 336.227 122.173 333.969 126.191 329.951 130.209 325.933 132.467 320.482 132.467 314.799 132.467 309.117 130.209 303.666 126.191 299.648 122.173 295.629 116.722 293.371 111.039 293.371 105.357 293.371 99.9059 295.629 95.8876 299.648 91.8693 303.666 89.6116 309.117 89.6116 314.799 89.6116 320.482 91.8693 325.933 95.8876 329.951 99.9059 333.969 105.357 336.227 111.039 336.227Z" stroke="#000000" stroke-linejoin="miter" fill="#CC6677" fill-opacity="0.18"/></g><g id="patch_7"><path d="M91.5443 282.665C97.227 282.665 102.678 280.407 106.696 276.389 110.714 272.371 112.972 266.92 112.972 261.237 112.972 255.554 110.714 250.104 106.696 246.085 102.678 242.067 97.227 239.809 91.5443 239.809 85.8616 239.809 80.4109 242.067 76.3926 246.085 72.3743 250.104 70.1166 255.554 70.1166 261.237 70.1166 266.92 72.3743 272.371 76.3926 276.389 80.4109 280.407 85.8616 282.665 91.5443 282.665Z" stroke="#000000" stroke-linejoin="miter" fill="#CC6677" fill-opacity="0.18"/></g><g id="text_2"><text fill="#4C4C4C" font-family="Liberation Sans,DejaVu Sans,Arial" font-style="italic" font-size="11" text-anchor="middle" x="78.8596" y="340.176">pos 2</text></g><g id="patch_8"><path d="M310.936 282.665C316.618 282.665 322.069 280.407 326.087 276.389 330.106 272.371 332.363 266.92 332.363 261.237 332.363 255.554 330.106 250.104 326.087 246.085 322.069 242.067 316.618 239.809 310.936 239.809 305.253 239.809 299.802 242.067 295.784 246.085 291.766 250.104 289.508 255.554 289.508 261.237 289.508 266.92 291.766 272.371 295.784 276.389 299.802 280.407 305.253 282.665 310.936 282.665Z" stroke="#000000" stroke-linejoin="miter" fill="#4477AA" fill-opacity="0.18"/></g><g id="patch_9"><path d="M291.441 336.227C297.123 336.227 302.574 333.969 306.592 329.951 310.611 325.933 312.868 320.482 312.868 314.799 312.868 309.117 310.611 303.666 306.592 299.648 302.574 295.629 297.123 293.371 291.441 293.371 285.758 293.371 280.307 295.629 276.289 299.648 272.271 303.666 270.013 309.117 270.013 314.799 270.013 320.482 272.271 325.933 276.289 329.951 280.307 333.969 285.758 336.227 291.441 336.227Z" stroke="#000000" stroke-linejoin="miter" fill="#4477AA" fill-opacity="0.18"/></g><g id="patch_10"><path d="M247.776 372.866C253.459 372.866 258.91 370.608 262.928 366.59 266.946 362.571 269.204 357.121 269.204 351.438 269.204 345.755 266.946 340.304 262.928 336.286 258.91 332.268 253.459 330.01 247.776 330.01 242.094 330.01 236.643 332.268 232.625 336.286 228.607 340.304 226.349 345.755 226.349 351.438 226.349 357.121 228.607 362.571 232.625 366.59 236.643 370.608 242.094 372.866 247.776 372.866Z" stroke="#000000" stroke-linejoin="miter" fill="#4477AA" fill-opacity="0.18"/></g><g id="text_3"><text fill="#4C4C4C" font-family="Liberation Sans,DejaVu Sans,Arial" font-style="italic" font-size="11" text-anchor="middle" x="323.62" y="340.176">pos 3 (wobble)</text></g><g id="patch_11"><path d="M201.24 276.639C207.87 276.639 214.229 274.005 218.917 269.317 223.605 264.629 226.239 258.27 226.239 251.64 226.239 245.01 223.605 238.651 218.917 233.963 214.229 229.275 207.87 226.641 201.24 226.641 194.61 226.641 188.251 229.275 183.563 233.963 178.875 238.651 176.241 245.01 176.241 251.64 176.241 258.27 178.875 264.629 183.563 269.317 188.251 274.005 194.61 276.639 201.24 276.639Z" stroke="#000000" stroke-width="1.6" stroke-linejoin="miter" fill="#FFFFFF" clip-path="url(#pa0cb598c5d)"/></g><g id="text_4"><text fill="#CC6677" font-family="Liberation Sans,DejaVu Sans,Arial" font-weight="700" font-size="11" text-anchor="middle" x="201.24" y="80.4519">Positions 1-2: all 6 non-synonymous</text></g><g id="text_5"><text fill="#4477AA" font-family="Liberation Sans,DejaVu Sans,Arial" font-weight="700" font-size="11" text-anchor="middle" x="201.24" y="419.589">Position 3 (wobble): all 3 synonymous</text></g><g id="text_6"><text font-family="Liberation Sans,DejaVu Sans,Arial" font-size="10" text-anchor="middle" x="201.24" y="437.653">total synonymous: 3/9 (33 %)</text></g><g id="text_7"><text fill="#CC6677" font-family="Liberation Sans,DejaVu Sans,Arial" font-weight="700" font-size="12" text-anchor="middle" x="138.445" y="155.81">A</text></g><g id="text_8"><text font-family="Liberation Sans,DejaVu Sans,Arial" font-weight="700" font-size="10" text-anchor="middle" x="146.183" y="155.293">C</text></g><g id="text_9"><text font-family="Liberation Sans,DejaVu Sans,Arial" font-weight="700" font-size="10" text-anchor="middle" x="153.92" y="155.293">U</text></g><g id="text_10"><text fill="#4C4C4C" font-family="Liberation Sans,DejaVu Sans,Arial" font-size="8" text-anchor="middle" x="146.183" y="164.299">Thr</text></g><g id="text_11"><text fill="#CC6677" font-family="Liberation Sans,DejaVu Sans,Arial" font-weight="700" font-size="12" text-anchor="middle" x="193.502" y="141.057">U</text></g><g id="text_12"><text font-family="Liberation Sans,DejaVu Sans,Arial" font-weight="700" font-size="10" text-anchor="middle" x="201.24" y="140.54">C</text></g><g id="text_13"><text font-family="Liberation Sans,DejaVu Sans,Arial" font-weight="700" font-size="10" text-anchor="middle" x="208.978" y="140.54">U</text></g><g id="text_14"><text fill="#4C4C4C" font-family="Liberation Sans,DejaVu Sans,Arial" font-size="8" text-anchor="middle" x="201.24" y="149.546">Ser</text></g><g id="text_15"><text fill="#CC6677" font-family="Liberation Sans,DejaVu Sans,Arial" font-weight="700" font-size="12" text-anchor="middle" x="248.56" y="155.81">C</text></g><g id="text_16"><text font-family="Liberation Sans,DejaVu Sans,Arial" font-weight="700" font-size="10" text-anchor="middle" x="256.297" y="155.293">C</text></g><g id="text_17"><text font-family="Liberation Sans,DejaVu Sans,Arial" font-weight="700" font-size="10" text-anchor="middle" x="264.035" y="155.293">U</text></g><g id="text_18"><text fill="#4C4C4C" font-family="Liberation Sans,DejaVu Sans,Arial" font-size="8" text-anchor="middle" x="256.297" y="164.299">Pro</text></g><g id="text_19"><text font-family="Liberation Sans,DejaVu Sans,Arial" font-weight="700" font-size="10" text-anchor="middle" x="146.966" y="350.452">G</text></g><g id="text_20"><text fill="#CC6677" font-family="Liberation Sans,DejaVu Sans,Arial" font-weight="700" font-size="12" text-anchor="middle" x="154.704" y="350.97">G</text></g><g id="text_21"><text font-family="Liberation Sans,DejaVu Sans,Arial" font-weight="700" font-size="10" text-anchor="middle" x="162.441" y="350.452">U</text></g><g id="text_22"><text fill="#4C4C4C" font-family="Liberation Sans,DejaVu Sans,Arial" font-size="8" text-anchor="middle" x="154.704" y="359.459">Gly</text></g><g id="text_23"><text font-family="Liberation Sans,DejaVu Sans,Arial" font-weight="700" font-size="10" text-anchor="middle" x="103.302" y="313.814">G</text></g><g id="text_24"><text fill="#CC6677" font-family="Liberation Sans,DejaVu Sans,Arial" font-weight="700" font-size="12" text-anchor="middle" x="111.039" y="314.331">U</text></g><g id="text_25"><text font-family="Liberation Sans,DejaVu Sans,Arial" font-weight="700" font-size="10" text-anchor="middle" x="118.777" y="313.814">U</text></g><g id="text_26"><text fill="#4C4C4C" font-family="Liberation Sans,DejaVu Sans,Arial" font-size="8" text-anchor="middle" x="111.039" y="322.82">Val</text></g><g id="text_27"><text font-family="Liberation Sans,DejaVu Sans,Arial" font-weight="700" font-size="10" text-anchor="middle" x="83.8065" y="260.252">G</text></g><g id="text_28"><text fill="#CC6677" font-family="Liberation Sans,DejaVu Sans,Arial" font-weight="700" font-size="12" text-anchor="middle" x="91.5443" y="260.769">A</text></g><g id="text_29"><text font-family="Liberation Sans,DejaVu Sans,Arial" font-weight="700" font-size="10" text-anchor="middle" x="99.2821" y="260.252">U</text></g><g id="text_30"><text fill="#4C4C4C" font-family="Liberation Sans,DejaVu Sans,Arial" font-size="8" text-anchor="middle" x="91.5443" y="269.258">Asp</text></g><g id="text_31"><text font-family="Liberation Sans,DejaVu Sans,Arial" font-weight="700" font-size="10" text-anchor="middle" x="303.198" y="260.252">G</text></g><g id="text_32"><text font-family="Liberation Sans,DejaVu Sans,Arial" font-weight="700" font-size="10" text-anchor="middle" x="310.936" y="260.252">C</text></g><g id="text_33"><text fill="#4477AA" font-family="Liberation Sans,DejaVu Sans,Arial" font-weight="700" font-size="12" text-anchor="middle" x="318.673" y="260.769">G</text></g><g id="text_34"><text fill="#4C4C4C" font-family="Liberation Sans,DejaVu Sans,Arial" font-size="8" text-anchor="middle" x="310.936" y="269.258">Ala</text></g><g id="text_35"><text font-family="Liberation Sans,DejaVu Sans,Arial" font-weight="700" font-size="10" text-anchor="middle" x="283.703" y="313.814">G</text></g><g id="text_36"><text font-family="Liberation Sans,DejaVu Sans,Arial" font-weight="700" font-size="10" text-anchor="middle" x="291.441" y="313.814">C</text></g><g id="text_37"><text fill="#4477AA" font-family="Liberation Sans,DejaVu Sans,Arial" font-weight="700" font-size="12" text-anchor="middle" x="299.178" y="314.331">A</text></g><g id="text_38"><text fill="#4C4C4C" font-family="Liberation Sans,DejaVu Sans,Arial" font-size="8" text-anchor="middle" x="291.441" y="322.82">Ala</text></g><g id="text_39"><text font-family="Liberation Sans,DejaVu Sans,Arial" font-weight="700" font-size="10" text-anchor="middle" x="240.039" y="350.452">G</text></g><g id="text_40"><text font-family="Liberation Sans,DejaVu Sans,Arial" font-weight="700" font-size="10" text-anchor="middle" x="247.776" y="350.452">C</text></g><g id="text_41"><text fill="#4477AA" font-family="Liberation Sans,DejaVu Sans,Arial" font-weight="700" font-size="12" text-anchor="middle" x="255.514" y="350.97">C</text></g><g id="text_42"><text fill="#4C4C4C" font-family="Liberation Sans,DejaVu Sans,Arial" font-size="8" text-anchor="middle" x="247.776" y="359.459">Ala</text></g><g id="text_43"><text font-family="Liberation Sans,DejaVu Sans,Arial" font-weight="700" font-size="12" text-anchor="middle" x="201.24" y="258.314">GCU</text></g><g id="text_44"><text fill="#4C4C4C" font-family="Liberation Sans,DejaVu Sans,Arial" font-size="10" text-anchor="middle" x="201.24" y="249.464">Ala</text></g></g><g id="text_45"><text font-family="Liberation Sans,DejaVu Sans,Arial" font-size="12" text-anchor="middle" x="194.94" y="15.8963">Triplet code: GCU Hamming-1 neighborhood</text></g></g></svg>